Itim-Regular.ufo
<glyph name="numbersign" format="1">
  <advance width="652"/>
  <unicode hex="0023"/>
  <outline>
    <contour>
      <point x="643" y="453"/>
      <point x="620" y="464"/>
      <point x="597" y="464" type="curve" smooth="yes"/>
      <point x="553" y="464"/>
      <point x="539" y="462"/>
      <point x="529" y="465" type="curve"/>
      <point x="541" y="492"/>
      <point x="563" y="553"/>
      <point x="563" y="592" type="curve" smooth="yes"/>
      <point x="563" y="616"/>
      <point x="551" y="633"/>
      <point x="528" y="633" type="curve" smooth="yes"/>
      <point x="498" y="633"/>
      <point x="490" y="622"/>
      <point x="483" y="596" type="curve"/>
      <point x="474" y="553"/>
      <point x="460" y="505"/>
      <point x="442" y="471" type="curve"/>
      <point x="428" y="472"/>
      <point x="412" y="473"/>
      <point x="392" y="473" type="curve" smooth="yes"/>
      <point x="358" y="473"/>
      <point x="338" y="469"/>
      <point x="313" y="472" type="curve"/>
      <point x="317" y="488"/>
      <point x="322" y="507"/>
      <point x="328" y="524" type="curve" smooth="yes"/>
      <point x="338" y="554"/>
      <point x="350" y="582"/>
      <point x="350" y="623" type="curve"/>
      <point x="350" y="623"/>
      <point x="348" y="642"/>
      <point x="302" y="642" type="curve" smooth="yes"/>
      <point x="278" y="642"/>
      <point x="266" y="609"/>
      <point x="260" y="581" type="curve" smooth="yes"/>
      <point x="254" y="553"/>
      <point x="227" y="485"/>
      <point x="225" y="472" type="curve"/>
      <point x="200" y="468"/>
      <point x="190" y="468"/>
      <point x="166" y="468" type="curve" smooth="yes"/>
      <point x="140" y="468"/>
      <point x="122" y="470"/>
      <point x="104" y="470" type="curve" smooth="yes"/>
      <point x="74" y="470"/>
      <point x="65" y="434"/>
      <point x="65" y="421" type="curve" smooth="yes"/>
      <point x="65" y="382"/>
      <point x="117" y="380"/>
      <point x="143" y="380" type="curve" smooth="yes"/>
      <point x="166" y="380"/>
      <point x="184" y="383"/>
      <point x="202" y="383" type="curve"/>
      <point x="192" y="361"/>
      <point x="182" y="336"/>
      <point x="175" y="311" type="curve" smooth="yes"/>
      <point x="168" y="284"/>
      <point x="166" y="272"/>
      <point x="155" y="249" type="curve"/>
      <point x="114" y="247"/>
      <point x="70" y="256"/>
      <point x="34" y="242" type="curve" smooth="yes"/>
      <point x="11" y="233"/>
      <point x="14" y="211"/>
      <point x="14" y="202" type="curve" smooth="yes"/>
      <point x="14" y="169"/>
      <point x="42" y="157"/>
      <point x="68" y="157" type="curve" smooth="yes"/>
      <point x="76" y="157"/>
      <point x="119" y="158"/>
      <point x="127" y="160" type="curve"/>
      <point x="112" y="125"/>
      <point x="100" y="81"/>
      <point x="100" y="43" type="curve" smooth="yes"/>
      <point x="100" y="13"/>
      <point x="116" y="0"/>
      <point x="143" y="0" type="curve" smooth="yes"/>
      <point x="163" y="0"/>
      <point x="174" y="22"/>
      <point x="180" y="37" type="curve" smooth="yes"/>
      <point x="183" y="44"/>
      <point x="216" y="156"/>
      <point x="220" y="165" type="curve"/>
      <point x="253" y="166"/>
      <point x="297" y="173"/>
      <point x="328" y="166" type="curve"/>
      <point x="321" y="121"/>
      <point x="292" y="82"/>
      <point x="292" y="40" type="curve" smooth="yes"/>
      <point x="292" y="11"/>
      <point x="314" y="0"/>
      <point x="326" y="0" type="curve" smooth="yes"/>
      <point x="358" y="0"/>
      <point x="373" y="13"/>
      <point x="378" y="27" type="curve"/>
      <point x="391" y="85"/>
      <point x="397" y="117"/>
      <point x="417" y="161" type="curve"/>
      <point x="450" y="164"/>
      <point x="495" y="162"/>
      <point x="526" y="162" type="curve" smooth="yes"/>
      <point x="537" y="162"/>
      <point x="580" y="165"/>
      <point x="580" y="200" type="curve" smooth="yes"/>
      <point x="580" y="248"/>
      <point x="547" y="249"/>
      <point x="519" y="250" type="curve"/>
      <point x="506" y="250"/>
      <point x="454" y="251"/>
      <point x="452" y="251" type="curve"/>
      <point x="456" y="264"/>
      <point x="485" y="355"/>
      <point x="502" y="382" type="curve"/>
      <point x="512" y="382"/>
      <point x="583" y="382"/>
      <point x="592" y="382" type="curve" smooth="yes"/>
      <point x="616" y="382"/>
      <point x="643" y="400"/>
      <point x="643" y="427" type="curve" smooth="yes"/>
    </contour>
    <contour>
      <point x="405" y="369" type="line" smooth="yes"/>
      <point x="391" y="330"/>
      <point x="376" y="290"/>
      <point x="360" y="252" type="curve"/>
      <point x="355" y="252"/>
      <point x="255" y="248"/>
      <point x="237" y="248" type="curve"/>
      <point x="243" y="269"/>
      <point x="280" y="361"/>
      <point x="287" y="383" type="curve"/>
      <point x="319" y="382"/>
      <point x="347" y="388"/>
      <point x="377" y="388" type="curve" smooth="yes"/>
      <point x="388" y="388"/>
      <point x="399" y="387"/>
      <point x="411" y="385" type="curve"/>
    </contour>
  </outline>
</glyph>
<glyph name="percent" format="1">
  <advance width="706"/>
  <unicode hex="0025"/>
  <outline>
    <contour>
      <point x="94" y="631"/>
      <point x="36" y="587"/>
      <point x="36" y="500" type="curve" smooth="yes"/>
      <point x="36" y="419"/>
      <point x="90" y="364"/>
      <point x="175" y="364" type="curve" smooth="yes"/>
      <point x="255" y="364"/>
      <point x="319" y="431"/>
      <point x="319" y="521" type="curve" smooth="yes"/>
      <point x="319" y="587"/>
      <point x="243" y="631"/>
      <point x="184" y="631" type="curve" smooth="yes"/>
    </contour>
    <contour>
      <point x="132" y="440"/>
      <point x="113" y="472"/>
      <point x="113" y="500" type="curve" smooth="yes"/>
      <point x="113" y="524"/>
      <point x="132" y="554"/>
      <point x="178" y="554" type="curve" smooth="yes"/>
      <point x="216" y="554"/>
      <point x="234" y="543"/>
      <point x="234" y="517" type="curve" smooth="yes"/>
      <point x="234" y="479"/>
      <point x="220" y="440"/>
      <point x="162" y="440" type="curve" smooth="yes"/>
    </contour>
    <contour>
      <point x="670" y="228"/>
      <point x="626" y="277"/>
      <point x="545" y="277" type="curve" smooth="yes"/>
      <point x="449" y="277"/>
      <point x="392" y="208"/>
      <point x="391" y="137" type="curve" smooth="yes"/>
      <point x="389" y="60"/>
      <point x="449" y="6"/>
      <point x="517" y="6" type="curve" smooth="yes"/>
      <point x="595" y="6"/>
      <point x="670" y="60"/>
      <point x="670" y="140" type="curve" smooth="yes"/>
    </contour>
    <contour>
      <point x="574" y="201"/>
      <point x="594" y="180"/>
      <point x="594" y="150" type="curve" smooth="yes"/>
      <point x="594" y="111"/>
      <point x="575" y="81"/>
      <point x="517" y="81" type="curve" smooth="yes"/>
      <point x="499" y="81"/>
      <point x="473" y="98"/>
      <point x="473" y="139" type="curve" smooth="yes"/>
      <point x="473" y="183"/>
      <point x="500" y="201"/>
      <point x="537" y="201" type="curve" smooth="yes"/>
    </contour>
    <contour>
      <point x="530" y="642"/>
      <point x="499" y="590"/>
      <point x="482" y="570" type="curve" smooth="yes"/>
      <point x="374" y="436"/>
      <point x="258" y="250"/>
      <point x="129" y="63" type="curve"/>
      <point x="123" y="56"/>
      <point x="120" y="46"/>
      <point x="120" y="38" type="curve" smooth="yes"/>
      <point x="120" y="4"/>
      <point x="148" y="-4"/>
      <point x="166" y="-4" type="curve" smooth="yes"/>
      <point x="197" y="-4"/>
      <point x="220" y="23"/>
      <point x="237" y="56" type="curve" smooth="yes"/>
      <point x="343" y="250"/>
      <point x="457" y="392"/>
      <point x="592" y="568" type="curve"/>
      <point x="602" y="580"/>
      <point x="608" y="593"/>
      <point x="608" y="606" type="curve" smooth="yes"/>
      <point x="608" y="622"/>
      <point x="601" y="642"/>
      <point x="580" y="642" type="curve" smooth="yes"/>
    </contour>
  </outline>
</glyph>
<glyph name="parenright" format="1">
  <advance width="326"/>
  <unicode hex="0029"/>
  <outline>
    <contour>
      <point x="46" y="660"/>
      <point x="22" y="648"/>
      <point x="22" y="625" type="curve" smooth="yes"/>
      <point x="22" y="610"/>
      <point x="53" y="590"/>
      <point x="71" y="571" type="curve" smooth="yes"/>
      <point x="127" y="508"/>
      <point x="172" y="351"/>
      <point x="172" y="216" type="curve" smooth="yes"/>
      <point x="172" y="153"/>
      <point x="165" y="84"/>
      <point x="147" y="33" type="curve" smooth="yes"/>
      <point x="135" y="0"/>
      <point x="109" y="-71"/>
      <point x="80" y="-104" type="curve" smooth="yes"/>
      <point x="58" y="-130"/>
      <point x="13" y="-158"/>
      <point x="13" y="-185" type="curve" smooth="yes"/>
      <point x="13" y="-200"/>
      <point x="29" y="-217"/>
      <point x="43" y="-217" type="curve" smooth="yes"/>
      <point x="80" y="-217"/>
      <point x="138" y="-176"/>
      <point x="157" y="-152" type="curve" smooth="yes"/>
      <point x="224" y="-69"/>
      <point x="267" y="69"/>
      <point x="267" y="242" type="curve" smooth="yes"/>
      <point x="267" y="327"/>
      <point x="245" y="430"/>
      <point x="218" y="499" type="curve" smooth="yes"/>
      <point x="198" y="552"/>
      <point x="129" y="660"/>
      <point x="76" y="660" type="curve" smooth="yes"/>
    </contour>
  </outline>
</glyph>
<glyph name="slash" format="1">
  <advance width="421"/>
  <unicode hex="002F"/>
  <outline>
    <contour>
      <point x="318" y="642"/>
      <point x="294" y="587"/>
      <point x="282" y="563" type="curve"/>
      <point x="195" y="404"/>
      <point x="149" y="244"/>
      <point x="20" y="57" type="curve"/>
      <point x="14" y="49"/>
      <point x="11" y="40"/>
      <point x="11" y="31" type="curve" smooth="yes"/>
      <point x="11" y="-2"/>
      <point x="45" y="-5"/>
      <point x="62" y="-5" type="curve" smooth="yes"/>
      <point x="94" y="-5"/>
      <point x="116" y="22"/>
      <point x="133" y="55" type="curve" smooth="yes"/>
      <point x="182" y="144"/>
      <point x="206" y="218"/>
      <point x="243" y="290" type="curve" smooth="yes"/>
      <point x="300" y="400"/>
      <point x="335" y="483"/>
      <point x="405" y="593" type="curve"/>
      <point x="409" y="600"/>
      <point x="410" y="607"/>
      <point x="410" y="613" type="curve" smooth="yes"/>
      <point x="410" y="629"/>
      <point x="396" y="642"/>
      <point x="374" y="642" type="curve" smooth="yes"/>
    </contour>
  </outline>
</glyph>
<glyph name="two" format="1">
  <advance width="526"/>
  <unicode hex="0032"/>
  <outline>
    <contour>
      <point x="283" y="193"/>
      <point x="459" y="312"/>
      <point x="459" y="475" type="curve" smooth="yes"/>
      <point x="459" y="561"/>
      <point x="347" y="626"/>
      <point x="265" y="626" type="curve" smooth="yes"/>
      <point x="146" y="626"/>
      <point x="53" y="562"/>
      <point x="53" y="469" type="curve" smooth="yes"/>
      <point x="53" y="438"/>
      <point x="62" y="400"/>
      <point x="103" y="400" type="curve" smooth="yes"/>
      <point x="130" y="400"/>
      <point x="150" y="416"/>
      <point x="150" y="431" type="curve" smooth="yes"/>
      <point x="150" y="492"/>
      <point x="178" y="530"/>
      <point x="259" y="530" type="curve" smooth="yes"/>
      <point x="306" y="530"/>
      <point x="356" y="504"/>
      <point x="356" y="460" type="curve" smooth="yes"/>
      <point x="356" y="364"/>
      <point x="210" y="261"/>
      <point x="147" y="192" type="curve" smooth="yes"/>
      <point x="116" y="158"/>
      <point x="47" y="103"/>
      <point x="47" y="55" type="curve" smooth="yes"/>
      <point x="47" y="13"/>
      <point x="81" y="4"/>
      <point x="129" y="4" type="curve" smooth="yes"/>
      <point x="166" y="4"/>
      <point x="220" y="10"/>
      <point x="248" y="10" type="curve" smooth="yes"/>
      <point x="315" y="10"/>
      <point x="389" y="1"/>
      <point x="437" y="0" type="curve" smooth="yes"/>
      <point x="462" y="-1"/>
      <point x="504" y="10"/>
      <point x="504" y="35" type="curve" smooth="yes"/>
      <point x="504" y="76"/>
      <point x="483" y="108"/>
      <point x="430" y="108" type="curve" smooth="yes"/>
      <point x="379" y="108"/>
      <point x="298" y="102"/>
      <point x="236" y="102" type="curve" smooth="yes"/>
      <point x="219" y="102"/>
      <point x="208" y="103"/>
      <point x="191" y="104" type="curve"/>
    </contour>
  </outline>
</glyph>
<glyph name="four" format="1">
  <advance width="601"/>
  <unicode hex="0034"/>
  <outline>
    <contour>
      <point x="236" y="619"/>
      <point x="212" y="631"/>
      <point x="189" y="631" type="curve" smooth="yes"/>
      <point x="168" y="631"/>
      <point x="147" y="622"/>
      <point x="142" y="599" type="curve" smooth="yes"/>
      <point x="130" y="542"/>
      <point x="121" y="501"/>
      <point x="95" y="426" type="curve" smooth="yes"/>
      <point x="76" y="367"/>
      <point x="36" y="266"/>
      <point x="36" y="212" type="curve" smooth="yes"/>
      <point x="36" y="172"/>
      <point x="90" y="158"/>
      <point x="145" y="158" type="curve" smooth="yes"/>
      <point x="218" y="158"/>
      <point x="292" y="175"/>
      <point x="355" y="173" type="curve"/>
      <point x="355" y="155"/>
      <point x="352" y="127"/>
      <point x="352" y="46" type="curve" smooth="yes"/>
      <point x="352" y="17"/>
      <point x="380" y="-3"/>
      <point x="408" y="-3" type="curve" smooth="yes"/>
      <point x="430" y="-3"/>
      <point x="454" y="10"/>
      <point x="454" y="40" type="curve" smooth="yes"/>
      <point x="454" y="88"/>
      <point x="453" y="119"/>
      <point x="453" y="175" type="curve"/>
      <point x="496" y="178"/>
      <point x="514" y="169"/>
      <point x="554" y="169" type="curve" smooth="yes"/>
      <point x="567" y="169"/>
      <point x="579" y="187"/>
      <point x="579" y="222" type="curve" smooth="yes"/>
      <point x="579" y="251"/>
      <point x="542" y="274"/>
      <point x="511" y="274" type="curve" smooth="yes"/>
      <point x="491" y="274"/>
      <point x="474" y="272"/>
      <point x="454" y="271" type="curve"/>
      <point x="450" y="348"/>
      <point x="464" y="441"/>
      <point x="464" y="526" type="curve" smooth="yes"/>
      <point x="464" y="571"/>
      <point x="468" y="617"/>
      <point x="406" y="617" type="curve" smooth="yes"/>
      <point x="378" y="617"/>
      <point x="359" y="598"/>
      <point x="359" y="546" type="curve" smooth="yes"/>
      <point x="359" y="454"/>
      <point x="361" y="371"/>
      <point x="362" y="268" type="curve"/>
      <point x="307" y="268"/>
      <point x="238" y="256"/>
      <point x="180" y="256" type="curve" smooth="yes"/>
      <point x="166" y="256"/>
      <point x="156" y="257"/>
      <point x="145" y="259" type="curve"/>
      <point x="181" y="370"/>
      <point x="236" y="508"/>
      <point x="236" y="600" type="curve" smooth="yes"/>
    </contour>
  </outline>
</glyph>
<glyph name="six" format="1">
  <advance width="529"/>
  <unicode hex="0036"/>
  <outline>
    <contour>
      <point x="348" y="539"/>
      <point x="377" y="553"/>
      <point x="377" y="587" type="curve" smooth="yes"/>
      <point x="377" y="616"/>
      <point x="355" y="626"/>
      <point x="328" y="626" type="curve" smooth="yes"/>
      <point x="290" y="626"/>
      <point x="237" y="607"/>
      <point x="222" y="596" type="curve" smooth="yes"/>
      <point x="119" y="522"/>
      <point x="49" y="395"/>
      <point x="49" y="263" type="curve" smooth="yes"/>
      <point x="49" y="119"/>
      <point x="158" y="-1"/>
      <point x="293" y="-1" type="curve" smooth="yes"/>
      <point x="315" y="-1"/>
      <point x="338" y="3"/>
      <point x="362" y="9" type="curve" smooth="yes"/>
      <point x="413" y="22"/>
      <point x="491" y="105"/>
      <point x="491" y="178" type="curve" smooth="yes"/>
      <point x="491" y="239"/>
      <point x="472" y="295"/>
      <point x="451" y="319" type="curve" smooth="yes"/>
      <point x="418" y="355"/>
      <point x="353" y="392"/>
      <point x="298" y="392" type="curve" smooth="yes"/>
      <point x="253" y="392"/>
      <point x="197" y="382"/>
      <point x="158" y="342" type="curve"/>
      <point x="164" y="377"/>
      <point x="186" y="404"/>
      <point x="213" y="447" type="curve" smooth="yes"/>
      <point x="238" y="486"/>
      <point x="269" y="512"/>
      <point x="314" y="530" type="curve"/>
    </contour>
    <contour>
      <point x="229" y="91"/>
      <point x="158" y="125"/>
      <point x="158" y="217" type="curve" smooth="yes"/>
      <point x="158" y="258"/>
      <point x="235" y="301"/>
      <point x="281" y="301" type="curve" smooth="yes"/>
      <point x="328" y="300"/>
      <point x="393" y="278"/>
      <point x="393" y="175" type="curve" smooth="yes"/>
      <point x="393" y="149"/>
      <point x="365" y="120"/>
      <point x="342" y="104" type="curve"/>
      <point x="323" y="92"/>
      <point x="298" y="91"/>
      <point x="274" y="91" type="curve" smooth="yes"/>
    </contour>
  </outline>
</glyph>
<glyph name="seven" format="1">
  <advance width="496"/>
  <unicode hex="0037"/>
  <outline>
    <contour>
      <point x="473" y="616"/>
      <point x="397" y="637"/>
      <point x="374" y="623" type="curve" smooth="yes"/>
      <point x="337" y="599"/>
      <point x="286" y="591"/>
      <point x="234" y="591" type="curve" smooth="yes"/>
      <point x="159" y="591"/>
      <point x="97" y="607"/>
      <point x="39" y="616" type="curve"/>
      <point x="24" y="616"/>
      <point x="11" y="598"/>
      <point x="11" y="576" type="curve" smooth="yes"/>
      <point x="11" y="539"/>
      <point x="23" y="490"/>
      <point x="41" y="448" type="curve" smooth="yes"/>
      <point x="59" y="407"/>
      <point x="70" y="364"/>
      <point x="115" y="364" type="curve" smooth="yes"/>
      <point x="143" y="364"/>
      <point x="153" y="379"/>
      <point x="153" y="395" type="curve" smooth="yes"/>
      <point x="153" y="429"/>
      <point x="123" y="484"/>
      <point x="121" y="517" type="curve"/>
      <point x="164" y="517"/>
      <point x="202" y="504"/>
      <point x="257" y="504" type="curve" smooth="yes"/>
      <point x="288" y="504"/>
      <point x="321" y="508"/>
      <point x="360" y="520" type="curve"/>
      <point x="317" y="348"/>
      <point x="273" y="283"/>
      <point x="238" y="172" type="curve" smooth="yes"/>
      <point x="217" y="106"/>
      <point x="202" y="66"/>
      <point x="202" y="41" type="curve" smooth="yes"/>
      <point x="202" y="31"/>
      <point x="203" y="24"/>
      <point x="209" y="16" type="curve"/>
      <point x="226" y="4"/>
      <point x="240" y="-3"/>
      <point x="252" y="-3" type="curve" smooth="yes"/>
      <point x="279" y="-3"/>
      <point x="297" y="31"/>
      <point x="319" y="104" type="curve"/>
      <point x="359" y="266"/>
      <point x="438" y="417"/>
      <point x="473" y="584" type="curve"/>
    </contour>
  </outline>
</glyph>
<glyph name="eight" format="1">
  <advance width="548"/>
  <unicode hex="0038"/>
  <outline>
    <contour>
      <point x="449" y="379"/>
      <point x="463" y="429"/>
      <point x="463" y="479" type="curve" smooth="yes"/>
      <point x="463" y="500"/>
      <point x="456" y="527"/>
      <point x="445" y="550" type="curve"/>
      <point x="420" y="597"/>
      <point x="342" y="627"/>
      <point x="285" y="627" type="curve" smooth="yes"/>
      <point x="167" y="627"/>
      <point x="54" y="573"/>
      <point x="54" y="454" type="curve" smooth="yes"/>
      <point x="54" y="382"/>
      <point x="111" y="339"/>
      <point x="184" y="312" type="curve"/>
      <point x="105" y="271"/>
      <point x="45" y="215"/>
      <point x="45" y="139" type="curve" smooth="yes"/>
      <point x="45" y="36"/>
      <point x="159" y="-3"/>
      <point x="260" y="-3" type="curve" smooth="yes"/>
      <point x="387" y="-3"/>
      <point x="455" y="40"/>
      <point x="493" y="99" type="curve" smooth="yes"/>
      <point x="508" y="122"/>
      <point x="517" y="156"/>
      <point x="517" y="175" type="curve" smooth="yes"/>
      <point x="517" y="247"/>
      <point x="458" y="301"/>
      <point x="382" y="331" type="curve"/>
    </contour>
    <contour>
      <point x="229" y="379"/>
      <point x="158" y="402"/>
      <point x="158" y="460" type="curve" smooth="yes"/>
      <point x="158" y="496"/>
      <point x="179" y="544"/>
      <point x="288" y="544" type="curve" smooth="yes"/>
      <point x="332" y="544"/>
      <point x="370" y="514"/>
      <point x="370" y="474" type="curve" smooth="yes"/>
      <point x="370" y="419"/>
      <point x="324" y="391"/>
      <point x="278" y="361" type="curve"/>
    </contour>
    <contour>
      <point x="411" y="119"/>
      <point x="346" y="78"/>
      <point x="252" y="78" type="curve" smooth="yes"/>
      <point x="218" y="78"/>
      <point x="148" y="103"/>
      <point x="148" y="136" type="curve" smooth="yes"/>
      <point x="148" y="153"/>
      <point x="152" y="163"/>
      <point x="165" y="182" type="curve" smooth="yes"/>
      <point x="175" y="197"/>
      <point x="240" y="251"/>
      <point x="290" y="271" type="curve"/>
      <point x="326" y="262"/>
      <point x="411" y="219"/>
      <point x="411" y="182" type="curve" smooth="yes"/>
    </contour>
  </outline>
</glyph>
<glyph name="semicolon" format="1">
  <advance width="250"/>
  <unicode hex="003B"/>
  <outline>
    <contour>
      <point x="154" y="301"/>
      <point x="170" y="317"/>
      <point x="179" y="331" type="curve"/>
      <point x="184" y="341"/>
      <point x="187" y="350"/>
      <point x="187" y="360" type="curve" smooth="yes"/>
      <point x="187" y="398"/>
      <point x="148" y="432"/>
      <point x="114" y="432" type="curve" smooth="yes"/>
      <point x="95" y="432"/>
      <point x="72" y="421"/>
      <point x="63" y="394" type="curve" smooth="yes"/>
      <point x="60" y="384"/>
      <point x="58" y="376"/>
      <point x="58" y="368" type="curve" smooth="yes"/>
      <point x="58" y="330"/>
      <point x="94" y="301"/>
      <point x="126" y="301" type="curve" smooth="yes"/>
    </contour>
    <contour>
      <point x="103" y="-15"/>
      <point x="96" y="-25"/>
      <point x="86" y="-40" type="curve" smooth="yes"/>
      <point x="76" y="-54"/>
      <point x="45" y="-75"/>
      <point x="45" y="-86" type="curve" smooth="yes"/>
      <point x="45" y="-107"/>
      <point x="48" y="-120"/>
      <point x="82" y="-120" type="curve" smooth="yes"/>
      <point x="99" y="-120"/>
      <point x="123" y="-102"/>
      <point x="139" y="-82" type="curve" smooth="yes"/>
      <point x="158" y="-59"/>
      <point x="192" y="4"/>
      <point x="192" y="49" type="curve" smooth="yes"/>
      <point x="192" y="81"/>
      <point x="170" y="109"/>
      <point x="138" y="109" type="curve" smooth="yes"/>
      <point x="121" y="109"/>
      <point x="98" y="105"/>
      <point x="84" y="98" type="curve"/>
      <point x="68" y="91"/>
      <point x="60" y="74"/>
      <point x="59" y="55" type="curve"/>
      <point x="59" y="22"/>
      <point x="79" y="10"/>
      <point x="89" y="4" type="curve"/>
      <point x="96" y="-1"/>
      <point x="109" y="0"/>
      <point x="109" y="0" type="curve"/>
    </contour>
  </outline>
</glyph>
<glyph name="less" format="1">
  <advance width="550"/>
  <unicode hex="003C"/>
  <outline>
    <contour>
      <point x="31" y="169"/>
      <point x="70" y="144"/>
      <point x="105" y="132" type="curve" smooth="yes"/>
      <point x="140" y="121"/>
      <point x="300" y="56"/>
      <point x="385" y="31" type="curve" smooth="yes"/>
      <point x="418" y="22"/>
      <point x="445" y="6"/>
      <point x="464" y="6" type="curve" smooth="yes"/>
      <point x="488" y="6"/>
      <point x="509" y="30"/>
      <point x="509" y="56" type="curve" smooth="yes"/>
      <point x="509" y="73"/>
      <point x="500" y="97"/>
      <point x="472" y="106" type="curve" smooth="yes"/>
      <point x="393" y="130"/>
      <point x="271" y="160"/>
      <point x="159" y="203" type="curve"/>
      <point x="195" y="219"/>
      <point x="424" y="313"/>
      <point x="435" y="319" type="curve" smooth="yes"/>
      <point x="471" y="339"/>
      <point x="497" y="347"/>
      <point x="498" y="379" type="curve" smooth="yes"/>
      <point x="499" y="402"/>
      <point x="487" y="429"/>
      <point x="459" y="429" type="curve" smooth="yes"/>
      <point x="423" y="429"/>
      <point x="399" y="409"/>
      <point x="356" y="389" type="curve" smooth="yes"/>
      <point x="337" y="380"/>
      <point x="122" y="280"/>
      <point x="111" y="274" type="curve"/>
      <point x="70" y="258"/>
      <point x="31" y="241"/>
      <point x="31" y="199" type="curve" smooth="yes"/>
    </contour>
  </outline>
</glyph>
<glyph name="equal" format="1">
  <advance width="561"/>
  <unicode hex="003D"/>
  <outline>
    <contour>
      <point x="375" y="180"/>
      <point x="317" y="178"/>
      <point x="275" y="176" type="curve" smooth="yes"/>
      <point x="249" y="175"/>
      <point x="216" y="177"/>
      <point x="185" y="180" type="curve" smooth="yes"/>
      <point x="163" y="182"/>
      <point x="130" y="184"/>
      <point x="112" y="184" type="curve" smooth="yes"/>
      <point x="98" y="184"/>
      <point x="89" y="184"/>
      <point x="83" y="181" type="curve" smooth="yes"/>
      <point x="55" y="168"/>
      <point x="54" y="149"/>
      <point x="54" y="140" type="curve" smooth="yes"/>
      <point x="54" y="96"/>
      <point x="79" y="90"/>
      <point x="151" y="90" type="curve" smooth="yes"/>
      <point x="208" y="90"/>
      <point x="257" y="96"/>
      <point x="308" y="96" type="curve" smooth="yes"/>
      <point x="353" y="96"/>
      <point x="388" y="91"/>
      <point x="427" y="91" type="curve" smooth="yes"/>
      <point x="453" y="91"/>
      <point x="485" y="94"/>
      <point x="500" y="124" type="curve"/>
      <point x="505" y="132"/>
      <point x="507" y="139"/>
      <point x="507" y="146" type="curve" smooth="yes"/>
      <point x="507" y="174"/>
      <point x="481" y="180"/>
      <point x="434" y="180" type="curve" smooth="yes"/>
    </contour>
    <contour>
      <point x="375" y="346"/>
      <point x="317" y="344"/>
      <point x="275" y="342" type="curve" smooth="yes"/>
      <point x="249" y="340"/>
      <point x="216" y="343"/>
      <point x="185" y="346" type="curve"/>
      <point x="163" y="347"/>
      <point x="130" y="349"/>
      <point x="112" y="349" type="curve" smooth="yes"/>
      <point x="98" y="349"/>
      <point x="89" y="347"/>
      <point x="83" y="345" type="curve"/>
      <point x="55" y="332"/>
      <point x="54" y="313"/>
      <point x="54" y="304" type="curve" smooth="yes"/>
      <point x="54" y="260"/>
      <point x="79" y="256"/>
      <point x="151" y="256" type="curve" smooth="yes"/>
      <point x="208" y="256"/>
      <point x="257" y="262"/>
      <point x="308" y="262" type="curve" smooth="yes"/>
      <point x="353" y="262"/>
      <point x="388" y="256"/>
      <point x="427" y="256" type="curve" smooth="yes"/>
      <point x="453" y="256"/>
      <point x="485" y="258"/>
      <point x="500" y="288" type="curve"/>
      <point x="505" y="296"/>
      <point x="507" y="303"/>
      <point x="507" y="310" type="curve" smooth="yes"/>
      <point x="507" y="337"/>
      <point x="481" y="346"/>
      <point x="434" y="346" type="curve" smooth="yes"/>
    </contour>
  </outline>
</glyph>
<glyph name="greater" format="1">
  <advance width="550"/>
  <unicode hex="003E"/>
  <outline>
    <contour>
      <point x="518" y="241"/>
      <point x="480" y="258"/>
      <point x="439" y="274" type="curve"/>
      <point x="427" y="280"/>
      <point x="212" y="380"/>
      <point x="193" y="389" type="curve" smooth="yes"/>
      <point x="151" y="409"/>
      <point x="127" y="429"/>
      <point x="91" y="429" type="curve" smooth="yes"/>
      <point x="63" y="429"/>
      <point x="51" y="402"/>
      <point x="52" y="379" type="curve" smooth="yes"/>
      <point x="53" y="347"/>
      <point x="79" y="339"/>
      <point x="115" y="319" type="curve" smooth="yes"/>
      <point x="126" y="313"/>
      <point x="355" y="219"/>
      <point x="391" y="203" type="curve"/>
      <point x="279" y="160"/>
      <point x="157" y="130"/>
      <point x="78" y="106" type="curve" smooth="yes"/>
      <point x="49" y="97"/>
      <point x="40" y="73"/>
      <point x="40" y="56" type="curve" smooth="yes"/>
      <point x="40" y="30"/>
      <point x="62" y="6"/>
      <point x="85" y="6" type="curve" smooth="yes"/>
      <point x="105" y="6"/>
      <point x="131" y="22"/>
      <point x="165" y="31" type="curve" smooth="yes"/>
      <point x="250" y="56"/>
      <point x="409" y="121"/>
      <point x="445" y="132" type="curve" smooth="yes"/>
      <point x="480" y="144"/>
      <point x="518" y="169"/>
      <point x="518" y="199" type="curve" smooth="yes"/>
    </contour>
  </outline>
</glyph>
<glyph name="at" format="1">
  <advance width="751"/>
  <unicode hex="0040"/>
  <outline>
    <contour>
      <point x="606" y="164"/>
      <point x="633" y="186"/>
      <point x="667" y="223" type="curve" smooth="yes"/>
      <point x="697" y="256"/>
      <point x="703" y="312"/>
      <point x="703" y="355" type="curve" smooth="yes"/>
      <point x="703" y="448"/>
      <point x="681" y="518"/>
      <point x="614" y="577" type="curve" smooth="yes"/>
      <point x="594" y="594"/>
      <point x="525" y="637"/>
      <point x="416" y="637" type="curve" smooth="yes"/>
      <point x="337" y="637"/>
      <point x="220" y="593"/>
      <point x="175" y="550" type="curve" smooth="yes"/>
      <point x="139" y="515"/>
      <point x="103" y="471"/>
      <point x="85" y="414" type="curve" smooth="yes"/>
      <point x="69" y="366"/>
      <point x="54" y="319"/>
      <point x="54" y="268" type="curve" smooth="yes"/>
      <point x="54" y="195"/>
      <point x="91" y="114"/>
      <point x="146" y="65" type="curve"/>
      <point x="172" y="40"/>
      <point x="214" y="19"/>
      <point x="247" y="5" type="curve"/>
      <point x="289" y="-2"/>
      <point x="322" y="-7"/>
      <point x="355" y="-7" type="curve" smooth="yes"/>
      <point x="411" y="-7"/>
      <point x="454" y="-6"/>
      <point x="510" y="21" type="curve" smooth="yes"/>
      <point x="550" y="40"/>
      <point x="595" y="62"/>
      <point x="595" y="95" type="curve" smooth="yes"/>
      <point x="595" y="122"/>
      <point x="580" y="132"/>
      <point x="556" y="132" type="curve" smooth="yes"/>
      <point x="535" y="132"/>
      <point x="507" y="110"/>
      <point x="493" y="102" type="curve" smooth="yes"/>
      <point x="452" y="77"/>
      <point x="409" y="70"/>
      <point x="356" y="70" type="curve" smooth="yes"/>
      <point x="328" y="70"/>
      <point x="281" y="85"/>
      <point x="245" y="94" type="curve" smooth="yes"/>
      <point x="220" y="101"/>
      <point x="194" y="127"/>
      <point x="179" y="148" type="curve" smooth="yes"/>
      <point x="155" y="183"/>
      <point x="141" y="233"/>
      <point x="141" y="274" type="curve" smooth="yes"/>
      <point x="142" y="318"/>
      <point x="152" y="355"/>
      <point x="165" y="395" type="curve" smooth="yes"/>
      <point x="176" y="432"/>
      <point x="200" y="462"/>
      <point x="225" y="488" type="curve" smooth="yes"/>
      <point x="256" y="521"/>
      <point x="337" y="566"/>
      <point x="408" y="566" type="curve" smooth="yes"/>
      <point x="468" y="566"/>
      <point x="545" y="545"/>
      <point x="575" y="505" type="curve" smooth="yes"/>
      <point x="604" y="467"/>
      <point x="619" y="434"/>
      <point x="619" y="360" type="curve" smooth="yes"/>
      <point x="619" y="305"/>
      <point x="607" y="239"/>
      <point x="561" y="239" type="curve" smooth="yes"/>
      <point x="529" y="239"/>
      <point x="517" y="274"/>
      <point x="517" y="319" type="curve" smooth="yes"/>
      <point x="517" y="351"/>
      <point x="540" y="405"/>
      <point x="540" y="431" type="curve" smooth="yes"/>
      <point x="540" y="454"/>
      <point x="525" y="463"/>
      <point x="508" y="463" type="curve" smooth="yes"/>
      <point x="483" y="463"/>
      <point x="474" y="453"/>
      <point x="462" y="437" type="curve"/>
      <point x="438" y="472"/>
      <point x="394" y="480"/>
      <point x="365" y="480" type="curve" smooth="yes"/>
      <point x="342" y="480"/>
      <point x="322" y="470"/>
      <point x="300" y="460" type="curve" smooth="yes"/>
      <point x="265" y="445"/>
      <point x="241" y="408"/>
      <point x="225" y="370" type="curve" smooth="yes"/>
      <point x="215" y="345"/>
      <point x="202" y="312"/>
      <point x="202" y="267" type="curve" smooth="yes"/>
      <point x="202" y="236"/>
      <point x="211" y="203"/>
      <point x="233" y="189" type="curve" smooth="yes"/>
      <point x="258" y="172"/>
      <point x="280" y="156"/>
      <point x="310" y="156" type="curve" smooth="yes"/>
      <point x="373" y="155"/>
      <point x="432" y="188"/>
      <point x="462" y="242" type="curve"/>
      <point x="480" y="195"/>
      <point x="509" y="164"/>
      <point x="561" y="164" type="curve" smooth="yes"/>
    </contour>
    <contour>
      <point x="357" y="236"/>
      <point x="331" y="225"/>
      <point x="307" y="226" type="curve"/>
      <point x="296" y="227"/>
      <point x="280" y="250"/>
      <point x="280" y="279" type="curve" smooth="yes"/>
      <point x="280" y="338"/>
      <point x="314" y="412"/>
      <point x="376" y="412" type="curve" smooth="yes"/>
      <point x="406" y="412"/>
      <point x="437" y="382"/>
      <point x="437" y="361" type="curve" smooth="yes"/>
      <point x="437" y="310"/>
      <point x="409" y="274"/>
      <point x="378" y="250" type="curve"/>
    </contour>
  </outline>
</glyph>
<glyph name="B" format="1">
  <advance width="646"/>
  <unicode hex="0042"/>
  <outline>
    <contour>
      <point x="527" y="356"/>
      <point x="562" y="419"/>
      <point x="561" y="482" type="curve"/>
      <point x="561" y="512"/>
      <point x="548" y="549"/>
      <point x="529" y="570" type="curve"/>
      <point x="474" y="625"/>
      <point x="389" y="637"/>
      <point x="301" y="637" type="curve" smooth="yes"/>
      <point x="266" y="637"/>
      <point x="191" y="630"/>
      <point x="150" y="626" type="curve" smooth="yes"/>
      <point x="138" y="625"/>
      <point x="129" y="625"/>
      <point x="125" y="625" type="curve"/>
      <point x="93" y="622"/>
      <point x="72" y="589"/>
      <point x="72" y="575" type="curve" smooth="yes"/>
      <point x="72" y="483"/>
      <point x="75" y="400"/>
      <point x="77" y="319" type="curve" smooth="yes"/>
      <point x="80" y="237"/>
      <point x="83" y="156"/>
      <point x="84" y="63" type="curve" smooth="yes"/>
      <point x="84" y="27"/>
      <point x="123" y="15"/>
      <point x="132" y="13" type="curve" smooth="yes"/>
      <point x="180" y="4"/>
      <point x="247" y="-3"/>
      <point x="308" y="-2" type="curve" smooth="yes"/>
      <point x="364" y="-1"/>
      <point x="426" y="5"/>
      <point x="463" y="19" type="curve"/>
      <point x="543" y="54"/>
      <point x="607" y="123"/>
      <point x="607" y="199" type="curve" smooth="yes"/>
      <point x="607" y="269"/>
      <point x="564" y="325"/>
      <point x="463" y="338" type="curve"/>
    </contour>
    <contour>
      <point x="365" y="552"/>
      <point x="398" y="543"/>
      <point x="435" y="508" type="curve" smooth="yes"/>
      <point x="444" y="499"/>
      <point x="454" y="476"/>
      <point x="454" y="455" type="curve" smooth="yes"/>
      <point x="454" y="436"/>
      <point x="401" y="378"/>
      <point x="345" y="365" type="curve"/>
      <point x="310" y="360"/>
      <point x="255" y="354"/>
      <point x="217" y="350" type="curve"/>
      <point x="181" y="349" type="line"/>
      <point x="175" y="538" type="line"/>
      <point x="208" y="546"/>
      <point x="260" y="552"/>
      <point x="307" y="552" type="curve" smooth="yes"/>
    </contour>
    <contour>
      <point x="184" y="121"/>
      <point x="186" y="154"/>
      <point x="186" y="185" type="curve" smooth="yes"/>
      <point x="186" y="210"/>
      <point x="185" y="231"/>
      <point x="184" y="261" type="curve"/>
      <point x="202" y="262"/>
      <point x="238" y="265"/>
      <point x="268" y="269" type="curve" smooth="yes"/>
      <point x="302" y="274"/>
      <point x="338" y="277"/>
      <point x="357" y="277" type="curve" smooth="yes"/>
      <point x="421" y="277"/>
      <point x="499" y="250"/>
      <point x="499" y="207" type="curve" smooth="yes"/>
      <point x="499" y="98"/>
      <point x="395" y="79"/>
      <point x="281" y="79" type="curve" smooth="yes"/>
      <point x="252" y="79"/>
      <point x="213" y="82"/>
      <point x="184" y="86" type="curve"/>
    </contour>
  </outline>
</glyph>
<glyph name="G" format="1">
  <advance width="690"/>
  <unicode hex="0047"/>
  <outline>
    <contour>
      <point x="537" y="477"/>
      <point x="551" y="474"/>
      <point x="557" y="474" type="curve" smooth="yes"/>
      <point x="575" y="474"/>
      <point x="599" y="496"/>
      <point x="599" y="518" type="curve" smooth="yes"/>
      <point x="599" y="527"/>
      <point x="595" y="538"/>
      <point x="587" y="550" type="curve" smooth="yes"/>
      <point x="550" y="603"/>
      <point x="476" y="633"/>
      <point x="383" y="633" type="curve" smooth="yes"/>
      <point x="326" y="633"/>
      <point x="242" y="615"/>
      <point x="200" y="587" type="curve" smooth="yes"/>
      <point x="105" y="525"/>
      <point x="50" y="404"/>
      <point x="50" y="293" type="curve" smooth="yes"/>
      <point x="50" y="216"/>
      <point x="86" y="130"/>
      <point x="149" y="72" type="curve" smooth="yes"/>
      <point x="199" y="26"/>
      <point x="277" y="0"/>
      <point x="355" y="0" type="curve" smooth="yes"/>
      <point x="446" y="0"/>
      <point x="532" y="26"/>
      <point x="573" y="81" type="curve" smooth="yes"/>
      <point x="616" y="139"/>
      <point x="638" y="216"/>
      <point x="638" y="265" type="curve" smooth="yes"/>
      <point x="638" y="323"/>
      <point x="605" y="351"/>
      <point x="560" y="351" type="curve" smooth="yes"/>
      <point x="508" y="351"/>
      <point x="454" y="359"/>
      <point x="396" y="359" type="curve" smooth="yes"/>
      <point x="362" y="359"/>
      <point x="337" y="346"/>
      <point x="337" y="312" type="curve" smooth="yes"/>
      <point x="337" y="290"/>
      <point x="361" y="273"/>
      <point x="400" y="273" type="curve" smooth="yes"/>
      <point x="423" y="273"/>
      <point x="445" y="274"/>
      <point x="472" y="274" type="curve" smooth="yes"/>
      <point x="507" y="274"/>
      <point x="534" y="271"/>
      <point x="534" y="256" type="curve" smooth="yes"/>
      <point x="534" y="220"/>
      <point x="527" y="176"/>
      <point x="500" y="142" type="curve"/>
      <point x="473" y="111"/>
      <point x="425" y="86"/>
      <point x="355" y="86" type="curve" smooth="yes"/>
      <point x="257" y="86"/>
      <point x="155" y="162"/>
      <point x="155" y="294" type="curve" smooth="yes"/>
      <point x="155" y="379"/>
      <point x="183" y="454"/>
      <point x="244" y="499" type="curve" smooth="yes"/>
      <point x="283" y="527"/>
      <point x="329" y="541"/>
      <point x="385" y="541" type="curve" smooth="yes"/>
      <point x="445" y="541"/>
      <point x="483" y="516"/>
      <point x="531" y="481" type="curve"/>
    </contour>
  </outline>
</glyph>
<glyph name="K" format="1">
  <advance width="639"/>
  <unicode hex="004B"/>
  <outline>
    <contour>
      <point x="517" y="130"/>
      <point x="437" y="249"/>
      <point x="376" y="363" type="curve"/>
      <point x="424" y="406"/>
      <point x="478" y="457"/>
      <point x="542" y="523" type="curve" smooth="yes"/>
      <point x="569" y="550"/>
      <point x="576" y="575"/>
      <point x="576" y="590" type="curve" smooth="yes"/>
      <point x="576" y="614"/>
      <point x="550" y="632"/>
      <point x="526" y="632" type="curve" smooth="yes"/>
      <point x="498" y="632"/>
      <point x="487" y="618"/>
      <point x="469" y="595" type="curve"/>
      <point x="456" y="580" type="line" smooth="yes"/>
      <point x="399" y="510"/>
      <point x="226" y="353"/>
      <point x="181" y="328" type="curve"/>
      <point x="184" y="346"/>
      <point x="189" y="441"/>
      <point x="189" y="458" type="curve" smooth="yes"/>
      <point x="189" y="496"/>
      <point x="186" y="555"/>
      <point x="184" y="589" type="curve"/>
      <point x="181" y="617"/>
      <point x="161" y="635"/>
      <point x="131" y="635" type="curve" smooth="yes"/>
      <point x="94" y="635"/>
      <point x="74" y="619"/>
      <point x="74" y="575" type="curve" smooth="yes"/>
      <point x="74" y="546"/>
      <point x="82" y="519"/>
      <point x="84" y="480" type="curve" smooth="yes"/>
      <point x="92" y="368"/>
      <point x="70" y="256"/>
      <point x="70" y="137" type="curve" smooth="yes"/>
      <point x="70" y="104"/>
      <point x="73" y="72"/>
      <point x="78" y="41" type="curve" smooth="yes"/>
      <point x="82" y="18"/>
      <point x="95" y="0"/>
      <point x="141" y="0" type="curve" smooth="yes"/>
      <point x="174" y="0"/>
      <point x="185" y="31"/>
      <point x="185" y="48" type="curve" smooth="yes"/>
      <point x="185" y="90"/>
      <point x="181" y="151"/>
      <point x="180" y="214" type="curve"/>
      <point x="219" y="239"/>
      <point x="256" y="265"/>
      <point x="296" y="296" type="curve"/>
      <point x="386" y="143"/>
      <point x="454" y="45"/>
      <point x="534" y="9" type="curve"/>
      <point x="554" y="1"/>
      <point x="572" y="-2"/>
      <point x="584" y="-2" type="curve" smooth="yes"/>
      <point x="607" y="-2"/>
      <point x="632" y="13"/>
      <point x="632" y="40" type="curve" smooth="yes"/>
      <point x="632" y="62"/>
      <point x="622" y="70"/>
      <point x="611" y="76" type="curve" smooth="yes"/>
    </contour>
  </outline>
</glyph>
<glyph name="M" format="1">
  <advance width="786"/>
  <unicode hex="004D"/>
  <outline>
    <contour>
      <point x="622" y="632"/>
      <point x="598" y="617"/>
      <point x="587" y="603" type="curve"/>
      <point x="542" y="531"/>
      <point x="507" y="481"/>
      <point x="439" y="411" type="curve" smooth="yes"/>
      <point x="419" y="391"/>
      <point x="400" y="369"/>
      <point x="367" y="327" type="curve"/>
      <point x="338" y="369"/>
      <point x="220" y="541"/>
      <point x="208" y="595" type="curve"/>
      <point x="194" y="622"/>
      <point x="160" y="634"/>
      <point x="137" y="634" type="curve" smooth="yes"/>
      <point x="97" y="634"/>
      <point x="72" y="618"/>
      <point x="72" y="574" type="curve" smooth="yes"/>
      <point x="72" y="506"/>
      <point x="75" y="424"/>
      <point x="77" y="341" type="curve" smooth="yes"/>
      <point x="80" y="256"/>
      <point x="84" y="169"/>
      <point x="84" y="97" type="curve" smooth="yes"/>
      <point x="84" y="76"/>
      <point x="84" y="58"/>
      <point x="83" y="41" type="curve"/>
      <point x="85" y="14"/>
      <point x="109" y="1"/>
      <point x="143" y="1" type="curve" smooth="yes"/>
      <point x="180" y="1"/>
      <point x="193" y="30"/>
      <point x="193" y="58" type="curve" smooth="yes"/>
      <point x="193" y="97"/>
      <point x="190" y="143"/>
      <point x="186" y="195" type="curve" smooth="yes"/>
      <point x="182" y="265"/>
      <point x="177" y="355"/>
      <point x="177" y="445" type="curve"/>
      <point x="214" y="386"/>
      <point x="257" y="331"/>
      <point x="298" y="271" type="curve" smooth="yes"/>
      <point x="316" y="244"/>
      <point x="336" y="220"/>
      <point x="374" y="220" type="curve" smooth="yes"/>
      <point x="391" y="220"/>
      <point x="404" y="240"/>
      <point x="420" y="247" type="curve"/>
      <point x="476" y="324"/>
      <point x="542" y="399"/>
      <point x="599" y="462" type="curve"/>
      <point x="597" y="381"/>
      <point x="595" y="218"/>
      <point x="595" y="107" type="curve" smooth="yes"/>
      <point x="595" y="50"/>
      <point x="601" y="-1"/>
      <point x="660" y="-1" type="curve" smooth="yes"/>
      <point x="677" y="-1"/>
      <point x="714" y="8"/>
      <point x="715" y="44" type="curve"/>
      <point x="702" y="96"/>
      <point x="697" y="183"/>
      <point x="697" y="268" type="curve" smooth="yes"/>
      <point x="697" y="368"/>
      <point x="704" y="468"/>
      <point x="704" y="582" type="curve" smooth="yes"/>
      <point x="704" y="600"/>
      <point x="667" y="632"/>
      <point x="649" y="632" type="curve" smooth="yes"/>
    </contour>
  </outline>
</glyph>
<glyph name="O" format="1">
  <advance width="725"/>
  <unicode hex="004F"/>
  <outline>
    <contour>
      <point x="300" y="636"/>
      <point x="238" y="611"/>
      <point x="190" y="582" type="curve"/>
      <point x="106" y="527"/>
      <point x="52" y="426"/>
      <point x="52" y="287" type="curve" smooth="yes"/>
      <point x="52" y="236"/>
      <point x="69" y="181"/>
      <point x="100" y="132" type="curve" smooth="yes"/>
      <point x="158" y="39"/>
      <point x="256" y="0"/>
      <point x="375" y="0" type="curve" smooth="yes"/>
      <point x="455" y="0"/>
      <point x="591" y="66"/>
      <point x="632" y="139" type="curve"/>
      <point x="640" y="180"/>
      <point x="673" y="220"/>
      <point x="673" y="274" type="curve" smooth="yes"/>
      <point x="673" y="412"/>
      <point x="645" y="494"/>
      <point x="559" y="571" type="curve" smooth="yes"/>
      <point x="511" y="615"/>
      <point x="434" y="636"/>
      <point x="347" y="636" type="curve" smooth="yes"/>
    </contour>
    <contour>
      <point x="156" y="407"/>
      <point x="226" y="536"/>
      <point x="355" y="536" type="curve" smooth="yes"/>
      <point x="405" y="536"/>
      <point x="457" y="526"/>
      <point x="490" y="499" type="curve" smooth="yes"/>
      <point x="549" y="452"/>
      <point x="568" y="400"/>
      <point x="568" y="300" type="curve" smooth="yes"/>
      <point x="568" y="170"/>
      <point x="480" y="94"/>
      <point x="347" y="94" type="curve" smooth="yes"/>
      <point x="319" y="94"/>
      <point x="301" y="102"/>
      <point x="256" y="119" type="curve"/>
      <point x="198" y="166"/>
      <point x="155" y="206"/>
      <point x="156" y="287" type="curve" smooth="yes"/>
    </contour>
  </outline>
</glyph>
<glyph name="backslash" format="1">
  <advance width="419"/>
  <unicode hex="005C"/>
  <outline>
    <contour>
      <point x="25" y="642"/>
      <point x="11" y="629"/>
      <point x="11" y="613" type="curve" smooth="yes"/>
      <point x="11" y="607"/>
      <point x="13" y="600"/>
      <point x="16" y="593" type="curve"/>
      <point x="86" y="483"/>
      <point x="121" y="400"/>
      <point x="178" y="290" type="curve" smooth="yes"/>
      <point x="215" y="218"/>
      <point x="239" y="144"/>
      <point x="288" y="55" type="curve" smooth="yes"/>
      <point x="305" y="22"/>
      <point x="328" y="-5"/>
      <point x="359" y="-5" type="curve" smooth="yes"/>
      <point x="376" y="-5"/>
      <point x="409" y="-2"/>
      <point x="409" y="31" type="curve" smooth="yes"/>
      <point x="409" y="40"/>
      <point x="405" y="49"/>
      <point x="400" y="57" type="curve"/>
      <point x="270" y="244"/>
      <point x="226" y="404"/>
      <point x="139" y="563" type="curve"/>
      <point x="127" y="587"/>
      <point x="103" y="642"/>
      <point x="47" y="642" type="curve" smooth="yes"/>
    </contour>
  </outline>
</glyph>
<glyph name="bracketright" format="1">
  <advance width="301"/>
  <unicode hex="005D"/>
  <outline>
    <contour>
      <point x="220" y="-220"/>
      <point x="224" y="-199"/>
      <point x="224" y="-182" type="curve" smooth="yes"/>
      <point x="224" y="-89"/>
      <point x="209" y="0"/>
      <point x="209" y="114" type="curve" smooth="yes"/>
      <point x="209" y="223"/>
      <point x="210" y="342"/>
      <point x="218" y="455" type="curve" smooth="yes"/>
      <point x="221" y="515"/>
      <point x="241" y="605"/>
      <point x="230" y="632" type="curve" smooth="yes"/>
      <point x="222" y="651"/>
      <point x="184" y="660"/>
      <point x="142" y="660" type="curve" smooth="yes"/>
      <point x="58" y="660"/>
      <point x="26" y="643"/>
      <point x="26" y="615" type="curve" smooth="yes"/>
      <point x="26" y="565"/>
      <point x="88" y="567"/>
      <point x="135" y="567" type="curve"/>
      <point x="128" y="449"/>
      <point x="122" y="326"/>
      <point x="122" y="215" type="curve" smooth="yes"/>
      <point x="122" y="102"/>
      <point x="128" y="-87"/>
      <point x="128" y="-139" type="curve"/>
      <point x="84" y="-145"/>
      <point x="22" y="-121"/>
      <point x="22" y="-185" type="curve"/>
      <point x="26" y="-212"/>
      <point x="52" y="-218"/>
      <point x="84" y="-218" type="curve" smooth="yes"/>
      <point x="102" y="-218"/>
      <point x="122" y="-216"/>
      <point x="142" y="-216" type="curve" smooth="yes"/>
      <point x="159" y="-216"/>
      <point x="175" y="-221"/>
      <point x="190" y="-221" type="curve" smooth="yes"/>
    </contour>
  </outline>
</glyph>
<glyph name="asciicircum" format="1">
  <advance width="547"/>
  <unicode hex="005E"/>
  <outline>
    <contour>
      <point x="147" y="287"/>
      <point x="155" y="337"/>
      <point x="180" y="392" type="curve"/>
      <point x="188" y="412"/>
      <point x="238" y="499"/>
      <point x="263" y="522" type="curve"/>
      <point x="312" y="451"/>
      <point x="336" y="390"/>
      <point x="376" y="321" type="curve" smooth="yes"/>
      <point x="391" y="297"/>
      <point x="424" y="236"/>
      <point x="461" y="236" type="curve" smooth="yes"/>
      <point x="488" y="236"/>
      <point x="516" y="253"/>
      <point x="516" y="279" type="curve" smooth="yes"/>
      <point x="516" y="304"/>
      <point x="490" y="325"/>
      <point x="477" y="346" type="curve" smooth="yes"/>
      <point x="442" y="400"/>
      <point x="443" y="424"/>
      <point x="409" y="474" type="curve" smooth="yes"/>
      <point x="393" y="499"/>
      <point x="312" y="616"/>
      <point x="297" y="626" type="curve"/>
      <point x="282" y="637"/>
      <point x="268" y="642"/>
      <point x="255" y="642" type="curve" smooth="yes"/>
      <point x="205" y="642"/>
      <point x="170" y="577"/>
      <point x="157" y="544" type="curve" smooth="yes"/>
      <point x="123" y="462"/>
      <point x="31" y="293"/>
      <point x="31" y="261" type="curve" smooth="yes"/>
      <point x="31" y="251"/>
      <point x="60" y="233"/>
      <point x="84" y="233" type="curve" smooth="yes"/>
      <point x="95" y="233"/>
      <point x="108" y="238"/>
      <point x="119" y="249" type="curve"/>
    </contour>
  </outline>
</glyph>
<glyph name="b" format="1">
  <advance width="520"/>
  <unicode hex="0062"/>
  <outline>
    <contour>
      <point x="77" y="95"/>
      <point x="58" y="59"/>
      <point x="58" y="32" type="curve" smooth="yes"/>
      <point x="58" y="5"/>
      <point x="78" y="-6"/>
      <point x="100" y="-6" type="curve" smooth="yes"/>
      <point x="133" y="-6"/>
      <point x="156" y="42"/>
      <point x="161" y="68" type="curve"/>
      <point x="186" y="33"/>
      <point x="231" y="6"/>
      <point x="290" y="6" type="curve" smooth="yes"/>
      <point x="358" y="6"/>
      <point x="406" y="43"/>
      <point x="435" y="85" type="curve" smooth="yes"/>
      <point x="469" y="134"/>
      <point x="478" y="184"/>
      <point x="478" y="238" type="curve" smooth="yes"/>
      <point x="478" y="274"/>
      <point x="454" y="327"/>
      <point x="434" y="357" type="curve"/>
      <point x="401" y="395"/>
      <point x="352" y="429"/>
      <point x="284" y="429" type="curve" smooth="yes"/>
      <point x="244" y="429"/>
      <point x="200" y="405"/>
      <point x="174" y="365" type="curve"/>
      <point x="175" y="393"/>
      <point x="176" y="421"/>
      <point x="176" y="449" type="curve" smooth="yes"/>
      <point x="176" y="507"/>
      <point x="173" y="563"/>
      <point x="166" y="611" type="curve" smooth="yes"/>
      <point x="160" y="651"/>
      <point x="148" y="675"/>
      <point x="107" y="675" type="curve" smooth="yes"/>
      <point x="73" y="675"/>
      <point x="61" y="657"/>
      <point x="61" y="629" type="curve" smooth="yes"/>
      <point x="61" y="580"/>
      <point x="73" y="533"/>
      <point x="76" y="487" type="curve" smooth="yes"/>
      <point x="82" y="364"/>
      <point x="77" y="273"/>
      <point x="77" y="180" type="curve" smooth="yes"/>
    </contour>
    <contour>
      <point x="229" y="89"/>
      <point x="193" y="118"/>
      <point x="178" y="147" type="curve"/>
      <point x="178" y="169"/>
      <point x="180" y="218"/>
      <point x="182" y="247" type="curve" smooth="yes"/>
      <point x="187" y="306"/>
      <point x="232" y="339"/>
      <point x="286" y="339" type="curve" smooth="yes"/>
      <point x="310" y="339"/>
      <point x="337" y="327"/>
      <point x="351" y="310" type="curve"/>
      <point x="366" y="290"/>
      <point x="380" y="261"/>
      <point x="380" y="217" type="curve" smooth="yes"/>
      <point x="380" y="135"/>
      <point x="328" y="89"/>
      <point x="265" y="89" type="curve" smooth="yes"/>
    </contour>
  </outline>
</glyph>
<glyph name="c" format="1">
  <advance width="469"/>
  <unicode hex="0063"/>
  <outline>
    <contour>
      <point x="408" y="400"/>
      <point x="319" y="435"/>
      <point x="257" y="435" type="curve" smooth="yes"/>
      <point x="140" y="435"/>
      <point x="43" y="336"/>
      <point x="43" y="205" type="curve" smooth="yes"/>
      <point x="43" y="82"/>
      <point x="145" y="-4"/>
      <point x="263" y="-4" type="curve" smooth="yes"/>
      <point x="331" y="-4"/>
      <point x="437" y="24"/>
      <point x="437" y="88" type="curve" smooth="yes"/>
      <point x="437" y="110"/>
      <point x="410" y="123"/>
      <point x="398" y="123" type="curve" smooth="yes"/>
      <point x="380" y="123"/>
      <point x="364" y="115"/>
      <point x="348" y="107" type="curve" smooth="yes"/>
      <point x="329" y="97"/>
      <point x="301" y="84"/>
      <point x="275" y="84" type="curve" smooth="yes"/>
      <point x="259" y="84"/>
      <point x="232" y="89"/>
      <point x="214" y="99" type="curve" smooth="yes"/>
      <point x="168" y="125"/>
      <point x="146" y="160"/>
      <point x="146" y="217" type="curve" smooth="yes"/>
      <point x="146" y="297"/>
      <point x="207" y="351"/>
      <point x="264" y="351" type="curve" smooth="yes"/>
      <point x="280" y="351"/>
      <point x="299" y="337"/>
      <point x="316" y="318" type="curve" smooth="yes"/>
      <point x="328" y="304"/>
      <point x="341" y="290"/>
      <point x="363" y="290" type="curve" smooth="yes"/>
      <point x="394" y="290"/>
      <point x="408" y="307"/>
      <point x="408" y="334" type="curve" smooth="yes"/>
    </contour>
  </outline>
</glyph>
<glyph name="f" format="1">
  <advance width="379"/>
  <unicode hex="0066"/>
  <outline>
    <contour>
      <point x="364" y="521"/>
      <point x="377" y="529"/>
      <point x="377" y="573" type="curve" smooth="yes"/>
      <point x="377" y="633"/>
      <point x="312" y="674"/>
      <point x="249" y="674" type="curve" smooth="yes"/>
      <point x="205" y="674"/>
      <point x="170" y="657"/>
      <point x="150" y="622" type="curve" smooth="yes"/>
      <point x="123" y="574"/>
      <point x="119" y="488"/>
      <point x="119" y="427" type="curve"/>
      <point x="119" y="427"/>
      <point x="101" y="427"/>
      <point x="89" y="427" type="curve" smooth="yes"/>
      <point x="75" y="427"/>
      <point x="59" y="426"/>
      <point x="46" y="419" type="curve"/>
      <point x="33" y="414"/>
      <point x="22" y="401"/>
      <point x="22" y="388" type="curve" smooth="yes"/>
      <point x="22" y="364"/>
      <point x="38" y="345"/>
      <point x="49" y="345" type="curve" smooth="yes"/>
      <point x="64" y="345"/>
      <point x="78" y="346"/>
      <point x="93" y="347" type="curve"/>
      <point x="101" y="348"/>
      <point x="112" y="348"/>
      <point x="117" y="347" type="curve"/>
      <point x="115" y="322"/>
      <point x="114" y="308"/>
      <point x="114" y="282" type="curve" smooth="yes"/>
      <point x="114" y="218"/>
      <point x="120" y="104"/>
      <point x="131" y="49" type="curve"/>
      <point x="138" y="21"/>
      <point x="154" y="-4"/>
      <point x="188" y="-4" type="curve" smooth="yes"/>
      <point x="222" y="-4"/>
      <point x="227" y="11"/>
      <point x="225" y="48" type="curve" smooth="yes"/>
      <point x="221" y="125" type="line" smooth="yes"/>
      <point x="218" y="193"/>
      <point x="213" y="273"/>
      <point x="213" y="346" type="curve"/>
      <point x="238" y="353"/>
      <point x="285" y="353"/>
      <point x="310" y="353" type="curve" smooth="yes"/>
      <point x="334" y="353"/>
      <point x="357" y="375"/>
      <point x="357" y="406" type="curve" smooth="yes"/>
      <point x="357" y="429"/>
      <point x="342" y="436"/>
      <point x="319" y="436" type="curve" smooth="yes"/>
      <point x="300" y="436"/>
      <point x="281" y="433"/>
      <point x="256" y="433" type="curve" smooth="yes"/>
      <point x="245" y="433"/>
      <point x="224" y="434"/>
      <point x="214" y="436" type="curve"/>
      <point x="214" y="470"/>
      <point x="217" y="499"/>
      <point x="221" y="537" type="curve" smooth="yes"/>
      <point x="227" y="583"/>
      <point x="240" y="599"/>
      <point x="252" y="599" type="curve" smooth="yes"/>
      <point x="273" y="599"/>
      <point x="287" y="586"/>
      <point x="301" y="549" type="curve"/>
      <point x="308" y="528"/>
      <point x="331" y="521"/>
      <point x="346" y="521" type="curve" smooth="yes"/>
    </contour>
  </outline>
</glyph>
<glyph name="k" format="1">
  <advance width="517"/>
  <unicode hex="006B"/>
  <outline>
    <contour>
      <point x="141" y="-4"/>
      <point x="170" y="4"/>
      <point x="170" y="44" type="curve"/>
      <point x="166" y="153" type="line"/>
      <point x="230" y="205" type="line"/>
      <point x="251" y="197"/>
      <point x="276" y="175"/>
      <point x="307" y="117" type="curve" smooth="yes"/>
      <point x="337" y="60"/>
      <point x="375" y="4"/>
      <point x="433" y="4" type="curve" smooth="yes"/>
      <point x="467" y="4"/>
      <point x="506" y="23"/>
      <point x="506" y="55" type="curve" smooth="yes"/>
      <point x="506" y="76"/>
      <point x="496" y="86"/>
      <point x="488" y="86" type="curve" smooth="yes"/>
      <point x="481" y="86"/>
      <point x="474" y="85"/>
      <point x="463" y="85" type="curve" smooth="yes"/>
      <point x="437" y="85"/>
      <point x="405" y="138"/>
      <point x="371" y="193" type="curve" smooth="yes"/>
      <point x="354" y="220"/>
      <point x="335" y="247"/>
      <point x="302" y="263" type="curve"/>
      <point x="431" y="357" type="line" smooth="yes"/>
      <point x="448" y="370"/>
      <point x="454" y="381"/>
      <point x="454" y="404" type="curve" smooth="yes"/>
      <point x="454" y="429"/>
      <point x="428" y="439"/>
      <point x="403" y="439" type="curve" smooth="yes"/>
      <point x="395" y="439"/>
      <point x="372" y="427"/>
      <point x="357" y="418" type="curve" smooth="yes"/>
      <point x="312" y="391"/>
      <point x="215" y="310"/>
      <point x="167" y="261" type="curve"/>
      <point x="166" y="290"/>
      <point x="166" y="314"/>
      <point x="166" y="334" type="curve" smooth="yes"/>
      <point x="167" y="373"/>
      <point x="170" y="411"/>
      <point x="170" y="458" type="curve" smooth="yes"/>
      <point x="170" y="513"/>
      <point x="166" y="568"/>
      <point x="166" y="629" type="curve" smooth="yes"/>
      <point x="166" y="657"/>
      <point x="148" y="675"/>
      <point x="121" y="675" type="curve" smooth="yes"/>
      <point x="88" y="675"/>
      <point x="65" y="657"/>
      <point x="65" y="627" type="curve" smooth="yes"/>
      <point x="65" y="581"/>
      <point x="76" y="536"/>
      <point x="76" y="489" type="curve" smooth="yes"/>
      <point x="76" y="436"/>
      <point x="75" y="385"/>
      <point x="72" y="318" type="curve" smooth="yes"/>
      <point x="69" y="262"/>
      <point x="68" y="196"/>
      <point x="68" y="123" type="curve" smooth="yes"/>
      <point x="68" y="88"/>
      <point x="70" y="51"/>
      <point x="79" y="18" type="curve"/>
      <point x="83" y="8"/>
      <point x="102" y="-4"/>
      <point x="130" y="-4" type="curve" smooth="yes"/>
    </contour>
  </outline>
</glyph>
<glyph name="w" format="1">
  <advance width="681"/>
  <unicode hex="0077"/>
  <outline>
    <contour>
      <point x="477" y="116" type="line"/>
      <point x="452" y="158"/>
      <point x="409" y="326"/>
      <point x="391" y="381" type="curve"/>
      <point x="383" y="402"/>
      <point x="364" y="424"/>
      <point x="335" y="424" type="curve" smooth="yes"/>
      <point x="320" y="424"/>
      <point x="307" y="407"/>
      <point x="292" y="382" type="curve"/>
      <point x="263" y="289"/>
      <point x="246" y="211"/>
      <point x="202" y="117" type="curve"/>
      <point x="191" y="156"/>
      <point x="185" y="173"/>
      <point x="182" y="192" type="curve"/>
      <point x="156" y="305"/>
      <point x="144" y="346"/>
      <point x="138" y="388" type="curve"/>
      <point x="129" y="410"/>
      <point x="120" y="430"/>
      <point x="80" y="430" type="curve" smooth="yes"/>
      <point x="51" y="430"/>
      <point x="36" y="411"/>
      <point x="37" y="382" type="curve" smooth="yes"/>
      <point x="37" y="353"/>
      <point x="58" y="281"/>
      <point x="72" y="238" type="curve"/>
      <point x="105" y="122"/>
      <point x="122" y="68"/>
      <point x="144" y="31" type="curve" smooth="yes"/>
      <point x="160" y="5"/>
      <point x="177" y="-4"/>
      <point x="201" y="-4" type="curve" smooth="yes"/>
      <point x="241" y="-4"/>
      <point x="265" y="16"/>
      <point x="282" y="67" type="curve" smooth="yes"/>
      <point x="322" y="183"/>
      <point x="329" y="219"/>
      <point x="341" y="259" type="curve"/>
      <point x="348" y="208"/>
      <point x="377" y="139"/>
      <point x="411" y="53" type="curve"/>
      <point x="425" y="22"/>
      <point x="451" y="-4"/>
      <point x="474" y="-4" type="curve" smooth="yes"/>
      <point x="522" y="-4"/>
      <point x="545" y="25"/>
      <point x="558" y="72" type="curve" smooth="yes"/>
      <point x="584" y="173"/>
      <point x="631" y="311"/>
      <point x="634" y="320" type="curve"/>
      <point x="643" y="351"/>
      <point x="650" y="381"/>
      <point x="650" y="395" type="curve" smooth="yes"/>
      <point x="650" y="419"/>
      <point x="635" y="435"/>
      <point x="598" y="435" type="curve" smooth="yes"/>
      <point x="586" y="435"/>
      <point x="576" y="431"/>
      <point x="560" y="405" type="curve" smooth="yes"/>
      <point x="537" y="369"/>
      <point x="530" y="293"/>
      <point x="515" y="238" type="curve"/>
    </contour>
  </outline>
</glyph>
<glyph name="x" format="1">
  <advance width="495"/>
  <unicode hex="0078"/>
  <outline>
    <contour>
      <point x="369" y="441"/>
      <point x="355" y="429"/>
      <point x="343" y="413" type="curve" smooth="yes"/>
      <point x="338" y="406"/>
      <point x="331" y="394"/>
      <point x="306" y="350" type="curve"/>
      <point x="284" y="315"/>
      <point x="275" y="301"/>
      <point x="266" y="288" type="curve"/>
      <point x="260" y="295"/>
      <point x="254" y="308"/>
      <point x="247" y="316" type="curve"/>
      <point x="217" y="360"/>
      <point x="176" y="413"/>
      <point x="117" y="413" type="curve" smooth="yes"/>
      <point x="62" y="413"/>
      <point x="22" y="375"/>
      <point x="22" y="330" type="curve" smooth="yes"/>
      <point x="22" y="321"/>
      <point x="30" y="309"/>
      <point x="49" y="309" type="curve" smooth="yes"/>
      <point x="58" y="309"/>
      <point x="67" y="313"/>
      <point x="73" y="317" type="curve" smooth="yes"/>
      <point x="79" y="321"/>
      <point x="87" y="326"/>
      <point x="103" y="326" type="curve" smooth="yes"/>
      <point x="119" y="326"/>
      <point x="150" y="291"/>
      <point x="175" y="262" type="curve"/>
      <point x="210" y="214" type="line"/>
      <point x="198" y="193"/>
      <point x="166" y="160"/>
      <point x="138" y="127" type="curve" smooth="yes"/>
      <point x="117" y="103"/>
      <point x="95" y="80"/>
      <point x="81" y="55" type="curve" smooth="yes"/>
      <point x="77" y="48"/>
      <point x="66" y="31"/>
      <point x="66" y="25" type="curve" smooth="yes"/>
      <point x="66" y="-4"/>
      <point x="93" y="-11"/>
      <point x="112" y="-11" type="curve" smooth="yes"/>
      <point x="129" y="-11"/>
      <point x="148" y="-3"/>
      <point x="162" y="12" type="curve"/>
      <point x="193" y="42"/>
      <point x="236" y="91"/>
      <point x="269" y="140" type="curve"/>
      <point x="300" y="93"/>
      <point x="373" y="5"/>
      <point x="432" y="5" type="curve" smooth="yes"/>
      <point x="462" y="5"/>
      <point x="488" y="24"/>
      <point x="488" y="54" type="curve" smooth="yes"/>
      <point x="488" y="74"/>
      <point x="465" y="81"/>
      <point x="449" y="89" type="curve"/>
      <point x="412" y="111"/>
      <point x="364" y="166"/>
      <point x="326" y="215" type="curve"/>
      <point x="367" y="269"/>
      <point x="407" y="329"/>
      <point x="423" y="366" type="curve" smooth="yes"/>
      <point x="429" y="381"/>
      <point x="434" y="393"/>
      <point x="434" y="408" type="curve" smooth="yes"/>
      <point x="434" y="426"/>
      <point x="418" y="441"/>
      <point x="391" y="441" type="curve" smooth="yes"/>
    </contour>
  </outline>
</glyph>
<glyph name="z" format="1">
  <advance width="464"/>
  <unicode hex="007A"/>
  <outline>
    <contour>
      <point x="404" y="352"/>
      <point x="409" y="367"/>
      <point x="409" y="380" type="curve" smooth="yes"/>
      <point x="409" y="394"/>
      <point x="401" y="411"/>
      <point x="385" y="416" type="curve"/>
      <point x="351" y="425"/>
      <point x="277" y="427"/>
      <point x="232" y="427" type="curve" smooth="yes"/>
      <point x="184" y="427"/>
      <point x="114" y="426"/>
      <point x="85" y="422" type="curve"/>
      <point x="63" y="418"/>
      <point x="49" y="397"/>
      <point x="49" y="380" type="curve" smooth="yes"/>
      <point x="49" y="345"/>
      <point x="76" y="337"/>
      <point x="125" y="337" type="curve" smooth="yes"/>
      <point x="172" y="337"/>
      <point x="229" y="338"/>
      <point x="285" y="338" type="curve"/>
      <point x="256" y="288"/>
      <point x="187" y="243"/>
      <point x="140" y="196" type="curve" smooth="yes"/>
      <point x="112" y="166"/>
      <point x="40" y="99"/>
      <point x="40" y="55" type="curve" smooth="yes"/>
      <point x="40" y="8"/>
      <point x="87" y="-2"/>
      <point x="143" y="-2" type="curve" smooth="yes"/>
      <point x="211" y="-2"/>
      <point x="301" y="9"/>
      <point x="354" y="9" type="curve" smooth="yes"/>
      <point x="382" y="9"/>
      <point x="399" y="0"/>
      <point x="421" y="0" type="curve" smooth="yes"/>
      <point x="439" y="0"/>
      <point x="451" y="30"/>
      <point x="451" y="45" type="curve" smooth="yes"/>
      <point x="451" y="58"/>
      <point x="442" y="76"/>
      <point x="430" y="82" type="curve" smooth="yes"/>
      <point x="404" y="96"/>
      <point x="375" y="102"/>
      <point x="355" y="102" type="curve" smooth="yes"/>
      <point x="317" y="102"/>
      <point x="273" y="86"/>
      <point x="232" y="86" type="curve" smooth="yes"/>
      <point x="220" y="86"/>
      <point x="177" y="86"/>
      <point x="157" y="90" type="curve"/>
      <point x="191" y="121" type="line"/>
      <point x="248" y="180"/>
      <point x="356" y="266"/>
      <point x="399" y="342" type="curve"/>
    </contour>
  </outline>
</glyph>
<glyph name="bar" format="1">
  <advance width="289"/>
  <unicode hex="007C"/>
  <outline>
    <contour>
      <point x="192" y="154"/>
      <point x="194" y="373"/>
      <point x="194" y="373" type="curve"/>
      <point x="193" y="617"/>
      <point x="199" y="638"/>
      <point x="199" y="670" type="curve" smooth="yes"/>
      <point x="199" y="703"/>
      <point x="169" y="714"/>
      <point x="148" y="714" type="curve" smooth="yes"/>
      <point x="130" y="714"/>
      <point x="96" y="706"/>
      <point x="96" y="663" type="curve" smooth="yes"/>
      <point x="96" y="631"/>
      <point x="90" y="395"/>
      <point x="90" y="373" type="curve" smooth="yes"/>
      <point x="90" y="318"/>
      <point x="92" y="60"/>
      <point x="94" y="46" type="curve"/>
      <point x="95" y="31"/>
      <point x="95" y="-134"/>
      <point x="95" y="-175" type="curve" smooth="yes"/>
      <point x="95" y="-212"/>
      <point x="101" y="-223"/>
      <point x="101" y="-223" type="curve" smooth="yes"/>
      <point x="101" y="-223"/>
      <point x="108" y="-246"/>
      <point x="150" y="-246" type="curve" smooth="yes"/>
      <point x="193" y="-246"/>
      <point x="199" y="-216"/>
      <point x="199" y="-203" type="curve" smooth="yes"/>
      <point x="199" y="-161"/>
      <point x="192" y="-21"/>
      <point x="192" y="85" type="curve" smooth="yes"/>
    </contour>
  </outline>
</glyph>
<glyph name="braceright" format="1">
  <advance width="343"/>
  <unicode hex="007D"/>
  <outline>
    <contour>
      <point x="134" y="524"/>
      <point x="129" y="472"/>
      <point x="129" y="434" type="curve" smooth="yes"/>
      <point x="129" y="421"/>
      <point x="129" y="408"/>
      <point x="129" y="395" type="curve" smooth="yes"/>
      <point x="129" y="336"/>
      <point x="133" y="289"/>
      <point x="185" y="229" type="curve"/>
      <point x="154" y="201"/>
      <point x="151" y="117"/>
      <point x="150" y="50" type="curve" smooth="yes"/>
      <point x="148" y="-23"/>
      <point x="148" y="-98"/>
      <point x="110" y="-128" type="curve" smooth="yes"/>
      <point x="71" y="-158"/>
      <point x="11" y="-128"/>
      <point x="11" y="-170" type="curve" smooth="yes"/>
      <point x="11" y="-203"/>
      <point x="46" y="-217"/>
      <point x="85" y="-217" type="curve" smooth="yes"/>
      <point x="159" y="-217"/>
      <point x="222" y="-154"/>
      <point x="235" y="-86" type="curve" smooth="yes"/>
      <point x="238" y="-72"/>
      <point x="238" y="-57"/>
      <point x="238" y="-40" type="curve" smooth="yes"/>
      <point x="238" y="-8"/>
      <point x="236" y="28"/>
      <point x="236" y="60" type="curve" smooth="yes"/>
      <point x="236" y="89"/>
      <point x="238" y="134"/>
      <point x="247" y="155" type="curve"/>
      <point x="265" y="191"/>
      <point x="336" y="192"/>
      <point x="310" y="252" type="curve"/>
      <point x="295" y="274"/>
      <point x="269" y="278"/>
      <point x="249" y="296" type="curve" smooth="yes"/>
      <point x="223" y="319"/>
      <point x="221" y="361"/>
      <point x="221" y="417" type="curve" smooth="yes"/>
      <point x="221" y="427"/>
      <point x="221" y="437"/>
      <point x="221" y="448" type="curve" smooth="yes"/>
      <point x="221" y="529"/>
      <point x="218" y="624"/>
      <point x="147" y="652" type="curve" smooth="yes"/>
      <point x="137" y="656"/>
      <point x="121" y="659"/>
      <point x="102" y="659" type="curve" smooth="yes"/>
      <point x="64" y="659"/>
      <point x="20" y="649"/>
      <point x="20" y="625" type="curve" smooth="yes"/>
      <point x="20" y="576"/>
      <point x="47" y="580"/>
      <point x="73" y="580" type="curve" smooth="yes"/>
      <point x="88" y="580"/>
      <point x="105" y="581"/>
      <point x="112" y="566" type="curve"/>
    </contour>
  </outline>
</glyph>
<glyph name="asciitilde" format="1">
  <advance width="515"/>
  <unicode hex="007E"/>
  <outline>
    <contour>
      <point x="434" y="297"/>
      <point x="419" y="288"/>
      <point x="405" y="279" type="curve" smooth="yes"/>
      <point x="390" y="270"/>
      <point x="368" y="248"/>
      <point x="351" y="248" type="curve" smooth="yes"/>
      <point x="322" y="248"/>
      <point x="310" y="265"/>
      <point x="284" y="280" type="curve" smooth="yes"/>
      <point x="252" y="298"/>
      <point x="214" y="316"/>
      <point x="174" y="316" type="curve" smooth="yes"/>
      <point x="109" y="316"/>
      <point x="37" y="262"/>
      <point x="37" y="212" type="curve" smooth="yes"/>
      <point x="37" y="183"/>
      <point x="62" y="162"/>
      <point x="76" y="162" type="curve" smooth="yes"/>
      <point x="95" y="162"/>
      <point x="113" y="175"/>
      <point x="130" y="187" type="curve" smooth="yes"/>
      <point x="147" y="199"/>
      <point x="163" y="215"/>
      <point x="181" y="215" type="curve" smooth="yes"/>
      <point x="221" y="215"/>
      <point x="280" y="152"/>
      <point x="352" y="152" type="curve" smooth="yes"/>
      <point x="415" y="152"/>
      <point x="499" y="203"/>
      <point x="499" y="248" type="curve" smooth="yes"/>
      <point x="499" y="283"/>
      <point x="465" y="297"/>
      <point x="449" y="297" type="curve" smooth="yes"/>
    </contour>
  </outline>
</glyph>
<glyph name="exclamdown" format="1">
  <advance width="252"/>
  <unicode hex="00A1"/>
  <outline>
    <contour>
      <point x="74" y="-180"/>
      <point x="88" y="-209"/>
      <point x="127" y="-209" type="curve" smooth="yes"/>
      <point x="180" y="-209"/>
      <point x="178" y="-152"/>
      <point x="178" y="-118" type="curve" smooth="yes"/>
      <point x="178" y="-4"/>
      <point x="184" y="107"/>
      <point x="167" y="227" type="curve"/>
      <point x="163" y="245"/>
      <point x="142" y="256"/>
      <point x="122" y="256" type="curve" smooth="yes"/>
      <point x="103" y="256"/>
      <point x="85" y="246"/>
      <point x="84" y="222" type="curve"/>
      <point x="85" y="200"/>
      <point x="85" y="177"/>
      <point x="85" y="155" type="curve" smooth="yes"/>
      <point x="85" y="49"/>
      <point x="74" y="-40"/>
      <point x="74" y="-148" type="curve" smooth="yes"/>
    </contour>
    <contour>
      <point x="162" y="308"/>
      <point x="184" y="339"/>
      <point x="184" y="365" type="curve" smooth="yes"/>
      <point x="184" y="397"/>
      <point x="159" y="427"/>
      <point x="117" y="427" type="curve" smooth="yes"/>
      <point x="82" y="427"/>
      <point x="58" y="391"/>
      <point x="58" y="359" type="curve" smooth="yes"/>
      <point x="58" y="328"/>
      <point x="78" y="308"/>
      <point x="127" y="308" type="curve" smooth="yes"/>
    </contour>
  </outline>
</glyph>
<glyph name="cent" format="1">
  <advance width="469"/>
  <unicode hex="00A2"/>
  <outline>
    <contour>
      <point x="408" y="370"/>
      <point x="380" y="398"/>
      <point x="346" y="414" type="curve"/>
      <point x="355" y="441"/>
      <point x="367" y="469"/>
      <point x="367" y="484" type="curve" smooth="yes"/>
      <point x="367" y="501"/>
      <point x="353" y="514"/>
      <point x="334" y="514" type="curve" smooth="yes"/>
      <point x="325" y="514"/>
      <point x="312" y="508"/>
      <point x="306" y="490" type="curve"/>
      <point x="301" y="473"/>
      <point x="294" y="454"/>
      <point x="286" y="432" type="curve"/>
      <point x="276" y="434"/>
      <point x="266" y="435"/>
      <point x="257" y="435" type="curve" smooth="yes"/>
      <point x="140" y="435"/>
      <point x="43" y="336"/>
      <point x="43" y="205" type="curve" smooth="yes"/>
      <point x="43" y="125"/>
      <point x="85" y="61"/>
      <point x="148" y="26" type="curve"/>
      <point x="137" y="-8" type="line"/>
      <point x="136" y="-12"/>
      <point x="131" y="-22"/>
      <point x="131" y="-31" type="curve" smooth="yes"/>
      <point x="131" y="-49"/>
      <point x="149" y="-62"/>
      <point x="166" y="-62" type="curve" smooth="yes"/>
      <point x="175" y="-62"/>
      <point x="187" y="-55"/>
      <point x="191" y="-45" type="curve"/>
      <point x="193" y="-36"/>
      <point x="198" y="-19"/>
      <point x="205" y="4" type="curve"/>
      <point x="223" y="-1"/>
      <point x="243" y="-4"/>
      <point x="263" y="-4" type="curve" smooth="yes"/>
      <point x="331" y="-4"/>
      <point x="437" y="24"/>
      <point x="437" y="88" type="curve" smooth="yes"/>
      <point x="437" y="110"/>
      <point x="410" y="123"/>
      <point x="398" y="123" type="curve" smooth="yes"/>
      <point x="380" y="123"/>
      <point x="364" y="115"/>
      <point x="348" y="107" type="curve" smooth="yes"/>
      <point x="329" y="97"/>
      <point x="301" y="84"/>
      <point x="275" y="84" type="curve" smooth="yes"/>
      <point x="265" y="84"/>
      <point x="248" y="86"/>
      <point x="234" y="91" type="curve"/>
      <point x="259" y="166"/>
      <point x="291" y="257"/>
      <point x="312" y="320" type="curve"/>
      <point x="316" y="318" type="line"/>
      <point x="328" y="304"/>
      <point x="341" y="290"/>
      <point x="363" y="290" type="curve" smooth="yes"/>
      <point x="394" y="290"/>
      <point x="408" y="307"/>
      <point x="408" y="334" type="curve" smooth="yes"/>
    </contour>
    <contour>
      <point x="222" y="243"/>
      <point x="197" y="172"/>
      <point x="181" y="123" type="curve"/>
      <point x="157" y="146"/>
      <point x="146" y="175"/>
      <point x="146" y="217" type="curve" smooth="yes"/>
      <point x="146" y="294"/>
      <point x="203" y="348"/>
      <point x="259" y="351" type="curve"/>
    </contour>
  </outline>
</glyph>
<glyph name="brokenbar" format="1">
  <advance width="283"/>
  <unicode hex="00A6"/>
  <outline>
    <contour>
      <point x="191" y="406"/>
      <point x="193" y="479"/>
      <point x="193" y="551" type="curve" smooth="yes"/>
      <point x="193" y="584"/>
      <point x="164" y="595"/>
      <point x="143" y="595" type="curve" smooth="yes"/>
      <point x="125" y="595"/>
      <point x="91" y="594"/>
      <point x="91" y="545" type="curve" smooth="yes"/>
      <point x="91" y="513"/>
      <point x="90" y="472"/>
      <point x="90" y="399" type="curve" smooth="yes"/>
      <point x="90" y="362"/>
      <point x="95" y="351"/>
      <point x="95" y="351" type="curve" smooth="yes"/>
      <point x="95" y="351"/>
      <point x="103" y="328"/>
      <point x="145" y="328" type="curve" smooth="yes"/>
      <point x="183" y="328"/>
      <point x="191" y="355"/>
      <point x="191" y="367" type="curve" smooth="yes"/>
    </contour>
    <contour>
      <point x="191" y="-68"/>
      <point x="188" y="-31"/>
      <point x="188" y="-9" type="curve" smooth="yes"/>
      <point x="188" y="23"/>
      <point x="193" y="64"/>
      <point x="193" y="95" type="curve" smooth="yes"/>
      <point x="193" y="132"/>
      <point x="164" y="139"/>
      <point x="143" y="139" type="curve" smooth="yes"/>
      <point x="125" y="139"/>
      <point x="91" y="124"/>
      <point x="91" y="90" type="curve" smooth="yes"/>
      <point x="91" y="58"/>
      <point x="90" y="16"/>
      <point x="90" y="-57" type="curve" smooth="yes"/>
      <point x="90" y="-94"/>
      <point x="95" y="-104"/>
      <point x="95" y="-104" type="curve" smooth="yes"/>
      <point x="95" y="-104"/>
      <point x="103" y="-127"/>
      <point x="145" y="-127" type="curve" smooth="yes"/>
      <point x="183" y="-127"/>
      <point x="191" y="-101"/>
      <point x="191" y="-88" type="curve" smooth="yes"/>
    </contour>
  </outline>
</glyph>
<glyph name="dieresis" format="1">
  <advance width="522"/>
  <unicode hex="00A8"/>
  <outline>
    <contour>
      <point x="130" y="661"/>
      <point x="129" y="625"/>
      <point x="129" y="605" type="curve" smooth="yes"/>
      <point x="129" y="592"/>
      <point x="135" y="566"/>
      <point x="172" y="566" type="curve" smooth="yes"/>
      <point x="204" y="566"/>
      <point x="229" y="581"/>
      <point x="229" y="607" type="curve" smooth="yes"/>
      <point x="229" y="646"/>
      <point x="193" y="661"/>
      <point x="161" y="661" type="curve" smooth="yes"/>
    </contour>
    <contour>
      <point x="298" y="661"/>
      <point x="297" y="625"/>
      <point x="297" y="605" type="curve" smooth="yes"/>
      <point x="297" y="592"/>
      <point x="303" y="566"/>
      <point x="340" y="566" type="curve" smooth="yes"/>
      <point x="373" y="566"/>
      <point x="398" y="581"/>
      <point x="398" y="607" type="curve" smooth="yes"/>
      <point x="398" y="646"/>
      <point x="361" y="661"/>
      <point x="329" y="661" type="curve" smooth="yes"/>
    </contour>
  </outline>
</glyph>
<glyph name="copyright" format="1">
  <advance width="734"/>
  <unicode hex="00A9"/>
  <outline>
    <contour>
      <point x="682" y="422"/>
      <point x="639" y="499"/>
      <point x="627" y="519" type="curve"/>
      <point x="616" y="540"/>
      <point x="560" y="584"/>
      <point x="538" y="597" type="curve" smooth="yes"/>
      <point x="516" y="610"/>
      <point x="455" y="636"/>
      <point x="401" y="636" type="curve" smooth="yes"/>
      <point x="356" y="636"/>
      <point x="265" y="629"/>
      <point x="221" y="605" type="curve" smooth="yes"/>
      <point x="136" y="559"/>
      <point x="52" y="454"/>
      <point x="52" y="314" type="curve" smooth="yes"/>
      <point x="52" y="205"/>
      <point x="90" y="160"/>
      <point x="121" y="112" type="curve" smooth="yes"/>
      <point x="171" y="37"/>
      <point x="267" y="0"/>
      <point x="369" y="0" type="curve" smooth="yes"/>
      <point x="459" y="-1"/>
      <point x="527" y="37"/>
      <point x="601" y="101" type="curve" smooth="yes"/>
      <point x="657" y="148"/>
      <point x="682" y="254"/>
      <point x="682" y="333" type="curve" smooth="yes"/>
    </contour>
    <contour>
      <point x="169" y="490"/>
      <point x="239" y="566"/>
      <point x="415" y="566" type="curve" smooth="yes"/>
      <point x="500" y="566"/>
      <point x="603" y="467"/>
      <point x="603" y="354" type="curve" smooth="yes"/>
      <point x="603" y="157"/>
      <point x="517" y="73"/>
      <point x="343" y="73" type="curve" smooth="yes"/>
      <point x="225" y="73"/>
      <point x="128" y="172"/>
      <point x="128" y="303" type="curve" smooth="yes"/>
      <point x="128" y="330"/>
      <point x="131" y="359"/>
      <point x="140" y="389" type="curve" smooth="yes"/>
    </contour>
    <contour>
      <point x="466" y="252"/>
      <point x="454" y="251"/>
      <point x="445" y="239" type="curve"/>
      <point x="440" y="234" type="line" smooth="yes"/>
      <point x="418" y="212"/>
      <point x="387" y="211"/>
      <point x="378" y="211" type="curve" smooth="yes"/>
      <point x="308" y="211"/>
      <point x="276" y="261"/>
      <point x="276" y="310" type="curve" smooth="yes"/>
      <point x="276" y="341"/>
      <point x="287" y="379"/>
      <point x="300" y="394" type="curve" smooth="yes"/>
      <point x="314" y="411"/>
      <point x="355" y="425"/>
      <point x="380" y="425" type="curve" smooth="yes"/>
      <point x="412" y="425"/>
      <point x="423" y="409"/>
      <point x="429" y="399" type="curve" smooth="yes"/>
      <point x="436" y="387"/>
      <point x="446" y="382"/>
      <point x="463" y="382" type="curve" smooth="yes"/>
      <point x="480" y="382"/>
      <point x="496" y="401"/>
      <point x="496" y="413" type="curve" smooth="yes"/>
      <point x="496" y="423"/>
      <point x="491" y="431"/>
      <point x="480" y="445" type="curve"/>
      <point x="455" y="474"/>
      <point x="432" y="490"/>
      <point x="380" y="490" type="curve" smooth="yes"/>
      <point x="347" y="490"/>
      <point x="289" y="481"/>
      <point x="261" y="455" type="curve"/>
      <point x="225" y="424"/>
      <point x="204" y="365"/>
      <point x="204" y="300" type="curve" smooth="yes"/>
      <point x="204" y="273"/>
      <point x="220" y="227"/>
      <point x="235" y="206" type="curve"/>
      <point x="263" y="172"/>
      <point x="320" y="146"/>
      <point x="369" y="146" type="curve" smooth="yes"/>
      <point x="413" y="146"/>
      <point x="459" y="151"/>
      <point x="493" y="190" type="curve" smooth="yes"/>
      <point x="503" y="201"/>
      <point x="506" y="210"/>
      <point x="506" y="222" type="curve" smooth="yes"/>
      <point x="506" y="237"/>
      <point x="490" y="252"/>
      <point x="474" y="252" type="curve" smooth="yes"/>
    </contour>
  </outline>
</glyph>
<glyph name="ordfeminine" format="1">
  <advance width="367"/>
  <unicode hex="00AA"/>
  <outline>
    <contour>
      <point x="352" y="382"/>
      <point x="346" y="391"/>
      <point x="336" y="391" type="curve" smooth="yes"/>
      <point x="328" y="391"/>
      <point x="323" y="391"/>
      <point x="317" y="391" type="curve" smooth="yes"/>
      <point x="306" y="391"/>
      <point x="296" y="399"/>
      <point x="296" y="410" type="curve" smooth="yes"/>
      <point x="296" y="427"/>
      <point x="299" y="440"/>
      <point x="299" y="454" type="curve" smooth="yes"/>
      <point x="299" y="477"/>
      <point x="301" y="494"/>
      <point x="301" y="513" type="curve" smooth="yes"/>
      <point x="301" y="552"/>
      <point x="284" y="585"/>
      <point x="257" y="607" type="curve" smooth="yes"/>
      <point x="233" y="627"/>
      <point x="190" y="637"/>
      <point x="166" y="637" type="curve" smooth="yes"/>
      <point x="130" y="637"/>
      <point x="56" y="616"/>
      <point x="56" y="573" type="curve" smooth="yes"/>
      <point x="56" y="564"/>
      <point x="64" y="549"/>
      <point x="73" y="549" type="curve" smooth="yes"/>
      <point x="85" y="549"/>
      <point x="99" y="553"/>
      <point x="109" y="560" type="curve"/>
      <point x="122" y="567"/>
      <point x="140" y="578"/>
      <point x="157" y="578" type="curve" smooth="yes"/>
      <point x="209" y="578"/>
      <point x="232" y="557"/>
      <point x="232" y="512" type="curve" smooth="yes"/>
      <point x="232" y="505" type="line"/>
      <point x="218" y="512"/>
      <point x="188" y="522"/>
      <point x="168" y="522" type="curve" smooth="yes"/>
      <point x="121" y="522"/>
      <point x="92" y="511"/>
      <point x="69" y="492" type="curve" smooth="yes"/>
      <point x="49" y="475"/>
      <point x="31" y="454"/>
      <point x="31" y="427" type="curve" smooth="yes"/>
      <point x="31" y="364"/>
      <point x="76" y="336"/>
      <point x="130" y="336" type="curve" smooth="yes"/>
      <point x="157" y="336"/>
      <point x="210" y="344"/>
      <point x="236" y="367" type="curve"/>
      <point x="254" y="343"/>
      <point x="273" y="337"/>
      <point x="305" y="337" type="curve" smooth="yes"/>
      <point x="320" y="337"/>
      <point x="352" y="349"/>
      <point x="352" y="372" type="curve" smooth="yes"/>
    </contour>
    <contour>
      <point x="116" y="393"/>
      <point x="99" y="404"/>
      <point x="99" y="422" type="curve" smooth="yes"/>
      <point x="99" y="461"/>
      <point x="139" y="468"/>
      <point x="168" y="468" type="curve" smooth="yes"/>
      <point x="188" y="468"/>
      <point x="206" y="460"/>
      <point x="229" y="450" type="curve"/>
      <point x="228" y="433"/>
      <point x="228" y="429"/>
      <point x="226" y="420" type="curve"/>
      <point x="188" y="399"/>
      <point x="170" y="393"/>
      <point x="130" y="393" type="curve" smooth="yes"/>
    </contour>
  </outline>
</glyph>
<glyph name="guillemetleft" format="1">
  <advance width="405"/>
  <unicode hex="00AB"/>
  <outline>
    <contour>
      <point x="307" y="174"/>
      <point x="294" y="185"/>
      <point x="283" y="198" type="curve"/>
      <point x="292" y="207"/>
      <point x="302" y="216"/>
      <point x="312" y="224" type="curve" smooth="yes"/>
      <point x="340" y="248"/>
      <point x="364" y="270"/>
      <point x="364" y="306" type="curve" smooth="yes"/>
      <point x="364" y="323"/>
      <point x="355" y="335"/>
      <point x="339" y="335" type="curve" smooth="yes"/>
      <point x="326" y="335"/>
      <point x="312" y="329"/>
      <point x="300" y="318" type="curve"/>
      <point x="283" y="304"/>
      <point x="267" y="287"/>
      <point x="254" y="274" type="curve"/>
      <point x="248" y="267"/>
      <point x="235" y="255"/>
      <point x="233" y="253" type="curve" smooth="yes"/>
      <point x="218" y="238"/>
      <point x="202" y="223"/>
      <point x="202" y="199" type="curve" smooth="yes"/>
      <point x="202" y="175"/>
      <point x="220" y="150"/>
      <point x="230" y="141" type="curve"/>
      <point x="242" y="131"/>
      <point x="261" y="105"/>
      <point x="276" y="91" type="curve"/>
      <point x="303" y="63"/>
      <point x="319" y="51"/>
      <point x="328" y="51" type="curve" smooth="yes"/>
      <point x="341" y="51"/>
      <point x="364" y="64"/>
      <point x="364" y="89" type="curve" smooth="yes"/>
      <point x="364" y="110"/>
      <point x="346" y="136"/>
      <point x="319" y="162" type="curve" smooth="yes"/>
    </contour>
    <contour>
      <point x="139" y="174"/>
      <point x="126" y="185"/>
      <point x="115" y="198" type="curve"/>
      <point x="123" y="207"/>
      <point x="133" y="216"/>
      <point x="143" y="224" type="curve" smooth="yes"/>
      <point x="172" y="248"/>
      <point x="196" y="270"/>
      <point x="196" y="306" type="curve" smooth="yes"/>
      <point x="196" y="323"/>
      <point x="186" y="335"/>
      <point x="171" y="335" type="curve" smooth="yes"/>
      <point x="157" y="335"/>
      <point x="144" y="329"/>
      <point x="130" y="318" type="curve"/>
      <point x="114" y="304"/>
      <point x="98" y="287"/>
      <point x="85" y="274" type="curve"/>
      <point x="79" y="267"/>
      <point x="67" y="255"/>
      <point x="65" y="253" type="curve" smooth="yes"/>
      <point x="49" y="238"/>
      <point x="33" y="223"/>
      <point x="33" y="199" type="curve" smooth="yes"/>
      <point x="33" y="175"/>
      <point x="50" y="151"/>
      <point x="60" y="143" type="curve"/>
      <point x="77" y="128"/>
      <point x="93" y="105"/>
      <point x="107" y="91" type="curve" smooth="yes"/>
      <point x="134" y="63"/>
      <point x="150" y="51"/>
      <point x="160" y="51" type="curve" smooth="yes"/>
      <point x="173" y="51"/>
      <point x="196" y="64"/>
      <point x="196" y="89" type="curve" smooth="yes"/>
      <point x="196" y="110"/>
      <point x="178" y="136"/>
      <point x="150" y="162" type="curve"/>
    </contour>
  </outline>
</glyph>
<glyph name="logicalnot" format="1">
  <advance width="536"/>
  <unicode hex="00AC"/>
  <outline>
    <contour>
      <point x="409" y="360"/>
      <point x="314" y="354"/>
      <point x="301" y="354" type="curve" smooth="yes"/>
      <point x="278" y="354"/>
      <point x="229" y="355"/>
      <point x="204" y="356" type="curve" smooth="yes"/>
      <point x="181" y="357"/>
      <point x="134" y="359"/>
      <point x="112" y="359" type="curve" smooth="yes"/>
      <point x="74" y="359"/>
      <point x="40" y="353"/>
      <point x="40" y="307" type="curve" smooth="yes"/>
      <point x="40" y="271"/>
      <point x="87" y="266"/>
      <point x="108" y="266" type="curve" smooth="yes"/>
      <point x="126" y="266"/>
      <point x="185" y="269"/>
      <point x="211" y="269" type="curve" smooth="yes"/>
      <point x="231" y="269"/>
      <point x="342" y="267"/>
      <point x="394" y="266" type="curve"/>
      <point x="394" y="214"/>
      <point x="391" y="162"/>
      <point x="391" y="154" type="curve" smooth="yes"/>
      <point x="391" y="126"/>
      <point x="414" y="113"/>
      <point x="443" y="113" type="curve" smooth="yes"/>
      <point x="472" y="113"/>
      <point x="483" y="135"/>
      <point x="483" y="151" type="curve" smooth="yes"/>
      <point x="483" y="167"/>
      <point x="487" y="274"/>
      <point x="487" y="310" type="curve" smooth="yes"/>
      <point x="487" y="358"/>
      <point x="445" y="360"/>
      <point x="421" y="360" type="curve" smooth="yes"/>
    </contour>
  </outline>
</glyph>
<glyph name="softhyphen" format="1">
  <advance width="401"/>
  <unicode hex="00AD"/>
  <outline>
    <contour>
      <point x="306" y="265"/>
      <point x="230" y="261"/>
      <point x="205" y="261" type="curve" smooth="yes"/>
      <point x="180" y="261"/>
      <point x="157" y="264"/>
      <point x="135" y="264" type="curve" smooth="yes"/>
      <point x="85" y="264"/>
      <point x="36" y="260"/>
      <point x="36" y="208" type="curve" smooth="yes"/>
      <point x="36" y="170"/>
      <point x="77" y="162"/>
      <point x="105" y="162" type="curve" smooth="yes"/>
      <point x="143" y="162"/>
      <point x="176" y="170"/>
      <point x="211" y="170" type="curve" smooth="yes"/>
      <point x="239" y="170"/>
      <point x="283" y="162"/>
      <point x="301" y="162" type="curve" smooth="yes"/>
      <point x="332" y="162"/>
      <point x="365" y="173"/>
      <point x="365" y="213" type="curve" smooth="yes"/>
      <point x="365" y="254"/>
      <point x="343" y="265"/>
      <point x="319" y="265" type="curve" smooth="yes"/>
    </contour>
  </outline>
</glyph>
<glyph name="macron" format="1">
  <advance width="450"/>
  <unicode hex="00AF"/>
  <outline>
    <contour>
      <point x="353" y="683" type="line" smooth="yes"/>
      <point x="434" y="683"/>
      <point x="456" y="690"/>
      <point x="456" y="732" type="curve" smooth="yes"/>
      <point x="456" y="751"/>
      <point x="300" y="751"/>
      <point x="198" y="751" type="curve" smooth="yes"/>
      <point x="85" y="751"/>
      <point x="-5" y="746"/>
      <point x="-5" y="712" type="curve" smooth="yes"/>
      <point x="-5" y="682"/>
      <point x="6" y="677"/>
      <point x="46" y="677" type="curve" smooth="yes"/>
      <point x="59" y="677"/>
      <point x="114" y="680"/>
      <point x="165" y="680" type="curve" smooth="yes"/>
    </contour>
  </outline>
</glyph>
<glyph name="plusminus" format="1">
  <advance width="529"/>
  <unicode hex="00B1"/>
  <outline>
    <contour>
      <point x="148" y="229"/>
      <point x="166" y="231"/>
      <point x="184" y="231" type="curve" smooth="yes"/>
      <point x="195" y="231"/>
      <point x="211" y="231"/>
      <point x="220" y="226" type="curve"/>
      <point x="220" y="201"/>
      <point x="221" y="172"/>
      <point x="226" y="151" type="curve" smooth="yes"/>
      <point x="232" y="126"/>
      <point x="244" y="112"/>
      <point x="260" y="112" type="curve" smooth="yes"/>
      <point x="293" y="112"/>
      <point x="305" y="128"/>
      <point x="305" y="153" type="curve" smooth="yes"/>
      <point x="305" y="180"/>
      <point x="295" y="208"/>
      <point x="303" y="230" type="curve"/>
      <point x="337" y="234"/>
      <point x="374" y="231"/>
      <point x="405" y="231" type="curve" smooth="yes"/>
      <point x="433" y="231"/>
      <point x="471" y="231"/>
      <point x="471" y="277" type="curve" smooth="yes"/>
      <point x="471" y="316"/>
      <point x="433" y="316"/>
      <point x="418" y="316" type="curve" smooth="yes"/>
      <point x="390" y="316"/>
      <point x="365" y="311"/>
      <point x="341" y="311" type="curve" smooth="yes"/>
      <point x="325" y="311"/>
      <point x="308" y="313"/>
      <point x="297" y="317" type="curve"/>
      <point x="297" y="343"/>
      <point x="299" y="378"/>
      <point x="299" y="409" type="curve" smooth="yes"/>
      <point x="299" y="429"/>
      <point x="281" y="436"/>
      <point x="263" y="436" type="curve" smooth="yes"/>
      <point x="227" y="436"/>
      <point x="217" y="399"/>
      <point x="217" y="353" type="curve" smooth="yes"/>
      <point x="217" y="339"/>
      <point x="219" y="325"/>
      <point x="219" y="311" type="curve"/>
      <point x="185" y="311"/>
      <point x="157" y="314"/>
      <point x="131" y="314" type="curve" smooth="yes"/>
      <point x="110" y="314"/>
      <point x="83" y="312"/>
      <point x="68" y="298" type="curve"/>
      <point x="62" y="291"/>
      <point x="58" y="282"/>
      <point x="58" y="270" type="curve"/>
      <point x="60" y="229"/>
      <point x="105" y="229"/>
      <point x="125" y="229" type="curve" smooth="yes"/>
    </contour>
    <contour>
      <point x="365" y="90"/>
      <point x="338" y="86"/>
      <point x="312" y="89" type="curve"/>
      <point x="284" y="90"/>
      <point x="259" y="88"/>
      <point x="233" y="88" type="curve" smooth="yes"/>
      <point x="185" y="88"/>
      <point x="173" y="89"/>
      <point x="160" y="89" type="curve" smooth="yes"/>
      <point x="127" y="89"/>
      <point x="108" y="87"/>
      <point x="98" y="82" type="curve"/>
      <point x="83" y="73"/>
      <point x="75" y="63"/>
      <point x="75" y="32" type="curve" smooth="yes"/>
      <point x="75" y="2"/>
      <point x="121" y="-1"/>
      <point x="133" y="-1" type="curve" smooth="yes"/>
      <point x="178" y="-1"/>
      <point x="216" y="7"/>
      <point x="255" y="7" type="curve" smooth="yes"/>
      <point x="286" y="7"/>
      <point x="317" y="5"/>
      <point x="344" y="4" type="curve" smooth="yes"/>
      <point x="362" y="3"/>
      <point x="378" y="1"/>
      <point x="394" y="1" type="curve" smooth="yes"/>
      <point x="420" y="1"/>
      <point x="443" y="9"/>
      <point x="454" y="22" type="curve"/>
      <point x="463" y="30"/>
      <point x="465" y="40"/>
      <point x="465" y="51" type="curve" smooth="yes"/>
      <point x="465" y="85"/>
      <point x="430" y="90"/>
      <point x="401" y="90" type="curve" smooth="yes"/>
    </contour>
  </outline>
</glyph>
<glyph name="micro" format="1">
  <advance width="557"/>
  <unicode hex="00B5"/>
  <outline>
    <contour>
      <point x="490" y="91"/>
      <point x="478" y="116"/>
      <point x="471" y="137" type="curve" smooth="yes"/>
      <point x="463" y="164"/>
      <point x="461" y="197"/>
      <point x="461" y="229" type="curve" smooth="yes"/>
      <point x="462" y="283"/>
      <point x="470" y="332"/>
      <point x="470" y="378" type="curve" smooth="yes"/>
      <point x="470" y="397"/>
      <point x="466" y="406"/>
      <point x="463" y="411" type="curve"/>
      <point x="456" y="425"/>
      <point x="430" y="436"/>
      <point x="416" y="436" type="curve" smooth="yes"/>
      <point x="386" y="436"/>
      <point x="371" y="412"/>
      <point x="371" y="385" type="curve" smooth="yes"/>
      <point x="371" y="362"/>
      <point x="369" y="332"/>
      <point x="365" y="303" type="curve" smooth="yes"/>
      <point x="357" y="241"/>
      <point x="366" y="172"/>
      <point x="325" y="128" type="curve" smooth="yes"/>
      <point x="301" y="103"/>
      <point x="282" y="86"/>
      <point x="238" y="86" type="curve" smooth="yes"/>
      <point x="224" y="86"/>
      <point x="190" y="96"/>
      <point x="180" y="116" type="curve"/>
      <point x="166" y="134"/>
      <point x="161" y="172"/>
      <point x="161" y="209" type="curve" smooth="yes"/>
      <point x="161" y="249"/>
      <point x="168" y="313"/>
      <point x="168" y="341" type="curve" smooth="yes"/>
      <point x="168" y="394"/>
      <point x="171" y="436"/>
      <point x="127" y="436" type="curve" smooth="yes"/>
      <point x="96" y="436"/>
      <point x="71" y="421"/>
      <point x="71" y="377" type="curve" smooth="yes"/>
      <point x="71" y="356"/>
      <point x="68" y="247"/>
      <point x="68" y="151" type="curve" smooth="yes"/>
      <point x="68" y="55"/>
      <point x="59" y="-104"/>
      <point x="59" y="-161" type="curve" smooth="yes"/>
      <point x="59" y="-201"/>
      <point x="85" y="-221"/>
      <point x="110" y="-221" type="curve" smooth="yes"/>
      <point x="136" y="-221"/>
      <point x="154" y="-202"/>
      <point x="154" y="-182" type="curve" smooth="yes"/>
      <point x="154" y="-131"/>
      <point x="155" y="-46"/>
      <point x="157" y="35" type="curve"/>
      <point x="178" y="9"/>
      <point x="227" y="-3"/>
      <point x="239" y="-3" type="curve" smooth="yes"/>
      <point x="274" y="-3"/>
      <point x="308" y="4"/>
      <point x="336" y="24" type="curve"/>
      <point x="358" y="42"/>
      <point x="381" y="72"/>
      <point x="393" y="87" type="curve"/>
      <point x="409" y="36"/>
      <point x="446" y="-3"/>
      <point x="498" y="-3" type="curve" smooth="yes"/>
      <point x="516" y="-3"/>
      <point x="535" y="14"/>
      <point x="535" y="30" type="curve" smooth="yes"/>
      <point x="535" y="40"/>
      <point x="526" y="50"/>
      <point x="501" y="77" type="curve"/>
    </contour>
  </outline>
</glyph>
<glyph name="paragraph" format="1">
  <advance width="544"/>
  <unicode hex="00B6"/>
  <outline>
    <contour>
      <point x="519" y="525"/>
      <point x="535" y="532"/>
      <point x="535" y="575" type="curve" smooth="yes"/>
      <point x="535" y="605"/>
      <point x="509" y="620"/>
      <point x="489" y="620" type="curve" smooth="yes"/>
      <point x="439" y="620"/>
      <point x="396" y="622"/>
      <point x="364" y="616" type="curve" smooth="yes"/>
      <point x="312" y="607"/>
      <point x="244" y="626"/>
      <point x="193" y="612" type="curve" smooth="yes"/>
      <point x="157" y="603"/>
      <point x="144" y="594"/>
      <point x="121" y="579" type="curve"/>
      <point x="68" y="541"/>
      <point x="45" y="503"/>
      <point x="45" y="415" type="curve" smooth="yes"/>
      <point x="45" y="348"/>
      <point x="101" y="302"/>
      <point x="157" y="278" type="curve"/>
      <point x="153" y="193"/>
      <point x="147" y="1"/>
      <point x="147" y="-106" type="curve" smooth="yes"/>
      <point x="147" y="-160"/>
      <point x="151" y="-186"/>
      <point x="187" y="-186" type="curve" smooth="yes"/>
      <point x="216" y="-186"/>
      <point x="245" y="-172"/>
      <point x="245" y="-135" type="curve" smooth="yes"/>
      <point x="245" y="-98"/>
      <point x="244" y="-13"/>
      <point x="242" y="31" type="curve" smooth="yes"/>
      <point x="238" y="180"/>
      <point x="258" y="356"/>
      <point x="258" y="531" type="curve"/>
      <point x="282" y="525"/>
      <point x="333" y="528"/>
      <point x="360" y="528" type="curve"/>
      <point x="349" y="346"/>
      <point x="354" y="141"/>
      <point x="354" y="-69" type="curve" smooth="yes"/>
      <point x="354" y="-112"/>
      <point x="345" y="-182"/>
      <point x="384" y="-182" type="curve" smooth="yes"/>
      <point x="428" y="-182"/>
      <point x="447" y="-149"/>
      <point x="447" y="-109" type="curve" smooth="yes"/>
      <point x="447" y="-71"/>
      <point x="442" y="-33"/>
      <point x="441" y="-7" type="curve" smooth="yes"/>
      <point x="438" y="66"/>
      <point x="437" y="139"/>
      <point x="437" y="211" type="curve" smooth="yes"/>
      <point x="438" y="310"/>
      <point x="438" y="428"/>
      <point x="445" y="525" type="curve"/>
    </contour>
  </outline>
</glyph>
<glyph name="cedilla" format="1">
  <advance width="522"/>
  <unicode hex="00B8"/>
  <outline>
    <contour>
      <point x="183" y="-84"/>
      <point x="193" y="-101"/>
      <point x="206" y="-101" type="curve" smooth="yes"/>
      <point x="219" y="-101"/>
      <point x="286" y="-99"/>
      <point x="286" y="-131" type="curve" smooth="yes"/>
      <point x="286" y="-144"/>
      <point x="279" y="-157"/>
      <point x="269" y="-162" type="curve" smooth="yes"/>
      <point x="259" y="-167"/>
      <point x="237" y="-172"/>
      <point x="220" y="-172" type="curve" smooth="yes"/>
      <point x="202" y="-172"/>
      <point x="202" y="-160"/>
      <point x="182" y="-160" type="curve" smooth="yes"/>
      <point x="173" y="-160"/>
      <point x="158" y="-168"/>
      <point x="158" y="-180" type="curve" smooth="yes"/>
      <point x="158" y="-208"/>
      <point x="188" y="-225"/>
      <point x="218" y="-225" type="curve" smooth="yes"/>
      <point x="264" y="-225"/>
      <point x="298" y="-215"/>
      <point x="316" y="-202" type="curve"/>
      <point x="334" y="-188"/>
      <point x="357" y="-164"/>
      <point x="357" y="-137" type="curve" smooth="yes"/>
      <point x="357" y="-86"/>
      <point x="318" y="-63"/>
      <point x="267" y="-58" type="curve"/>
      <point x="277" y="-43"/>
      <point x="299" y="-23"/>
      <point x="299" y="-13" type="curve" smooth="yes"/>
      <point x="299" y="9"/>
      <point x="290" y="18"/>
      <point x="271" y="18" type="curve" smooth="yes"/>
      <point x="253" y="18"/>
      <point x="227" y="-12"/>
      <point x="207" y="-35" type="curve" smooth="yes"/>
      <point x="197" y="-46"/>
      <point x="183" y="-61"/>
      <point x="183" y="-74" type="curve" smooth="yes"/>
    </contour>
  </outline>
</glyph>
<glyph name="ordmasculine" format="1">
  <advance width="355"/>
  <unicode hex="00BA"/>
  <outline>
    <contour>
      <point x="280" y="614"/>
      <point x="236" y="639"/>
      <point x="172" y="639" type="curve" smooth="yes"/>
      <point x="140" y="639"/>
      <point x="91" y="620"/>
      <point x="75" y="598" type="curve"/>
      <point x="50" y="569"/>
      <point x="31" y="525"/>
      <point x="31" y="487" type="curve" smooth="yes"/>
      <point x="31" y="471"/>
      <point x="46" y="426"/>
      <point x="50" y="412" type="curve"/>
      <point x="68" y="373"/>
      <point x="123" y="337"/>
      <point x="170" y="337" type="curve" smooth="yes"/>
      <point x="226" y="337"/>
      <point x="284" y="375"/>
      <point x="311" y="424" type="curve"/>
      <point x="314" y="436"/>
      <point x="323" y="471"/>
      <point x="323" y="499" type="curve" smooth="yes"/>
      <point x="323" y="518"/>
      <point x="318" y="544"/>
      <point x="310" y="559" type="curve" smooth="yes"/>
    </contour>
    <contour>
      <point x="234" y="426"/>
      <point x="197" y="402"/>
      <point x="171" y="402" type="curve" smooth="yes"/>
      <point x="147" y="402"/>
      <point x="120" y="424"/>
      <point x="115" y="431" type="curve"/>
      <point x="112" y="438"/>
      <point x="104" y="471"/>
      <point x="104" y="481" type="curve" smooth="yes"/>
      <point x="104" y="523"/>
      <point x="119" y="574"/>
      <point x="176" y="574" type="curve" smooth="yes"/>
      <point x="207" y="574"/>
      <point x="220" y="561"/>
      <point x="220" y="561" type="curve"/>
      <point x="238" y="542"/>
      <point x="250" y="526"/>
      <point x="250" y="499" type="curve" smooth="yes"/>
      <point x="250" y="474"/>
      <point x="249" y="460"/>
      <point x="247" y="454" type="curve"/>
    </contour>
  </outline>
</glyph>
<glyph name="guillemetright" format="1">
  <advance width="405"/>
  <unicode hex="00BB"/>
  <outline>
    <contour>
      <point x="58" y="136"/>
      <point x="40" y="110"/>
      <point x="40" y="89" type="curve" smooth="yes"/>
      <point x="40" y="64"/>
      <point x="64" y="51"/>
      <point x="76" y="51" type="curve" smooth="yes"/>
      <point x="86" y="51"/>
      <point x="102" y="63"/>
      <point x="129" y="91" type="curve"/>
      <point x="144" y="105"/>
      <point x="163" y="131"/>
      <point x="175" y="141" type="curve"/>
      <point x="184" y="150"/>
      <point x="202" y="175"/>
      <point x="202" y="199" type="curve" smooth="yes"/>
      <point x="202" y="223"/>
      <point x="187" y="238"/>
      <point x="172" y="253" type="curve" smooth="yes"/>
      <point x="170" y="255"/>
      <point x="157" y="267"/>
      <point x="151" y="274" type="curve"/>
      <point x="138" y="287"/>
      <point x="121" y="304"/>
      <point x="105" y="318" type="curve" smooth="yes"/>
      <point x="93" y="329"/>
      <point x="79" y="335"/>
      <point x="66" y="335" type="curve" smooth="yes"/>
      <point x="50" y="335"/>
      <point x="40" y="323"/>
      <point x="40" y="306" type="curve" smooth="yes"/>
      <point x="40" y="270"/>
      <point x="65" y="248"/>
      <point x="93" y="224" type="curve" smooth="yes"/>
      <point x="103" y="216"/>
      <point x="113" y="207"/>
      <point x="121" y="198" type="curve"/>
      <point x="111" y="185"/>
      <point x="98" y="174"/>
      <point x="86" y="162" type="curve"/>
    </contour>
    <contour>
      <point x="227" y="136"/>
      <point x="209" y="110"/>
      <point x="209" y="89" type="curve" smooth="yes"/>
      <point x="209" y="64"/>
      <point x="232" y="51"/>
      <point x="245" y="51" type="curve" smooth="yes"/>
      <point x="255" y="51"/>
      <point x="271" y="63"/>
      <point x="298" y="91" type="curve" smooth="yes"/>
      <point x="312" y="105"/>
      <point x="328" y="128"/>
      <point x="345" y="143" type="curve"/>
      <point x="355" y="151"/>
      <point x="372" y="175"/>
      <point x="372" y="199" type="curve" smooth="yes"/>
      <point x="372" y="223"/>
      <point x="355" y="238"/>
      <point x="340" y="253" type="curve" smooth="yes"/>
      <point x="338" y="255"/>
      <point x="326" y="267"/>
      <point x="319" y="274" type="curve"/>
      <point x="307" y="287"/>
      <point x="291" y="304"/>
      <point x="274" y="318" type="curve" smooth="yes"/>
      <point x="261" y="329"/>
      <point x="247" y="335"/>
      <point x="234" y="335" type="curve" smooth="yes"/>
      <point x="219" y="335"/>
      <point x="209" y="323"/>
      <point x="209" y="306" type="curve" smooth="yes"/>
      <point x="209" y="270"/>
      <point x="233" y="248"/>
      <point x="262" y="224" type="curve" smooth="yes"/>
      <point x="272" y="216"/>
      <point x="282" y="207"/>
      <point x="290" y="198" type="curve"/>
      <point x="279" y="185"/>
      <point x="266" y="174"/>
      <point x="255" y="162" type="curve"/>
    </contour>
  </outline>
</glyph>
<glyph name="questiondown" format="1">
  <advance width="441"/>
  <unicode hex="00BF"/>
  <outline>
    <contour>
      <point x="98" y="-192"/>
      <point x="153" y="-214"/>
      <point x="206" y="-214" type="curve" smooth="yes"/>
      <point x="341" y="-214"/>
      <point x="421" y="-131"/>
      <point x="421" y="-52" type="curve" smooth="yes"/>
      <point x="421" y="-1"/>
      <point x="403" y="47"/>
      <point x="350" y="47" type="curve" smooth="yes"/>
      <point x="327" y="47"/>
      <point x="316" y="35"/>
      <point x="309" y="19" type="curve" smooth="yes"/>
      <point x="301" y="0"/>
      <point x="310" y="-11"/>
      <point x="317" y="-19" type="curve"/>
      <point x="324" y="-28"/>
      <point x="328" y="-38"/>
      <point x="328" y="-61" type="curve" smooth="yes"/>
      <point x="328" y="-94"/>
      <point x="281" y="-132"/>
      <point x="220" y="-132" type="curve" smooth="yes"/>
      <point x="197" y="-132"/>
      <point x="166" y="-119"/>
      <point x="148" y="-99" type="curve"/>
      <point x="139" y="-88"/>
      <point x="130" y="-78"/>
      <point x="130" y="-54" type="curve" smooth="yes"/>
      <point x="130" y="-34"/>
      <point x="148" y="-6"/>
      <point x="168" y="14" type="curve"/>
      <point x="183" y="31"/>
      <point x="199" y="47"/>
      <point x="210" y="67" type="curve" smooth="yes"/>
      <point x="250" y="137"/>
      <point x="256" y="195"/>
      <point x="256" y="223" type="curve" smooth="yes"/>
      <point x="256" y="265"/>
      <point x="236" y="277"/>
      <point x="212" y="277" type="curve" smooth="yes"/>
      <point x="195" y="277"/>
      <point x="163" y="267"/>
      <point x="163" y="233" type="curve"/>
      <point x="157" y="166"/>
      <point x="157" y="126"/>
      <point x="98" y="64" type="curve" smooth="yes"/>
      <point x="62" y="25"/>
      <point x="36" y="-8"/>
      <point x="36" y="-58" type="curve" smooth="yes"/>
      <point x="36" y="-90"/>
      <point x="47" y="-121"/>
      <point x="67" y="-148" type="curve" smooth="yes"/>
    </contour>
    <contour>
      <point x="242" y="315"/>
      <point x="272" y="338"/>
      <point x="272" y="364" type="curve" smooth="yes"/>
      <point x="272" y="385"/>
      <point x="268" y="406"/>
      <point x="251" y="418" type="curve"/>
      <point x="241" y="424"/>
      <point x="229" y="427"/>
      <point x="216" y="427" type="curve" smooth="yes"/>
      <point x="185" y="427"/>
      <point x="148" y="408"/>
      <point x="148" y="377" type="curve" smooth="yes"/>
      <point x="148" y="361"/>
      <point x="153" y="346"/>
      <point x="164" y="336" type="curve"/>
      <point x="175" y="322"/>
      <point x="193" y="315"/>
      <point x="212" y="315" type="curve" smooth="yes"/>
    </contour>
  </outline>
</glyph>
<glyph name="Acircumflex" format="1">
  <advance width="640"/>
  <unicode hex="00C2"/>
  <outline>
    <contour>
      <point x="538" y="2"/>
      <point x="552" y="-5"/>
      <point x="572" y="-5" type="curve" smooth="yes"/>
      <point x="600" y="-5"/>
      <point x="624" y="10"/>
      <point x="624" y="44" type="curve" smooth="yes"/>
      <point x="624" y="52"/>
      <point x="616" y="67"/>
      <point x="608" y="80" type="curve" smooth="yes"/>
      <point x="562" y="157"/>
      <point x="526" y="260"/>
      <point x="493" y="342" type="curve" smooth="yes"/>
      <point x="457" y="435"/>
      <point x="423" y="526"/>
      <point x="372" y="606" type="curve" smooth="yes"/>
      <point x="355" y="634"/>
      <point x="354" y="639"/>
      <point x="316" y="639" type="curve" smooth="yes"/>
      <point x="292" y="639"/>
      <point x="273" y="625"/>
      <point x="265" y="610" type="curve" smooth="yes"/>
      <point x="176" y="450"/>
      <point x="153" y="372"/>
      <point x="92" y="226" type="curve"/>
      <point x="60" y="157"/>
      <point x="28" y="89"/>
      <point x="16" y="32" type="curve"/>
      <point x="16" y="8"/>
      <point x="49" y="-4"/>
      <point x="75" y="-4" type="curve" smooth="yes"/>
      <point x="92" y="-4"/>
      <point x="104" y="1"/>
      <point x="110" y="11" type="curve" smooth="yes"/>
      <point x="140" y="60"/>
      <point x="148" y="130"/>
      <point x="183" y="173" type="curve"/>
      <point x="247" y="172"/>
      <point x="290" y="166"/>
      <point x="351" y="166" type="curve" smooth="yes"/>
      <point x="382" y="166"/>
      <point x="412" y="169"/>
      <point x="454" y="175" type="curve"/>
      <point x="485" y="129"/>
      <point x="491" y="64"/>
      <point x="528" y="15" type="curve" smooth="yes"/>
    </contour>
    <contour>
      <point x="393" y="249"/>
      <point x="359" y="250"/>
      <point x="319" y="250" type="curve" smooth="yes"/>
      <point x="280" y="250"/>
      <point x="244" y="253"/>
      <point x="204" y="258" type="curve"/>
      <point x="224" y="313"/>
      <point x="240" y="354"/>
      <point x="261" y="394" type="curve" smooth="yes"/>
      <point x="280" y="433"/>
      <point x="300" y="475"/>
      <point x="317" y="518" type="curve"/>
      <point x="342" y="475"/>
      <point x="362" y="424"/>
      <point x="379" y="375" type="curve" smooth="yes"/>
      <point x="392" y="338"/>
      <point x="407" y="294"/>
      <point x="425" y="257" type="curve"/>
    </contour>
    <contour>
      <point x="282" y="838"/>
      <point x="269" y="821"/>
      <point x="262" y="812" type="curve" smooth="yes"/>
      <point x="255" y="803"/>
      <point x="242" y="786"/>
      <point x="213" y="762" type="curve" smooth="yes"/>
      <point x="195" y="747"/>
      <point x="173" y="722"/>
      <point x="173" y="711" type="curve" smooth="yes"/>
      <point x="173" y="701"/>
      <point x="179" y="684"/>
      <point x="203" y="684" type="curve" smooth="yes"/>
      <point x="244" y="684"/>
      <point x="297" y="735"/>
      <point x="320" y="768" type="curve"/>
      <point x="348" y="729"/>
      <point x="386" y="684"/>
      <point x="436" y="684" type="curve" smooth="yes"/>
      <point x="454" y="684"/>
      <point x="466" y="701"/>
      <point x="466" y="711" type="curve" smooth="yes"/>
      <point x="466" y="719"/>
      <point x="463" y="729"/>
      <point x="444" y="743" type="curve" smooth="yes"/>
      <point x="421" y="759"/>
      <point x="391" y="788"/>
      <point x="377" y="808" type="curve" smooth="yes"/>
      <point x="364" y="828"/>
      <point x="350" y="838"/>
      <point x="318" y="838" type="curve" smooth="yes"/>
    </contour>
  </outline>
</glyph>
<glyph name="Atilde" format="1">
  <advance width="640"/>
  <unicode hex="00C3"/>
  <outline>
    <contour>
      <point x="491" y="64"/>
      <point x="485" y="129"/>
      <point x="454" y="175" type="curve"/>
      <point x="412" y="169"/>
      <point x="382" y="166"/>
      <point x="351" y="166" type="curve" smooth="yes"/>
      <point x="290" y="166"/>
      <point x="247" y="172"/>
      <point x="183" y="173" type="curve"/>
      <point x="148" y="130"/>
      <point x="140" y="60"/>
      <point x="110" y="11" type="curve" smooth="yes"/>
      <point x="104" y="1"/>
      <point x="92" y="-4"/>
      <point x="75" y="-4" type="curve" smooth="yes"/>
      <point x="49" y="-4"/>
      <point x="16" y="8"/>
      <point x="16" y="32" type="curve"/>
      <point x="28" y="89"/>
      <point x="60" y="157"/>
      <point x="92" y="226" type="curve"/>
      <point x="153" y="372"/>
      <point x="176" y="450"/>
      <point x="265" y="610" type="curve" smooth="yes"/>
      <point x="273" y="625"/>
      <point x="292" y="639"/>
      <point x="316" y="639" type="curve" smooth="yes"/>
      <point x="354" y="639"/>
      <point x="355" y="634"/>
      <point x="372" y="606" type="curve" smooth="yes"/>
      <point x="423" y="526"/>
      <point x="457" y="435"/>
      <point x="493" y="342" type="curve" smooth="yes"/>
      <point x="526" y="260"/>
      <point x="562" y="157"/>
      <point x="608" y="80" type="curve" smooth="yes"/>
      <point x="616" y="67"/>
      <point x="624" y="52"/>
      <point x="624" y="44" type="curve" smooth="yes"/>
      <point x="624" y="10"/>
      <point x="600" y="-5"/>
      <point x="572" y="-5" type="curve" smooth="yes"/>
      <point x="552" y="-5"/>
      <point x="538" y="2"/>
      <point x="528" y="15" type="curve" smooth="yes"/>
    </contour>
    <contour>
      <point x="407" y="294"/>
      <point x="392" y="338"/>
      <point x="379" y="375" type="curve" smooth="yes"/>
      <point x="362" y="424"/>
      <point x="342" y="475"/>
      <point x="317" y="518" type="curve"/>
      <point x="300" y="475"/>
      <point x="280" y="433"/>
      <point x="261" y="394" type="curve" smooth="yes"/>
      <point x="240" y="354"/>
      <point x="224" y="313"/>
      <point x="204" y="258" type="curve"/>
      <point x="244" y="253"/>
      <point x="280" y="250"/>
      <point x="319" y="250" type="curve" smooth="yes"/>
      <point x="359" y="250"/>
      <point x="393" y="249"/>
      <point x="425" y="257" type="curve"/>
    </contour>
    <contour>
      <point x="151" y="704"/>
      <point x="172" y="694"/>
      <point x="183" y="694" type="curve" smooth="yes"/>
      <point x="199" y="694"/>
      <point x="213" y="701"/>
      <point x="224" y="717" type="curve" smooth="yes"/>
      <point x="236" y="735"/>
      <point x="254" y="741"/>
      <point x="270" y="741" type="curve" smooth="yes"/>
      <point x="303" y="741"/>
      <point x="316" y="696"/>
      <point x="383" y="696" type="curve" smooth="yes"/>
      <point x="429" y="696"/>
      <point x="480" y="739"/>
      <point x="480" y="780" type="curve" smooth="yes"/>
      <point x="480" y="801"/>
      <point x="461" y="810"/>
      <point x="446" y="810" type="curve" smooth="yes"/>
      <point x="430" y="810"/>
      <point x="422" y="802"/>
      <point x="415" y="792" type="curve"/>
      <point x="408" y="781"/>
      <point x="402" y="768"/>
      <point x="385" y="768" type="curve"/>
      <point x="372" y="767"/>
      <point x="357" y="774"/>
      <point x="339" y="787" type="curve" smooth="yes"/>
      <point x="317" y="802"/>
      <point x="291" y="811"/>
      <point x="266" y="811" type="curve" smooth="yes"/>
      <point x="218" y="811"/>
      <point x="151" y="776"/>
      <point x="151" y="723" type="curve" smooth="yes"/>
    </contour>
  </outline>
</glyph>
<glyph name="Aring" format="1">
  <advance width="641"/>
  <unicode hex="00C5"/>
  <outline>
    <contour>
      <point x="539" y="6"/>
      <point x="553" y="0"/>
      <point x="573" y="0" type="curve" smooth="yes"/>
      <point x="601" y="0"/>
      <point x="625" y="14"/>
      <point x="625" y="49" type="curve" smooth="yes"/>
      <point x="625" y="57"/>
      <point x="616" y="72"/>
      <point x="609" y="85" type="curve"/>
      <point x="609" y="85" type="line"/>
      <point x="563" y="162"/>
      <point x="526" y="260"/>
      <point x="493" y="342" type="curve" smooth="yes"/>
      <point x="457" y="435"/>
      <point x="423" y="526"/>
      <point x="372" y="606" type="curve" smooth="yes"/>
      <point x="355" y="634"/>
      <point x="354" y="639"/>
      <point x="316" y="639" type="curve" smooth="yes"/>
      <point x="292" y="639"/>
      <point x="273" y="625"/>
      <point x="265" y="610" type="curve" smooth="yes"/>
      <point x="176" y="450"/>
      <point x="153" y="372"/>
      <point x="92" y="226" type="curve"/>
      <point x="60" y="157"/>
      <point x="28" y="89"/>
      <point x="16" y="32" type="curve"/>
      <point x="18" y="8"/>
      <point x="49" y="-4"/>
      <point x="75" y="-4" type="curve" smooth="yes"/>
      <point x="92" y="-4"/>
      <point x="104" y="1"/>
      <point x="110" y="11" type="curve" smooth="yes"/>
      <point x="140" y="60"/>
      <point x="148" y="130"/>
      <point x="183" y="173" type="curve"/>
      <point x="247" y="172"/>
      <point x="290" y="166"/>
      <point x="351" y="166" type="curve" smooth="yes"/>
      <point x="382" y="166"/>
      <point x="412" y="169"/>
      <point x="454" y="175" type="curve"/>
      <point x="485" y="129"/>
      <point x="492" y="68"/>
      <point x="529" y="20" type="curve"/>
    </contour>
    <contour>
      <point x="393" y="246"/>
      <point x="359" y="247"/>
      <point x="319" y="247" type="curve" smooth="yes"/>
      <point x="280" y="247"/>
      <point x="244" y="249"/>
      <point x="204" y="255" type="curve"/>
      <point x="224" y="310"/>
      <point x="240" y="354"/>
      <point x="261" y="394" type="curve" smooth="yes"/>
      <point x="280" y="433"/>
      <point x="300" y="475"/>
      <point x="317" y="518" type="curve"/>
      <point x="342" y="475"/>
      <point x="362" y="424"/>
      <point x="379" y="375" type="curve" smooth="yes"/>
      <point x="392" y="338"/>
      <point x="407" y="291"/>
      <point x="425" y="254" type="curve"/>
    </contour>
    <contour>
      <point x="338" y="793"/>
      <point x="359" y="770"/>
      <point x="359" y="745" type="curve" smooth="yes"/>
      <point x="359" y="718"/>
      <point x="337" y="709"/>
      <point x="310" y="709" type="curve" smooth="yes"/>
      <point x="288" y="709"/>
      <point x="272" y="726"/>
      <point x="272" y="749" type="curve" smooth="yes"/>
      <point x="272" y="772"/>
      <point x="296" y="793"/>
      <point x="310" y="793" type="curve" smooth="yes"/>
    </contour>
    <contour>
      <point x="365" y="659"/>
      <point x="418" y="706"/>
      <point x="418" y="744" type="curve" smooth="yes"/>
      <point x="418" y="813"/>
      <point x="377" y="843"/>
      <point x="309" y="843" type="curve" smooth="yes"/>
      <point x="257" y="843"/>
      <point x="211" y="790"/>
      <point x="211" y="751" type="curve" smooth="yes"/>
      <point x="211" y="723"/>
      <point x="226" y="701"/>
      <point x="247" y="679" type="curve"/>
      <point x="264" y="663"/>
      <point x="303" y="659"/>
      <point x="328" y="659" type="curve" smooth="yes"/>
    </contour>
  </outline>
</glyph>
<glyph name="AE" format="1">
  <advance width="842"/>
  <unicode hex="00C6"/>
  <outline>
    <contour>
      <point x="552" y="538"/>
      <point x="601" y="540"/>
      <point x="638" y="539" type="curve" smooth="yes"/>
      <point x="700" y="538"/>
      <point x="742" y="532"/>
      <point x="758" y="532" type="curve" smooth="yes"/>
      <point x="786" y="532"/>
      <point x="805" y="548"/>
      <point x="805" y="580" type="curve" smooth="yes"/>
      <point x="805" y="609"/>
      <point x="779" y="619"/>
      <point x="744" y="625" type="curve" smooth="yes"/>
      <point x="681" y="634"/>
      <point x="606" y="635"/>
      <point x="528" y="635" type="curve" smooth="yes"/>
      <point x="475" y="635"/>
      <point x="415" y="632"/>
      <point x="363" y="626" type="curve"/>
      <point x="337" y="624"/>
      <point x="310" y="610"/>
      <point x="301" y="597" type="curve"/>
      <point x="201" y="441"/>
      <point x="56" y="146"/>
      <point x="18" y="51" type="curve"/>
      <point x="10" y="21"/>
      <point x="40" y="-4"/>
      <point x="67" y="-4" type="curve" smooth="yes"/>
      <point x="84" y="-4"/>
      <point x="100" y="1"/>
      <point x="106" y="12" type="curve"/>
      <point x="133" y="54"/>
      <point x="157" y="150"/>
      <point x="187" y="181" type="curve"/>
      <point x="247" y="175"/>
      <point x="331" y="167"/>
      <point x="384" y="174" type="curve"/>
      <point x="384" y="64"/>
      <point x="447" y="0"/>
      <point x="569" y="0" type="curve" smooth="yes"/>
      <point x="654" y="0"/>
      <point x="722" y="4"/>
      <point x="778" y="27" type="curve" smooth="yes"/>
      <point x="803" y="37"/>
      <point x="811" y="45"/>
      <point x="811" y="75" type="curve" smooth="yes"/>
      <point x="811" y="94"/>
      <point x="799" y="117"/>
      <point x="778" y="117" type="curve" smooth="yes"/>
      <point x="723" y="117"/>
      <point x="684" y="97"/>
      <point x="576" y="97" type="curve" smooth="yes"/>
      <point x="493" y="97"/>
      <point x="486" y="137"/>
      <point x="486" y="163" type="curve" smooth="yes"/>
      <point x="486" y="195"/>
      <point x="487" y="236"/>
      <point x="490" y="276" type="curve"/>
      <point x="504" y="275"/>
      <point x="517" y="275"/>
      <point x="533" y="275" type="curve" smooth="yes"/>
      <point x="598" y="275"/>
      <point x="644" y="273"/>
      <point x="691" y="281" type="curve"/>
      <point x="737" y="291"/>
      <point x="744" y="305"/>
      <point x="744" y="335" type="curve" smooth="yes"/>
      <point x="744" y="354"/>
      <point x="729" y="367"/>
      <point x="697" y="367" type="curve" smooth="yes"/>
      <point x="643" y="367"/>
      <point x="593" y="364"/>
      <point x="531" y="364" type="curve" smooth="yes"/>
      <point x="517" y="364"/>
      <point x="502" y="364"/>
      <point x="490" y="366" type="curve"/>
      <point x="490" y="402"/>
      <point x="490" y="465"/>
      <point x="503" y="535" type="curve"/>
    </contour>
    <contour>
      <point x="405" y="530" type="line"/>
      <point x="390" y="413"/>
      <point x="385" y="331"/>
      <point x="385" y="255" type="curve"/>
      <point x="340" y="256"/>
      <point x="268" y="253"/>
      <point x="225" y="258" type="curve"/>
      <point x="259" y="352"/>
      <point x="337" y="489"/>
      <point x="368" y="525" type="curve"/>
    </contour>
  </outline>
</glyph>
<glyph name="Egrave" format="1">
  <advance width="552"/>
  <unicode hex="00C8"/>
  <outline>
    <contour>
      <point x="462" y="136"/>
      <point x="442" y="130"/>
      <point x="418" y="121" type="curve"/>
      <point x="382" y="110"/>
      <point x="335" y="94"/>
      <point x="259" y="94" type="curve" smooth="yes"/>
      <point x="174" y="94"/>
      <point x="165" y="138"/>
      <point x="165" y="165" type="curve" smooth="yes"/>
      <point x="165" y="197"/>
      <point x="166" y="237"/>
      <point x="168" y="278" type="curve"/>
      <point x="183" y="277"/>
      <point x="200" y="276"/>
      <point x="215" y="276" type="curve" smooth="yes"/>
      <point x="281" y="276"/>
      <point x="355" y="282"/>
      <point x="402" y="291" type="curve" smooth="yes"/>
      <point x="442" y="299"/>
      <point x="454" y="315"/>
      <point x="454" y="343" type="curve" smooth="yes"/>
      <point x="454" y="361"/>
      <point x="439" y="373"/>
      <point x="409" y="373" type="curve" smooth="yes"/>
      <point x="382" y="373"/>
      <point x="350" y="371"/>
      <point x="318" y="368" type="curve" smooth="yes"/>
      <point x="271" y="364"/>
      <point x="221" y="358"/>
      <point x="172" y="364" type="curve"/>
      <point x="172" y="402"/>
      <point x="177" y="450"/>
      <point x="186" y="516" type="curve"/>
      <point x="189" y="532"/>
      <point x="204" y="537"/>
      <point x="240" y="540" type="curve"/>
      <point x="256" y="542"/>
      <point x="274" y="543"/>
      <point x="289" y="543" type="curve" smooth="yes"/>
      <point x="347" y="543"/>
      <point x="405" y="535"/>
      <point x="465" y="535" type="curve" smooth="yes"/>
      <point x="505" y="535"/>
      <point x="519" y="573"/>
      <point x="519" y="593" type="curve" smooth="yes"/>
      <point x="519" y="620"/>
      <point x="493" y="626"/>
      <point x="460" y="632" type="curve"/>
      <point x="436" y="635"/>
      <point x="405" y="635"/>
      <point x="382" y="635" type="curve" smooth="yes"/>
      <point x="359" y="635"/>
      <point x="328" y="634"/>
      <point x="295" y="634" type="curve" smooth="yes"/>
      <point x="260" y="633"/>
      <point x="223" y="632"/>
      <point x="194" y="632" type="curve" smooth="yes"/>
      <point x="153" y="632"/>
      <point x="98" y="611"/>
      <point x="88" y="541" type="curve" smooth="yes"/>
      <point x="67" y="390"/>
      <point x="61" y="310"/>
      <point x="61" y="213" type="curve" smooth="yes"/>
      <point x="61" y="112"/>
      <point x="61" y="-1"/>
      <point x="252" y="-1" type="curve" smooth="yes"/>
      <point x="351" y="-1"/>
      <point x="436" y="18"/>
      <point x="489" y="43" type="curve" smooth="yes"/>
      <point x="511" y="54"/>
      <point x="520" y="60"/>
      <point x="520" y="90" type="curve" smooth="yes"/>
      <point x="520" y="109"/>
      <point x="510" y="136"/>
      <point x="482" y="136" type="curve" smooth="yes"/>
    </contour>
    <contour>
      <point x="194" y="864"/>
      <point x="175" y="851"/>
      <point x="175" y="832" type="curve" smooth="yes"/>
      <point x="175" y="790"/>
      <point x="231" y="752"/>
      <point x="254" y="738" type="curve" smooth="yes"/>
      <point x="276" y="724"/>
      <point x="316" y="717"/>
      <point x="329" y="717" type="curve" smooth="yes"/>
      <point x="343" y="717"/>
      <point x="349" y="726"/>
      <point x="349" y="737" type="curve" smooth="yes"/>
      <point x="349" y="746"/>
      <point x="343" y="751"/>
      <point x="329" y="763" type="curve"/>
      <point x="315" y="776"/>
      <point x="302" y="782"/>
      <point x="283" y="821" type="curve" smooth="yes"/>
      <point x="267" y="854"/>
      <point x="249" y="864"/>
      <point x="222" y="864" type="curve" smooth="yes"/>
    </contour>
  </outline>
</glyph>
<glyph name="Igrave" format="1">
  <advance width="373"/>
  <unicode hex="00CC"/>
  <outline>
    <contour>
      <point x="253" y="553" type="line"/>
      <point x="307" y="553"/>
      <point x="323" y="562"/>
      <point x="323" y="608" type="curve" smooth="yes"/>
      <point x="323" y="631"/>
      <point x="254" y="630"/>
      <point x="184" y="630" type="curve" smooth="yes"/>
      <point x="108" y="630"/>
      <point x="45" y="625"/>
      <point x="45" y="586" type="curve" smooth="yes"/>
      <point x="45" y="552"/>
      <point x="54" y="545"/>
      <point x="82" y="545" type="curve" smooth="yes"/>
      <point x="90" y="545"/>
      <point x="101" y="545"/>
      <point x="135" y="547" type="curve"/>
      <point x="133" y="492" type="line" smooth="yes"/>
      <point x="131" y="442"/>
      <point x="130" y="387"/>
      <point x="130" y="374" type="curve" smooth="yes"/>
      <point x="130" y="319"/>
      <point x="132" y="262"/>
      <point x="136" y="198" type="curve" smooth="yes"/>
      <point x="141" y="80" type="line"/>
      <point x="119" y="81"/>
      <point x="112" y="82"/>
      <point x="108" y="82" type="curve"/>
      <point x="76" y="84"/>
      <point x="45" y="85"/>
      <point x="45" y="54" type="curve" smooth="yes"/>
      <point x="45" y="9"/>
      <point x="73" y="0"/>
      <point x="193" y="0" type="curve" smooth="yes"/>
      <point x="302" y="0"/>
      <point x="332" y="8"/>
      <point x="332" y="38" type="curve" smooth="yes"/>
      <point x="332" y="71"/>
      <point x="311" y="83"/>
      <point x="284" y="83" type="curve" smooth="yes"/>
      <point x="274" y="83"/>
      <point x="267" y="81"/>
      <point x="245" y="78" type="curve"/>
      <point x="245" y="193"/>
      <point x="230" y="309"/>
      <point x="230" y="429" type="curve" smooth="yes"/>
      <point x="230" y="470"/>
      <point x="231" y="509"/>
      <point x="233" y="552" type="curve"/>
    </contour>
    <contour>
      <point x="95" y="864"/>
      <point x="76" y="851"/>
      <point x="76" y="832" type="curve" smooth="yes"/>
      <point x="76" y="790"/>
      <point x="132" y="752"/>
      <point x="155" y="738" type="curve" smooth="yes"/>
      <point x="177" y="724"/>
      <point x="217" y="717"/>
      <point x="230" y="717" type="curve" smooth="yes"/>
      <point x="244" y="717"/>
      <point x="250" y="726"/>
      <point x="250" y="737" type="curve" smooth="yes"/>
      <point x="250" y="746"/>
      <point x="244" y="751"/>
      <point x="230" y="763" type="curve"/>
      <point x="216" y="776"/>
      <point x="203" y="782"/>
      <point x="184" y="821" type="curve" smooth="yes"/>
      <point x="168" y="854"/>
      <point x="150" y="864"/>
      <point x="123" y="864" type="curve" smooth="yes"/>
    </contour>
  </outline>
</glyph>
<glyph name="Idieresis" format="1">
  <advance width="373"/>
  <unicode hex="00CF"/>
  <outline>
    <contour>
      <point x="253" y="553" type="line"/>
      <point x="307" y="553"/>
      <point x="323" y="562"/>
      <point x="323" y="608" type="curve" smooth="yes"/>
      <point x="323" y="631"/>
      <point x="254" y="630"/>
      <point x="184" y="630" type="curve" smooth="yes"/>
      <point x="108" y="630"/>
      <point x="45" y="625"/>
      <point x="45" y="586" type="curve" smooth="yes"/>
      <point x="45" y="552"/>
      <point x="54" y="545"/>
      <point x="82" y="545" type="curve" smooth="yes"/>
      <point x="90" y="545"/>
      <point x="101" y="545"/>
      <point x="135" y="547" type="curve"/>
      <point x="133" y="492" type="line" smooth="yes"/>
      <point x="131" y="442"/>
      <point x="130" y="387"/>
      <point x="130" y="374" type="curve" smooth="yes"/>
      <point x="130" y="319"/>
      <point x="132" y="262"/>
      <point x="136" y="198" type="curve" smooth="yes"/>
      <point x="141" y="80" type="line"/>
      <point x="119" y="81"/>
      <point x="112" y="82"/>
      <point x="108" y="82" type="curve"/>
      <point x="76" y="84"/>
      <point x="45" y="85"/>
      <point x="45" y="54" type="curve" smooth="yes"/>
      <point x="45" y="9"/>
      <point x="73" y="0"/>
      <point x="193" y="0" type="curve" smooth="yes"/>
      <point x="302" y="0"/>
      <point x="332" y="8"/>
      <point x="332" y="38" type="curve" smooth="yes"/>
      <point x="332" y="71"/>
      <point x="311" y="83"/>
      <point x="284" y="83" type="curve" smooth="yes"/>
      <point x="274" y="83"/>
      <point x="267" y="81"/>
      <point x="245" y="78" type="curve"/>
      <point x="245" y="193"/>
      <point x="230" y="309"/>
      <point x="230" y="429" type="curve" smooth="yes"/>
      <point x="230" y="470"/>
      <point x="231" y="509"/>
      <point x="233" y="552" type="curve"/>
    </contour>
    <contour>
      <point x="50" y="834"/>
      <point x="49" y="796"/>
      <point x="49" y="776" type="curve" smooth="yes"/>
      <point x="49" y="763"/>
      <point x="55" y="737"/>
      <point x="92" y="737" type="curve" smooth="yes"/>
      <point x="124" y="737"/>
      <point x="150" y="752"/>
      <point x="150" y="778" type="curve" smooth="yes"/>
      <point x="150" y="817"/>
      <point x="113" y="831"/>
      <point x="81" y="832" type="curve" smooth="yes"/>
    </contour>
    <contour>
      <point x="218" y="834"/>
      <point x="217" y="796"/>
      <point x="217" y="776" type="curve" smooth="yes"/>
      <point x="217" y="763"/>
      <point x="223" y="737"/>
      <point x="260" y="737" type="curve" smooth="yes"/>
      <point x="293" y="737"/>
      <point x="318" y="752"/>
      <point x="318" y="778" type="curve" smooth="yes"/>
      <point x="318" y="817"/>
      <point x="281" y="831"/>
      <point x="250" y="832" type="curve" smooth="yes"/>
    </contour>
  </outline>
</glyph>
<glyph name="Eth" format="1">
  <advance width="680"/>
  <unicode hex="00D0"/>
  <outline>
    <contour>
      <point x="217" y="634"/>
      <point x="201" y="638"/>
      <point x="173" y="638" type="curve" smooth="yes"/>
      <point x="145" y="638"/>
      <point x="108" y="617"/>
      <point x="108" y="586" type="curve" smooth="yes"/>
      <point x="108" y="544"/>
      <point x="121" y="476"/>
      <point x="127" y="360" type="curve"/>
      <point x="117" y="361"/>
      <point x="109" y="362"/>
      <point x="103" y="362" type="curve" smooth="yes"/>
      <point x="67" y="362"/>
      <point x="50" y="347"/>
      <point x="50" y="324" type="curve" smooth="yes"/>
      <point x="50" y="277"/>
      <point x="85" y="270"/>
      <point x="121" y="270" type="curve" smooth="yes"/>
      <point x="130" y="270" type="line"/>
      <point x="130" y="238" type="line" smooth="yes"/>
      <point x="130" y="191"/>
      <point x="126" y="136"/>
      <point x="123" y="96" type="curve"/>
      <point x="104" y="102"/>
      <point x="69" y="96"/>
      <point x="69" y="68" type="curve" smooth="yes"/>
      <point x="69" y="12"/>
      <point x="177" y="-1"/>
      <point x="247" y="-1" type="curve" smooth="yes"/>
      <point x="436" y="-1"/>
      <point x="499" y="55"/>
      <point x="562" y="114" type="curve" smooth="yes"/>
      <point x="612" y="162"/>
      <point x="644" y="241"/>
      <point x="644" y="307" type="curve" smooth="yes"/>
      <point x="644" y="410"/>
      <point x="605" y="472"/>
      <point x="571" y="513" type="curve" smooth="yes"/>
      <point x="535" y="554"/>
      <point x="445" y="634"/>
      <point x="235" y="634" type="curve" smooth="yes"/>
    </contour>
    <contour>
      <point x="226" y="139"/>
      <point x="229" y="203"/>
      <point x="229" y="258" type="curve" smooth="yes"/>
      <point x="229" y="271" type="line"/>
      <point x="259" y="271"/>
      <point x="286" y="272"/>
      <point x="298" y="274" type="curve"/>
      <point x="343" y="278"/>
      <point x="362" y="290"/>
      <point x="362" y="311" type="curve" smooth="yes"/>
      <point x="362" y="346"/>
      <point x="337" y="364"/>
      <point x="309" y="364" type="curve" smooth="yes"/>
      <point x="294" y="364"/>
      <point x="259" y="361"/>
      <point x="226" y="359" type="curve"/>
      <point x="223" y="436"/>
      <point x="218" y="511"/>
      <point x="218" y="551" type="curve"/>
      <point x="451" y="551"/>
      <point x="539" y="461"/>
      <point x="539" y="308" type="curve" smooth="yes"/>
      <point x="539" y="175"/>
      <point x="411" y="86"/>
      <point x="283" y="86" type="curve" smooth="yes"/>
      <point x="262" y="86"/>
      <point x="238" y="85"/>
      <point x="217" y="90" type="curve"/>
    </contour>
  </outline>
</glyph>
<glyph name="Ntilde" format="1">
  <advance width="675"/>
  <unicode hex="00D1"/>
  <outline>
    <contour>
      <point x="490" y="596"/>
      <point x="505" y="634"/>
      <point x="544" y="634" type="curve" smooth="yes"/>
      <point x="569" y="634"/>
      <point x="603" y="626"/>
      <point x="603" y="595" type="curve" smooth="yes"/>
      <point x="603" y="517"/>
      <point x="595" y="445"/>
      <point x="595" y="373" type="curve" smooth="yes"/>
      <point x="595" y="253"/>
      <point x="606" y="155"/>
      <point x="602" y="48" type="curve"/>
      <point x="602" y="31"/>
      <point x="584" y="1"/>
      <point x="531" y="1" type="curve" smooth="yes"/>
      <point x="502" y="1"/>
      <point x="485" y="14"/>
      <point x="480" y="22" type="curve"/>
      <point x="437" y="75"/>
      <point x="390" y="145"/>
      <point x="343" y="216" type="curve" smooth="yes"/>
      <point x="292" y="293"/>
      <point x="233" y="380"/>
      <point x="178" y="450" type="curve"/>
      <point x="184" y="396"/>
      <point x="186" y="335"/>
      <point x="186" y="274" type="curve" smooth="yes"/>
      <point x="186" y="233"/>
      <point x="185" y="93"/>
      <point x="180" y="58" type="curve" smooth="yes"/>
      <point x="175" y="22"/>
      <point x="161" y="-2"/>
      <point x="120" y="-2" type="curve" smooth="yes"/>
      <point x="91" y="-2"/>
      <point x="78" y="12"/>
      <point x="75" y="54" type="curve"/>
      <point x="73" y="130"/>
      <point x="85" y="205"/>
      <point x="85" y="279" type="curve" smooth="yes"/>
      <point x="85" y="387"/>
      <point x="72" y="483"/>
      <point x="72" y="582" type="curve" smooth="yes"/>
      <point x="72" y="616"/>
      <point x="103" y="632"/>
      <point x="130" y="632" type="curve" smooth="yes"/>
      <point x="143" y="632"/>
      <point x="159" y="628"/>
      <point x="172" y="622" type="curve"/>
      <point x="248" y="527"/>
      <point x="331" y="408"/>
      <point x="405" y="300" type="curve" smooth="yes"/>
      <point x="499" y="156" type="line"/>
      <point x="500" y="172"/>
      <point x="500" y="190"/>
      <point x="500" y="201" type="curve" smooth="yes"/>
      <point x="500" y="330"/>
      <point x="490" y="446"/>
      <point x="490" y="562" type="curve" smooth="yes"/>
    </contour>
    <contour>
      <point x="171" y="726"/>
      <point x="192" y="716"/>
      <point x="203" y="716" type="curve" smooth="yes"/>
      <point x="219" y="716"/>
      <point x="233" y="723"/>
      <point x="244" y="739" type="curve" smooth="yes"/>
      <point x="256" y="757"/>
      <point x="274" y="763"/>
      <point x="290" y="763" type="curve" smooth="yes"/>
      <point x="323" y="763"/>
      <point x="336" y="718"/>
      <point x="403" y="718" type="curve" smooth="yes"/>
      <point x="449" y="718"/>
      <point x="500" y="761"/>
      <point x="500" y="802" type="curve" smooth="yes"/>
      <point x="500" y="823"/>
      <point x="481" y="832"/>
      <point x="466" y="832" type="curve" smooth="yes"/>
      <point x="450" y="832"/>
      <point x="442" y="824"/>
      <point x="435" y="814" type="curve"/>
      <point x="428" y="803"/>
      <point x="422" y="790"/>
      <point x="405" y="790" type="curve"/>
      <point x="392" y="789"/>
      <point x="377" y="796"/>
      <point x="359" y="809" type="curve" smooth="yes"/>
      <point x="337" y="824"/>
      <point x="311" y="833"/>
      <point x="286" y="833" type="curve" smooth="yes"/>
      <point x="238" y="833"/>
      <point x="171" y="798"/>
      <point x="171" y="745" type="curve" smooth="yes"/>
    </contour>
  </outline>
</glyph>
<glyph name="Ograve" format="1">
  <advance width="725"/>
  <unicode hex="00D2"/>
  <outline>
    <contour>
      <point x="300" y="636"/>
      <point x="238" y="611"/>
      <point x="190" y="582" type="curve"/>
      <point x="106" y="527"/>
      <point x="52" y="426"/>
      <point x="52" y="287" type="curve" smooth="yes"/>
      <point x="52" y="236"/>
      <point x="69" y="181"/>
      <point x="100" y="132" type="curve" smooth="yes"/>
      <point x="158" y="39"/>
      <point x="256" y="0"/>
      <point x="375" y="0" type="curve" smooth="yes"/>
      <point x="455" y="0"/>
      <point x="591" y="66"/>
      <point x="632" y="139" type="curve"/>
      <point x="640" y="180"/>
      <point x="673" y="220"/>
      <point x="673" y="274" type="curve" smooth="yes"/>
      <point x="673" y="412"/>
      <point x="645" y="494"/>
      <point x="559" y="571" type="curve" smooth="yes"/>
      <point x="511" y="615"/>
      <point x="434" y="636"/>
      <point x="347" y="636" type="curve" smooth="yes"/>
    </contour>
    <contour>
      <point x="156" y="407"/>
      <point x="226" y="536"/>
      <point x="355" y="536" type="curve" smooth="yes"/>
      <point x="405" y="536"/>
      <point x="457" y="526"/>
      <point x="490" y="499" type="curve" smooth="yes"/>
      <point x="549" y="452"/>
      <point x="568" y="400"/>
      <point x="568" y="300" type="curve" smooth="yes"/>
      <point x="568" y="170"/>
      <point x="480" y="94"/>
      <point x="347" y="94" type="curve" smooth="yes"/>
      <point x="319" y="94"/>
      <point x="301" y="102"/>
      <point x="256" y="119" type="curve"/>
      <point x="198" y="166"/>
      <point x="155" y="206"/>
      <point x="156" y="287" type="curve" smooth="yes"/>
    </contour>
    <contour>
      <point x="286" y="834"/>
      <point x="267" y="821"/>
      <point x="267" y="802" type="curve" smooth="yes"/>
      <point x="267" y="760"/>
      <point x="323" y="722"/>
      <point x="346" y="708" type="curve" smooth="yes"/>
      <point x="368" y="694"/>
      <point x="408" y="687"/>
      <point x="421" y="687" type="curve" smooth="yes"/>
      <point x="435" y="687"/>
      <point x="441" y="696"/>
      <point x="441" y="707" type="curve" smooth="yes"/>
      <point x="441" y="716"/>
      <point x="435" y="721"/>
      <point x="421" y="733" type="curve"/>
      <point x="407" y="746"/>
      <point x="394" y="752"/>
      <point x="375" y="791" type="curve" smooth="yes"/>
      <point x="359" y="824"/>
      <point x="341" y="834"/>
      <point x="314" y="834" type="curve" smooth="yes"/>
    </contour>
  </outline>
</glyph>
<glyph name="Oacute" format="1">
  <advance width="725"/>
  <unicode hex="00D3"/>
  <outline>
    <contour>
      <point x="300" y="636"/>
      <point x="238" y="611"/>
      <point x="190" y="582" type="curve"/>
      <point x="106" y="527"/>
      <point x="52" y="426"/>
      <point x="52" y="287" type="curve" smooth="yes"/>
      <point x="52" y="236"/>
      <point x="69" y="181"/>
      <point x="100" y="132" type="curve" smooth="yes"/>
      <point x="158" y="39"/>
      <point x="256" y="0"/>
      <point x="375" y="0" type="curve" smooth="yes"/>
      <point x="455" y="0"/>
      <point x="591" y="66"/>
      <point x="632" y="139" type="curve"/>
      <point x="640" y="180"/>
      <point x="673" y="220"/>
      <point x="673" y="274" type="curve" smooth="yes"/>
      <point x="673" y="412"/>
      <point x="645" y="494"/>
      <point x="559" y="571" type="curve" smooth="yes"/>
      <point x="511" y="615"/>
      <point x="434" y="636"/>
      <point x="347" y="636" type="curve" smooth="yes"/>
    </contour>
    <contour>
      <point x="156" y="407"/>
      <point x="226" y="536"/>
      <point x="355" y="536" type="curve" smooth="yes"/>
      <point x="405" y="536"/>
      <point x="457" y="526"/>
      <point x="490" y="499" type="curve" smooth="yes"/>
      <point x="549" y="452"/>
      <point x="568" y="400"/>
      <point x="568" y="300" type="curve" smooth="yes"/>
      <point x="568" y="170"/>
      <point x="480" y="94"/>
      <point x="347" y="94" type="curve" smooth="yes"/>
      <point x="319" y="94"/>
      <point x="301" y="102"/>
      <point x="256" y="119" type="curve"/>
      <point x="198" y="166"/>
      <point x="155" y="206"/>
      <point x="156" y="287" type="curve" smooth="yes"/>
    </contour>
    <contour>
      <point x="379" y="844"/>
      <point x="360" y="834"/>
      <point x="344" y="801" type="curve" smooth="yes"/>
      <point x="326" y="762"/>
      <point x="312" y="756"/>
      <point x="299" y="743" type="curve"/>
      <point x="284" y="731"/>
      <point x="278" y="726"/>
      <point x="278" y="717" type="curve" smooth="yes"/>
      <point x="278" y="706"/>
      <point x="284" y="697"/>
      <point x="299" y="697" type="curve" smooth="yes"/>
      <point x="311" y="697"/>
      <point x="351" y="704"/>
      <point x="373" y="718" type="curve"/>
      <point x="397" y="732"/>
      <point x="452" y="770"/>
      <point x="452" y="812" type="curve" smooth="yes"/>
      <point x="452" y="831"/>
      <point x="434" y="844"/>
      <point x="406" y="844" type="curve" smooth="yes"/>
    </contour>
  </outline>
</glyph>
<glyph name="Ocircumflex" format="1">
  <advance width="725"/>
  <unicode hex="00D4"/>
  <outline>
    <contour>
      <point x="300" y="636"/>
      <point x="238" y="611"/>
      <point x="190" y="582" type="curve"/>
      <point x="106" y="527"/>
      <point x="52" y="426"/>
      <point x="52" y="287" type="curve" smooth="yes"/>
      <point x="52" y="236"/>
      <point x="69" y="181"/>
      <point x="100" y="132" type="curve" smooth="yes"/>
      <point x="158" y="39"/>
      <point x="256" y="0"/>
      <point x="375" y="0" type="curve" smooth="yes"/>
      <point x="455" y="0"/>
      <point x="591" y="66"/>
      <point x="632" y="139" type="curve"/>
      <point x="640" y="180"/>
      <point x="673" y="220"/>
      <point x="673" y="274" type="curve" smooth="yes"/>
      <point x="673" y="412"/>
      <point x="645" y="494"/>
      <point x="559" y="571" type="curve" smooth="yes"/>
      <point x="511" y="615"/>
      <point x="434" y="636"/>
      <point x="347" y="636" type="curve" smooth="yes"/>
    </contour>
    <contour>
      <point x="156" y="407"/>
      <point x="226" y="536"/>
      <point x="355" y="536" type="curve" smooth="yes"/>
      <point x="405" y="536"/>
      <point x="457" y="526"/>
      <point x="490" y="499" type="curve" smooth="yes"/>
      <point x="549" y="452"/>
      <point x="568" y="400"/>
      <point x="568" y="300" type="curve" smooth="yes"/>
      <point x="568" y="170"/>
      <point x="480" y="94"/>
      <point x="347" y="94" type="curve" smooth="yes"/>
      <point x="319" y="94"/>
      <point x="301" y="102"/>
      <point x="256" y="119" type="curve"/>
      <point x="198" y="166"/>
      <point x="155" y="206"/>
      <point x="156" y="287" type="curve" smooth="yes"/>
    </contour>
    <contour>
      <point x="335" y="840"/>
      <point x="322" y="823"/>
      <point x="315" y="814" type="curve" smooth="yes"/>
      <point x="308" y="805"/>
      <point x="295" y="788"/>
      <point x="266" y="764" type="curve" smooth="yes"/>
      <point x="248" y="749"/>
      <point x="226" y="724"/>
      <point x="226" y="713" type="curve" smooth="yes"/>
      <point x="226" y="703"/>
      <point x="232" y="686"/>
      <point x="256" y="686" type="curve" smooth="yes"/>
      <point x="297" y="686"/>
      <point x="350" y="737"/>
      <point x="373" y="770" type="curve"/>
      <point x="401" y="731"/>
      <point x="439" y="686"/>
      <point x="489" y="686" type="curve" smooth="yes"/>
      <point x="507" y="686"/>
      <point x="519" y="703"/>
      <point x="519" y="713" type="curve" smooth="yes"/>
      <point x="519" y="721"/>
      <point x="516" y="731"/>
      <point x="497" y="745" type="curve" smooth="yes"/>
      <point x="474" y="761"/>
      <point x="444" y="790"/>
      <point x="430" y="810" type="curve" smooth="yes"/>
      <point x="417" y="830"/>
      <point x="403" y="840"/>
      <point x="371" y="840" type="curve" smooth="yes"/>
    </contour>
  </outline>
</glyph>
<glyph name="Otilde" format="1">
  <advance width="725"/>
  <unicode hex="00D5"/>
  <outline>
    <contour>
      <point x="434" y="636"/>
      <point x="511" y="615"/>
      <point x="559" y="571" type="curve" smooth="yes"/>
      <point x="645" y="494"/>
      <point x="673" y="412"/>
      <point x="673" y="274" type="curve" smooth="yes"/>
      <point x="673" y="220"/>
      <point x="640" y="180"/>
      <point x="632" y="139" type="curve"/>
      <point x="591" y="66"/>
      <point x="455" y="0"/>
      <point x="375" y="0" type="curve" smooth="yes"/>
      <point x="256" y="0"/>
      <point x="158" y="39"/>
      <point x="100" y="132" type="curve" smooth="yes"/>
      <point x="69" y="181"/>
      <point x="52" y="236"/>
      <point x="52" y="287" type="curve" smooth="yes"/>
      <point x="52" y="426"/>
      <point x="106" y="527"/>
      <point x="190" y="582" type="curve"/>
      <point x="238" y="611"/>
      <point x="300" y="636"/>
      <point x="347" y="636" type="curve" smooth="yes"/>
    </contour>
    <contour>
      <point x="155" y="206"/>
      <point x="198" y="166"/>
      <point x="256" y="119" type="curve"/>
      <point x="301" y="102"/>
      <point x="319" y="94"/>
      <point x="347" y="94" type="curve" smooth="yes"/>
      <point x="480" y="94"/>
      <point x="568" y="170"/>
      <point x="568" y="300" type="curve" smooth="yes"/>
      <point x="568" y="400"/>
      <point x="549" y="452"/>
      <point x="490" y="499" type="curve" smooth="yes"/>
      <point x="457" y="526"/>
      <point x="405" y="536"/>
      <point x="355" y="536" type="curve" smooth="yes"/>
      <point x="226" y="536"/>
      <point x="156" y="407"/>
      <point x="156" y="287" type="curve" smooth="yes"/>
    </contour>
    <contour>
      <point x="202" y="706"/>
      <point x="223" y="696"/>
      <point x="234" y="696" type="curve" smooth="yes"/>
      <point x="250" y="696"/>
      <point x="264" y="703"/>
      <point x="275" y="719" type="curve" smooth="yes"/>
      <point x="287" y="737"/>
      <point x="305" y="743"/>
      <point x="321" y="743" type="curve" smooth="yes"/>
      <point x="354" y="743"/>
      <point x="367" y="698"/>
      <point x="434" y="698" type="curve" smooth="yes"/>
      <point x="480" y="698"/>
      <point x="531" y="741"/>
      <point x="531" y="782" type="curve" smooth="yes"/>
      <point x="531" y="803"/>
      <point x="512" y="812"/>
      <point x="497" y="812" type="curve" smooth="yes"/>
      <point x="481" y="812"/>
      <point x="473" y="804"/>
      <point x="466" y="794" type="curve"/>
      <point x="459" y="783"/>
      <point x="453" y="770"/>
      <point x="436" y="770" type="curve"/>
      <point x="423" y="769"/>
      <point x="408" y="776"/>
      <point x="390" y="789" type="curve" smooth="yes"/>
      <point x="368" y="804"/>
      <point x="342" y="813"/>
      <point x="317" y="813" type="curve" smooth="yes"/>
      <point x="269" y="813"/>
      <point x="202" y="778"/>
      <point x="202" y="725" type="curve" smooth="yes"/>
    </contour>
  </outline>
</glyph>
<glyph name="multiply" format="1">
  <advance width="489"/>
  <unicode hex="00D7"/>
  <outline>
    <contour>
      <point x="373" y="176"/>
      <point x="331" y="196"/>
      <point x="299" y="230" type="curve"/>
      <point x="330" y="272"/>
      <point x="372" y="304"/>
      <point x="411" y="329" type="curve"/>
      <point x="419" y="335"/>
      <point x="426" y="342"/>
      <point x="426" y="365" type="curve" smooth="yes"/>
      <point x="426" y="390"/>
      <point x="400" y="403"/>
      <point x="376" y="403" type="curve" smooth="yes"/>
      <point x="352" y="403"/>
      <point x="322" y="374"/>
      <point x="281" y="332" type="curve"/>
      <point x="263" y="316"/>
      <point x="252" y="305"/>
      <point x="238" y="289" type="curve"/>
      <point x="210" y="306"/>
      <point x="164" y="366"/>
      <point x="136" y="392" type="curve"/>
      <point x="128" y="400"/>
      <point x="115" y="409"/>
      <point x="102" y="409" type="curve" smooth="yes"/>
      <point x="73" y="409"/>
      <point x="49" y="383"/>
      <point x="49" y="364" type="curve" smooth="yes"/>
      <point x="49" y="344"/>
      <point x="74" y="317"/>
      <point x="94" y="298" type="curve"/>
      <point x="124" y="274"/>
      <point x="148" y="255"/>
      <point x="171" y="228" type="curve"/>
      <point x="159" y="204"/>
      <point x="138" y="186"/>
      <point x="116" y="167" type="curve" smooth="yes"/>
      <point x="99" y="153"/>
      <point x="83" y="138"/>
      <point x="68" y="122" type="curve"/>
      <point x="54" y="103"/>
      <point x="45" y="87"/>
      <point x="45" y="71" type="curve" smooth="yes"/>
      <point x="45" y="49"/>
      <point x="70" y="34"/>
      <point x="90" y="34" type="curve" smooth="yes"/>
      <point x="112" y="34"/>
      <point x="123" y="45"/>
      <point x="136" y="59" type="curve" smooth="yes"/>
      <point x="157" y="81"/>
      <point x="173" y="97"/>
      <point x="189" y="119" type="curve"/>
      <point x="207" y="139"/>
      <point x="220" y="157"/>
      <point x="238" y="169" type="curve"/>
      <point x="247" y="157"/>
      <point x="259" y="148"/>
      <point x="274" y="139" type="curve" smooth="yes"/>
      <point x="288" y="130"/>
      <point x="367" y="45"/>
      <point x="397" y="45" type="curve" smooth="yes"/>
      <point x="421" y="45"/>
      <point x="444" y="62"/>
      <point x="444" y="85" type="curve" smooth="yes"/>
      <point x="444" y="111"/>
      <point x="420" y="130"/>
      <point x="408" y="142" type="curve" smooth="yes"/>
    </contour>
  </outline>
</glyph>
<glyph name="Oslash" format="1">
  <advance width="725"/>
  <unicode hex="00D8"/>
  <outline>
    <contour>
      <point x="300" y="636"/>
      <point x="238" y="611"/>
      <point x="190" y="582" type="curve"/>
      <point x="106" y="527"/>
      <point x="52" y="426"/>
      <point x="52" y="287" type="curve" smooth="yes"/>
      <point x="52" y="236"/>
      <point x="69" y="181"/>
      <point x="100" y="132" type="curve" smooth="yes"/>
      <point x="110" y="115"/>
      <point x="121" y="101"/>
      <point x="134" y="87" type="curve"/>
      <point x="121" y="69"/>
      <point x="109" y="51"/>
      <point x="92" y="27" type="curve"/>
      <point x="88" y="22"/>
      <point x="86" y="16"/>
      <point x="86" y="7" type="curve" smooth="yes"/>
      <point x="86" y="-14"/>
      <point x="112" y="-31"/>
      <point x="132" y="-31" type="curve" smooth="yes"/>
      <point x="139" y="-31"/>
      <point x="148" y="-25"/>
      <point x="153" y="-19" type="curve"/>
      <point x="159" y="-8"/>
      <point x="175" y="13"/>
      <point x="194" y="41" type="curve"/>
      <point x="246" y="13"/>
      <point x="306" y="0"/>
      <point x="375" y="0" type="curve" smooth="yes"/>
      <point x="455" y="0"/>
      <point x="591" y="66"/>
      <point x="632" y="139" type="curve"/>
      <point x="640" y="180"/>
      <point x="673" y="220"/>
      <point x="673" y="274" type="curve" smooth="yes"/>
      <point x="673" y="400"/>
      <point x="650" y="481"/>
      <point x="579" y="553" type="curve"/>
      <point x="580" y="555"/>
      <point x="583" y="559"/>
      <point x="583" y="559" type="curve"/>
      <point x="611" y="596"/>
      <point x="634" y="621"/>
      <point x="634" y="642" type="curve" smooth="yes"/>
      <point x="634" y="661"/>
      <point x="615" y="674"/>
      <point x="595" y="674" type="curve" smooth="yes"/>
      <point x="582" y="674"/>
      <point x="569" y="670"/>
      <point x="559" y="657" type="curve"/>
      <point x="547" y="638"/>
      <point x="535" y="622"/>
      <point x="518" y="599" type="curve"/>
      <point x="472" y="624"/>
      <point x="412" y="636"/>
      <point x="347" y="636" type="curve" smooth="yes"/>
    </contour>
    <contour>
      <point x="254" y="121" type="line"/>
      <point x="337" y="232"/>
      <point x="440" y="366"/>
      <point x="440" y="366" type="curve"/>
      <point x="519" y="472" type="line"/>
      <point x="555" y="430"/>
      <point x="568" y="381"/>
      <point x="568" y="300" type="curve" smooth="yes"/>
      <point x="568" y="170"/>
      <point x="480" y="94"/>
      <point x="347" y="94" type="curve" smooth="yes"/>
      <point x="319" y="94"/>
      <point x="301" y="102"/>
      <point x="256" y="119" type="curve"/>
    </contour>
    <contour>
      <point x="349" y="370" type="line" smooth="yes"/>
      <point x="313" y="321"/>
      <point x="235" y="220"/>
      <point x="198" y="171" type="curve"/>
      <point x="170" y="202"/>
      <point x="153" y="236"/>
      <point x="154" y="287" type="curve" smooth="yes"/>
      <point x="154" y="407"/>
      <point x="226" y="536"/>
      <point x="355" y="536" type="curve" smooth="yes"/>
      <point x="391" y="536"/>
      <point x="427" y="530"/>
      <point x="458" y="517" type="curve"/>
    </contour>
  </outline>
</glyph>
<glyph name="Ucircumflex" format="1">
  <advance width="663"/>
  <unicode hex="00DB"/>
  <outline>
    <contour>
      <point x="177" y="617"/>
      <point x="153" y="633"/>
      <point x="114" y="633" type="curve" smooth="yes"/>
      <point x="91" y="633"/>
      <point x="65" y="611"/>
      <point x="65" y="589" type="curve" smooth="yes"/>
      <point x="65" y="454"/>
      <point x="66" y="355"/>
      <point x="85" y="258" type="curve" smooth="yes"/>
      <point x="112" y="121"/>
      <point x="185" y="-2"/>
      <point x="346" y="-2" type="curve" smooth="yes"/>
      <point x="499" y="-2"/>
      <point x="600" y="154"/>
      <point x="600" y="288" type="curve" smooth="yes"/>
      <point x="600" y="353"/>
      <point x="593" y="418"/>
      <point x="593" y="490" type="curve" smooth="yes"/>
      <point x="593" y="517"/>
      <point x="598" y="552"/>
      <point x="598" y="589" type="curve" smooth="yes"/>
      <point x="598" y="611"/>
      <point x="573" y="630"/>
      <point x="562" y="630" type="curve" smooth="yes"/>
      <point x="544" y="630"/>
      <point x="482" y="629"/>
      <point x="482" y="595" type="curve" smooth="yes"/>
      <point x="482" y="510"/>
      <point x="495" y="427"/>
      <point x="495" y="339" type="curve" smooth="yes"/>
      <point x="495" y="271"/>
      <point x="482" y="221"/>
      <point x="465" y="186" type="curve" smooth="yes"/>
      <point x="443" y="139"/>
      <point x="398" y="97"/>
      <point x="339" y="97" type="curve" smooth="yes"/>
      <point x="304" y="97"/>
      <point x="272" y="112"/>
      <point x="248" y="140" type="curve" smooth="yes"/>
      <point x="220" y="174"/>
      <point x="201" y="220"/>
      <point x="188" y="279" type="curve" smooth="yes"/>
      <point x="176" y="334"/>
      <point x="174" y="388"/>
      <point x="174" y="438" type="curve" smooth="yes"/>
      <point x="174" y="483"/>
      <point x="177" y="527"/>
      <point x="177" y="580" type="curve" smooth="yes"/>
    </contour>
    <contour>
      <point x="300" y="860"/>
      <point x="287" y="843"/>
      <point x="280" y="834" type="curve" smooth="yes"/>
      <point x="273" y="825"/>
      <point x="260" y="808"/>
      <point x="231" y="784" type="curve" smooth="yes"/>
      <point x="213" y="769"/>
      <point x="191" y="744"/>
      <point x="191" y="733" type="curve" smooth="yes"/>
      <point x="191" y="723"/>
      <point x="197" y="706"/>
      <point x="221" y="706" type="curve" smooth="yes"/>
      <point x="262" y="706"/>
      <point x="315" y="757"/>
      <point x="338" y="790" type="curve"/>
      <point x="366" y="751"/>
      <point x="404" y="706"/>
      <point x="454" y="706" type="curve" smooth="yes"/>
      <point x="472" y="706"/>
      <point x="484" y="723"/>
      <point x="484" y="733" type="curve" smooth="yes"/>
      <point x="484" y="741"/>
      <point x="481" y="751"/>
      <point x="462" y="765" type="curve" smooth="yes"/>
      <point x="439" y="781"/>
      <point x="409" y="810"/>
      <point x="395" y="830" type="curve" smooth="yes"/>
      <point x="382" y="850"/>
      <point x="368" y="860"/>
      <point x="336" y="860" type="curve" smooth="yes"/>
    </contour>
  </outline>
</glyph>
<glyph name="germandbls" format="1">
  <advance width="613"/>
  <unicode hex="00DF"/>
  <outline>
    <contour>
      <point x="440" y="293"/>
      <point x="380" y="310"/>
      <point x="380" y="330" type="curve" smooth="yes"/>
      <point x="380" y="351"/>
      <point x="400" y="364"/>
      <point x="434" y="384" type="curve" smooth="yes"/>
      <point x="474" y="409"/>
      <point x="517" y="436"/>
      <point x="517" y="501" type="curve" smooth="yes"/>
      <point x="517" y="542"/>
      <point x="508" y="572"/>
      <point x="494" y="595" type="curve" smooth="yes"/>
      <point x="477" y="621"/>
      <point x="404" y="675"/>
      <point x="339" y="675" type="curve" smooth="yes"/>
      <point x="252" y="675"/>
      <point x="193" y="665"/>
      <point x="159" y="636" type="curve" smooth="yes"/>
      <point x="104" y="591"/>
      <point x="73" y="537"/>
      <point x="73" y="465" type="curve" smooth="yes"/>
      <point x="73" y="381"/>
      <point x="63" y="305"/>
      <point x="69" y="230" type="curve" smooth="yes"/>
      <point x="74" y="162"/>
      <point x="56" y="76"/>
      <point x="84" y="15" type="curve"/>
      <point x="88" y="9" type="line"/>
      <point x="97" y="2"/>
      <point x="105" y="-2"/>
      <point x="118" y="-2" type="curve" smooth="yes"/>
      <point x="146" y="-2"/>
      <point x="166" y="19"/>
      <point x="166" y="42" type="curve" smooth="yes"/>
      <point x="166" y="111"/>
      <point x="169" y="166"/>
      <point x="169" y="242" type="curve" smooth="yes"/>
      <point x="169" y="316"/>
      <point x="174" y="391"/>
      <point x="174" y="470" type="curve" smooth="yes"/>
      <point x="174" y="525"/>
      <point x="241" y="579"/>
      <point x="305" y="579" type="curve" smooth="yes"/>
      <point x="360" y="579"/>
      <point x="409" y="565"/>
      <point x="409" y="496" type="curve" smooth="yes"/>
      <point x="409" y="477"/>
      <point x="382" y="462"/>
      <point x="354" y="442" type="curve" smooth="yes"/>
      <point x="313" y="414"/>
      <point x="273" y="387"/>
      <point x="273" y="328" type="curve" smooth="yes"/>
      <point x="273" y="267"/>
      <point x="328" y="244"/>
      <point x="345" y="235" type="curve" smooth="yes"/>
      <point x="383" y="214"/>
      <point x="477" y="190"/>
      <point x="477" y="137" type="curve" smooth="yes"/>
      <point x="477" y="103"/>
      <point x="451" y="85"/>
      <point x="399" y="85" type="curve" smooth="yes"/>
      <point x="374" y="85"/>
      <point x="362" y="96"/>
      <point x="341" y="114" type="curve" smooth="yes"/>
      <point x="325" y="128"/>
      <point x="317" y="142"/>
      <point x="291" y="142" type="curve" smooth="yes"/>
      <point x="262" y="142"/>
      <point x="245" y="107"/>
      <point x="245" y="84" type="curve" smooth="yes"/>
      <point x="245" y="60"/>
      <point x="308" y="19"/>
      <point x="325" y="12" type="curve" smooth="yes"/>
      <point x="339" y="6"/>
      <point x="378" y="0"/>
      <point x="403" y="0" type="curve" smooth="yes"/>
      <point x="544" y="0"/>
      <point x="581" y="87"/>
      <point x="581" y="134" type="curve" smooth="yes"/>
      <point x="581" y="222"/>
      <point x="526" y="248"/>
      <point x="459" y="283" type="curve" smooth="yes"/>
    </contour>
  </outline>
</glyph>
<glyph name="atilde" format="1">
  <advance width="521"/>
  <unicode hex="00E3"/>
  <outline>
    <contour>
      <point x="508" y="15"/>
      <point x="463" y="-4"/>
      <point x="441" y="-4" type="curve" smooth="yes"/>
      <point x="393" y="-4"/>
      <point x="365" y="5"/>
      <point x="339" y="41" type="curve"/>
      <point x="301" y="7"/>
      <point x="227" y="-5"/>
      <point x="185" y="-5" type="curve" smooth="yes"/>
      <point x="108" y="-5"/>
      <point x="43" y="36"/>
      <point x="43" y="127" type="curve" smooth="yes"/>
      <point x="43" y="166"/>
      <point x="67" y="198"/>
      <point x="99" y="220" type="curve" smooth="yes"/>
      <point x="138" y="246"/>
      <point x="189" y="260"/>
      <point x="242" y="260" type="curve" smooth="yes"/>
      <point x="271" y="260"/>
      <point x="317" y="246"/>
      <point x="337" y="235" type="curve"/>
      <point x="337" y="251" type="line" smooth="yes"/>
      <point x="337" y="325"/>
      <point x="301" y="346"/>
      <point x="227" y="346" type="curve" smooth="yes"/>
      <point x="201" y="346"/>
      <point x="175" y="331"/>
      <point x="156" y="320" type="curve" smooth="yes"/>
      <point x="141" y="312"/>
      <point x="121" y="305"/>
      <point x="103" y="305" type="curve" smooth="yes"/>
      <point x="90" y="305"/>
      <point x="78" y="328"/>
      <point x="78" y="340" type="curve" smooth="yes"/>
      <point x="78" y="403"/>
      <point x="185" y="432"/>
      <point x="239" y="432" type="curve" smooth="yes"/>
      <point x="274" y="432"/>
      <point x="336" y="418"/>
      <point x="372" y="389" type="curve"/>
      <point x="410" y="356"/>
      <point x="435" y="309"/>
      <point x="435" y="253" type="curve" smooth="yes"/>
      <point x="435" y="225"/>
      <point x="431" y="201"/>
      <point x="431" y="166" type="curve" smooth="yes"/>
      <point x="431" y="147"/>
      <point x="427" y="128"/>
      <point x="427" y="104" type="curve" smooth="yes"/>
      <point x="427" y="87"/>
      <point x="442" y="75"/>
      <point x="457" y="75" type="curve" smooth="yes"/>
      <point x="467" y="75"/>
      <point x="473" y="76"/>
      <point x="485" y="76" type="curve" smooth="yes"/>
      <point x="501" y="76"/>
      <point x="508" y="62"/>
      <point x="508" y="48" type="curve" smooth="yes"/>
    </contour>
    <contour>
      <point x="244" y="74"/>
      <point x="274" y="84"/>
      <point x="328" y="116" type="curve"/>
      <point x="331" y="129"/>
      <point x="332" y="137"/>
      <point x="333" y="161" type="curve"/>
      <point x="301" y="176"/>
      <point x="270" y="187"/>
      <point x="242" y="187" type="curve" smooth="yes"/>
      <point x="200" y="187"/>
      <point x="137" y="175"/>
      <point x="137" y="119" type="curve" smooth="yes"/>
      <point x="137" y="92"/>
      <point x="166" y="74"/>
      <point x="186" y="74" type="curve" smooth="yes"/>
    </contour>
    <contour>
      <point x="86" y="497"/>
      <point x="107" y="487"/>
      <point x="118" y="487" type="curve" smooth="yes"/>
      <point x="134" y="487"/>
      <point x="148" y="494"/>
      <point x="159" y="510" type="curve" smooth="yes"/>
      <point x="171" y="528"/>
      <point x="189" y="534"/>
      <point x="205" y="534" type="curve" smooth="yes"/>
      <point x="238" y="534"/>
      <point x="251" y="489"/>
      <point x="318" y="489" type="curve" smooth="yes"/>
      <point x="364" y="489"/>
      <point x="415" y="532"/>
      <point x="415" y="573" type="curve" smooth="yes"/>
      <point x="415" y="594"/>
      <point x="396" y="603"/>
      <point x="381" y="603" type="curve" smooth="yes"/>
      <point x="365" y="603"/>
      <point x="357" y="595"/>
      <point x="350" y="585" type="curve"/>
      <point x="343" y="574"/>
      <point x="337" y="561"/>
      <point x="320" y="561" type="curve"/>
      <point x="307" y="560"/>
      <point x="292" y="567"/>
      <point x="274" y="580" type="curve" smooth="yes"/>
      <point x="252" y="595"/>
      <point x="226" y="604"/>
      <point x="201" y="604" type="curve" smooth="yes"/>
      <point x="153" y="604"/>
      <point x="86" y="569"/>
      <point x="86" y="516" type="curve" smooth="yes"/>
    </contour>
  </outline>
</glyph>
<glyph name="aring" format="1">
  <advance width="521"/>
  <unicode hex="00E5"/>
  <outline>
    <contour>
      <point x="508" y="15"/>
      <point x="463" y="-4"/>
      <point x="441" y="-4" type="curve" smooth="yes"/>
      <point x="393" y="-4"/>
      <point x="365" y="5"/>
      <point x="339" y="41" type="curve"/>
      <point x="301" y="7"/>
      <point x="227" y="-5"/>
      <point x="185" y="-5" type="curve" smooth="yes"/>
      <point x="108" y="-5"/>
      <point x="43" y="36"/>
      <point x="43" y="127" type="curve" smooth="yes"/>
      <point x="43" y="166"/>
      <point x="67" y="198"/>
      <point x="99" y="220" type="curve" smooth="yes"/>
      <point x="138" y="246"/>
      <point x="189" y="260"/>
      <point x="242" y="260" type="curve" smooth="yes"/>
      <point x="271" y="260"/>
      <point x="317" y="246"/>
      <point x="337" y="235" type="curve"/>
      <point x="337" y="251" type="line" smooth="yes"/>
      <point x="337" y="325"/>
      <point x="301" y="346"/>
      <point x="227" y="346" type="curve" smooth="yes"/>
      <point x="201" y="346"/>
      <point x="175" y="331"/>
      <point x="156" y="320" type="curve" smooth="yes"/>
      <point x="141" y="312"/>
      <point x="121" y="305"/>
      <point x="103" y="305" type="curve" smooth="yes"/>
      <point x="90" y="305"/>
      <point x="78" y="328"/>
      <point x="78" y="340" type="curve" smooth="yes"/>
      <point x="78" y="403"/>
      <point x="185" y="432"/>
      <point x="239" y="432" type="curve" smooth="yes"/>
      <point x="274" y="432"/>
      <point x="336" y="418"/>
      <point x="372" y="389" type="curve"/>
      <point x="410" y="356"/>
      <point x="435" y="309"/>
      <point x="435" y="253" type="curve" smooth="yes"/>
      <point x="435" y="225"/>
      <point x="431" y="201"/>
      <point x="431" y="166" type="curve" smooth="yes"/>
      <point x="431" y="147"/>
      <point x="427" y="128"/>
      <point x="427" y="104" type="curve" smooth="yes"/>
      <point x="427" y="87"/>
      <point x="442" y="75"/>
      <point x="457" y="75" type="curve" smooth="yes"/>
      <point x="467" y="75"/>
      <point x="473" y="76"/>
      <point x="485" y="76" type="curve" smooth="yes"/>
      <point x="501" y="76"/>
      <point x="508" y="62"/>
      <point x="508" y="48" type="curve" smooth="yes"/>
    </contour>
    <contour>
      <point x="244" y="74"/>
      <point x="274" y="84"/>
      <point x="328" y="116" type="curve"/>
      <point x="331" y="129"/>
      <point x="332" y="137"/>
      <point x="333" y="161" type="curve"/>
      <point x="301" y="176"/>
      <point x="270" y="187"/>
      <point x="242" y="187" type="curve" smooth="yes"/>
      <point x="200" y="187"/>
      <point x="137" y="175"/>
      <point x="137" y="119" type="curve" smooth="yes"/>
      <point x="137" y="92"/>
      <point x="166" y="74"/>
      <point x="186" y="74" type="curve" smooth="yes"/>
    </contour>
    <contour>
      <point x="284" y="611"/>
      <point x="302" y="597"/>
      <point x="302" y="572" type="curve" smooth="yes"/>
      <point x="302" y="549"/>
      <point x="283" y="537"/>
      <point x="257" y="537" type="curve" smooth="yes"/>
      <point x="234" y="537"/>
      <point x="219" y="553"/>
      <point x="219" y="576" type="curve" smooth="yes"/>
      <point x="219" y="599"/>
      <point x="242" y="611"/>
      <point x="257" y="611" type="curve" smooth="yes"/>
    </contour>
    <contour>
      <point x="311" y="486"/>
      <point x="363" y="533"/>
      <point x="363" y="571" type="curve" smooth="yes"/>
      <point x="363" y="632"/>
      <point x="323" y="663"/>
      <point x="255" y="663" type="curve" smooth="yes"/>
      <point x="199" y="663"/>
      <point x="158" y="617"/>
      <point x="158" y="578" type="curve" smooth="yes"/>
      <point x="158" y="550"/>
      <point x="172" y="528"/>
      <point x="194" y="506" type="curve" smooth="yes"/>
      <point x="210" y="490"/>
      <point x="249" y="486"/>
      <point x="274" y="486" type="curve" smooth="yes"/>
    </contour>
  </outline>
</glyph>
<glyph name="ccedilla" format="1">
  <advance width="469"/>
  <unicode hex="00E7"/>
  <outline>
    <contour>
      <point x="180" y="-84"/>
      <point x="191" y="-101"/>
      <point x="203" y="-101" type="curve" smooth="yes"/>
      <point x="216" y="-101"/>
      <point x="283" y="-99"/>
      <point x="283" y="-131" type="curve" smooth="yes"/>
      <point x="283" y="-144"/>
      <point x="276" y="-157"/>
      <point x="266" y="-162" type="curve" smooth="yes"/>
      <point x="256" y="-167"/>
      <point x="234" y="-172"/>
      <point x="217" y="-172" type="curve" smooth="yes"/>
      <point x="200" y="-172"/>
      <point x="199" y="-160"/>
      <point x="179" y="-160" type="curve" smooth="yes"/>
      <point x="170" y="-160"/>
      <point x="156" y="-168"/>
      <point x="156" y="-180" type="curve" smooth="yes"/>
      <point x="156" y="-208"/>
      <point x="185" y="-225"/>
      <point x="215" y="-225" type="curve" smooth="yes"/>
      <point x="261" y="-225"/>
      <point x="295" y="-215"/>
      <point x="313" y="-202" type="curve"/>
      <point x="331" y="-188"/>
      <point x="355" y="-164"/>
      <point x="355" y="-137" type="curve" smooth="yes"/>
      <point x="355" y="-86"/>
      <point x="315" y="-63"/>
      <point x="265" y="-58" type="curve"/>
      <point x="273" y="-45"/>
      <point x="299" y="-14"/>
      <point x="308" y="0" type="curve"/>
      <point x="369" y="10"/>
      <point x="437" y="38"/>
      <point x="437" y="88" type="curve" smooth="yes"/>
      <point x="437" y="110"/>
      <point x="410" y="123"/>
      <point x="398" y="123" type="curve" smooth="yes"/>
      <point x="380" y="123"/>
      <point x="364" y="115"/>
      <point x="348" y="107" type="curve" smooth="yes"/>
      <point x="329" y="97"/>
      <point x="301" y="84"/>
      <point x="275" y="84" type="curve" smooth="yes"/>
      <point x="259" y="84"/>
      <point x="232" y="89"/>
      <point x="214" y="99" type="curve" smooth="yes"/>
      <point x="168" y="125"/>
      <point x="146" y="160"/>
      <point x="146" y="217" type="curve" smooth="yes"/>
      <point x="146" y="297"/>
      <point x="207" y="351"/>
      <point x="264" y="351" type="curve" smooth="yes"/>
      <point x="280" y="351"/>
      <point x="299" y="337"/>
      <point x="316" y="318" type="curve" smooth="yes"/>
      <point x="328" y="304"/>
      <point x="341" y="290"/>
      <point x="363" y="290" type="curve" smooth="yes"/>
      <point x="394" y="290"/>
      <point x="408" y="307"/>
      <point x="408" y="334" type="curve" smooth="yes"/>
      <point x="408" y="400"/>
      <point x="319" y="435"/>
      <point x="257" y="435" type="curve" smooth="yes"/>
      <point x="140" y="435"/>
      <point x="43" y="336"/>
      <point x="43" y="205" type="curve" smooth="yes"/>
      <point x="43" y="91"/>
      <point x="128" y="9"/>
      <point x="234" y="-2" type="curve"/>
      <point x="223" y="-12"/>
      <point x="213" y="-24"/>
      <point x="204" y="-35" type="curve"/>
      <point x="194" y="-46"/>
      <point x="180" y="-61"/>
      <point x="180" y="-74" type="curve" smooth="yes"/>
    </contour>
  </outline>
</glyph>
<glyph name="igrave" format="1">
  <advance width="256"/>
  <unicode hex="00EC"/>
  <outline>
    <contour>
      <point x="184" y="415"/>
      <point x="173" y="434"/>
      <point x="132" y="434" type="curve" smooth="yes"/>
      <point x="108" y="434"/>
      <point x="76" y="416"/>
      <point x="76" y="390" type="curve" smooth="yes"/>
      <point x="76" y="348"/>
      <point x="78" y="308"/>
      <point x="80" y="263" type="curve" smooth="yes"/>
      <point x="83" y="202"/>
      <point x="85" y="131"/>
      <point x="85" y="79" type="curve" smooth="yes"/>
      <point x="85" y="58"/>
      <point x="88" y="38"/>
      <point x="91" y="22" type="curve"/>
      <point x="97" y="6"/>
      <point x="130" y="-4"/>
      <point x="153" y="-4" type="curve" smooth="yes"/>
      <point x="167" y="-4"/>
      <point x="192" y="13"/>
      <point x="193" y="27" type="curve"/>
      <point x="188" y="76"/>
      <point x="184" y="112"/>
      <point x="184" y="170" type="curve" smooth="yes"/>
      <point x="184" y="199" type="line" smooth="yes"/>
      <point x="184" y="209"/>
      <point x="184" y="318"/>
      <point x="184" y="380" type="curve" smooth="yes"/>
    </contour>
    <contour>
      <point x="27" y="653"/>
      <point x="8" y="640"/>
      <point x="8" y="621" type="curve" smooth="yes"/>
      <point x="8" y="579"/>
      <point x="64" y="541"/>
      <point x="87" y="527" type="curve" smooth="yes"/>
      <point x="109" y="513"/>
      <point x="149" y="506"/>
      <point x="162" y="506" type="curve" smooth="yes"/>
      <point x="176" y="506"/>
      <point x="182" y="515"/>
      <point x="182" y="526" type="curve" smooth="yes"/>
      <point x="182" y="535"/>
      <point x="176" y="540"/>
      <point x="162" y="552" type="curve"/>
      <point x="148" y="565"/>
      <point x="135" y="571"/>
      <point x="116" y="610" type="curve" smooth="yes"/>
      <point x="100" y="643"/>
      <point x="82" y="653"/>
      <point x="55" y="653" type="curve" smooth="yes"/>
    </contour>
  </outline>
</glyph>
<glyph name="iacute" format="1">
  <advance width="256"/>
  <unicode hex="00ED"/>
  <outline>
    <contour>
      <point x="184" y="415"/>
      <point x="173" y="434"/>
      <point x="132" y="434" type="curve" smooth="yes"/>
      <point x="108" y="434"/>
      <point x="76" y="416"/>
      <point x="76" y="390" type="curve" smooth="yes"/>
      <point x="76" y="348"/>
      <point x="78" y="308"/>
      <point x="80" y="263" type="curve" smooth="yes"/>
      <point x="83" y="202"/>
      <point x="85" y="131"/>
      <point x="85" y="79" type="curve" smooth="yes"/>
      <point x="85" y="58"/>
      <point x="88" y="38"/>
      <point x="91" y="22" type="curve"/>
      <point x="97" y="6"/>
      <point x="130" y="-4"/>
      <point x="153" y="-4" type="curve" smooth="yes"/>
      <point x="167" y="-4"/>
      <point x="192" y="13"/>
      <point x="193" y="27" type="curve"/>
      <point x="188" y="76"/>
      <point x="184" y="112"/>
      <point x="184" y="170" type="curve" smooth="yes"/>
      <point x="184" y="199" type="line" smooth="yes"/>
      <point x="184" y="209"/>
      <point x="184" y="318"/>
      <point x="184" y="380" type="curve" smooth="yes"/>
    </contour>
    <contour>
      <point x="169" y="634"/>
      <point x="150" y="624"/>
      <point x="134" y="591" type="curve" smooth="yes"/>
      <point x="116" y="552"/>
      <point x="102" y="546"/>
      <point x="89" y="533" type="curve"/>
      <point x="74" y="521"/>
      <point x="68" y="516"/>
      <point x="68" y="507" type="curve" smooth="yes"/>
      <point x="68" y="496"/>
      <point x="74" y="487"/>
      <point x="89" y="487" type="curve" smooth="yes"/>
      <point x="101" y="487"/>
      <point x="141" y="494"/>
      <point x="163" y="508" type="curve"/>
      <point x="187" y="522"/>
      <point x="242" y="560"/>
      <point x="242" y="602" type="curve" smooth="yes"/>
      <point x="242" y="621"/>
      <point x="224" y="634"/>
      <point x="196" y="634" type="curve" smooth="yes"/>
    </contour>
  </outline>
</glyph>
<glyph name="icircumflex" format="1">
  <advance width="256"/>
  <unicode hex="00EE"/>
  <outline>
    <contour>
      <point x="184" y="415"/>
      <point x="173" y="434"/>
      <point x="132" y="434" type="curve" smooth="yes"/>
      <point x="108" y="434"/>
      <point x="76" y="416"/>
      <point x="76" y="390" type="curve" smooth="yes"/>
      <point x="76" y="348"/>
      <point x="78" y="308"/>
      <point x="80" y="263" type="curve" smooth="yes"/>
      <point x="83" y="202"/>
      <point x="85" y="131"/>
      <point x="85" y="79" type="curve" smooth="yes"/>
      <point x="85" y="58"/>
      <point x="88" y="38"/>
      <point x="91" y="22" type="curve"/>
      <point x="97" y="6"/>
      <point x="130" y="-4"/>
      <point x="153" y="-4" type="curve" smooth="yes"/>
      <point x="167" y="-4"/>
      <point x="192" y="13"/>
      <point x="193" y="27" type="curve"/>
      <point x="188" y="76"/>
      <point x="184" y="112"/>
      <point x="184" y="170" type="curve" smooth="yes"/>
      <point x="184" y="199" type="line" smooth="yes"/>
      <point x="184" y="209"/>
      <point x="184" y="318"/>
      <point x="184" y="380" type="curve" smooth="yes"/>
    </contour>
    <contour>
      <point x="90" y="639"/>
      <point x="77" y="622"/>
      <point x="70" y="613" type="curve" smooth="yes"/>
      <point x="63" y="604"/>
      <point x="50" y="587"/>
      <point x="21" y="563" type="curve" smooth="yes"/>
      <point x="3" y="548"/>
      <point x="-19" y="523"/>
      <point x="-19" y="512" type="curve" smooth="yes"/>
      <point x="-19" y="502"/>
      <point x="-13" y="485"/>
      <point x="11" y="485" type="curve" smooth="yes"/>
      <point x="52" y="485"/>
      <point x="105" y="536"/>
      <point x="128" y="569" type="curve"/>
      <point x="156" y="530"/>
      <point x="194" y="485"/>
      <point x="244" y="485" type="curve" smooth="yes"/>
      <point x="262" y="485"/>
      <point x="274" y="502"/>
      <point x="274" y="512" type="curve" smooth="yes"/>
      <point x="274" y="520"/>
      <point x="271" y="530"/>
      <point x="252" y="544" type="curve" smooth="yes"/>
      <point x="229" y="560"/>
      <point x="199" y="589"/>
      <point x="185" y="609" type="curve" smooth="yes"/>
      <point x="172" y="629"/>
      <point x="158" y="639"/>
      <point x="126" y="639" type="curve" smooth="yes"/>
    </contour>
  </outline>
</glyph>
<glyph name="idieresis" format="1">
  <advance width="256"/>
  <unicode hex="00EF"/>
  <outline>
    <contour>
      <point x="184" y="415"/>
      <point x="173" y="434"/>
      <point x="132" y="434" type="curve" smooth="yes"/>
      <point x="108" y="434"/>
      <point x="76" y="416"/>
      <point x="76" y="390" type="curve" smooth="yes"/>
      <point x="76" y="348"/>
      <point x="78" y="308"/>
      <point x="80" y="263" type="curve" smooth="yes"/>
      <point x="83" y="202"/>
      <point x="85" y="131"/>
      <point x="85" y="79" type="curve" smooth="yes"/>
      <point x="85" y="58"/>
      <point x="88" y="38"/>
      <point x="91" y="22" type="curve"/>
      <point x="97" y="6"/>
      <point x="130" y="-4"/>
      <point x="153" y="-4" type="curve" smooth="yes"/>
      <point x="167" y="-4"/>
      <point x="192" y="13"/>
      <point x="193" y="27" type="curve"/>
      <point x="188" y="76"/>
      <point x="184" y="112"/>
      <point x="184" y="170" type="curve" smooth="yes"/>
      <point x="184" y="199" type="line" smooth="yes"/>
      <point x="184" y="209"/>
      <point x="184" y="318"/>
      <point x="184" y="380" type="curve" smooth="yes"/>
    </contour>
    <contour>
      <point x="-6" y="603"/>
      <point x="-7" y="565"/>
      <point x="-7" y="545" type="curve" smooth="yes"/>
      <point x="-7" y="532"/>
      <point x="-1" y="506"/>
      <point x="36" y="506" type="curve" smooth="yes"/>
      <point x="68" y="506"/>
      <point x="94" y="521"/>
      <point x="94" y="547" type="curve" smooth="yes"/>
      <point x="94" y="586"/>
      <point x="57" y="600"/>
      <point x="25" y="601" type="curve" smooth="yes"/>
    </contour>
    <contour>
      <point x="162" y="603"/>
      <point x="161" y="565"/>
      <point x="161" y="545" type="curve" smooth="yes"/>
      <point x="161" y="532"/>
      <point x="167" y="506"/>
      <point x="204" y="506" type="curve" smooth="yes"/>
      <point x="237" y="506"/>
      <point x="262" y="521"/>
      <point x="262" y="547" type="curve" smooth="yes"/>
      <point x="262" y="586"/>
      <point x="225" y="600"/>
      <point x="194" y="601" type="curve" smooth="yes"/>
    </contour>
  </outline>
</glyph>
<glyph name="eth" format="1">
  <advance width="527"/>
  <unicode hex="00F0"/>
  <outline>
    <contour>
      <point x="158" y="512"/>
      <point x="149" y="503"/>
      <point x="149" y="490" type="curve" smooth="yes"/>
      <point x="149" y="478"/>
      <point x="179" y="457"/>
      <point x="189" y="457" type="curve" smooth="yes"/>
      <point x="199" y="457"/>
      <point x="220" y="469"/>
      <point x="227" y="475" type="curve"/>
      <point x="232" y="480"/>
      <point x="253" y="496"/>
      <point x="276" y="513" type="curve"/>
      <point x="308" y="480"/>
      <point x="339" y="435"/>
      <point x="347" y="398" type="curve"/>
      <point x="327" y="418"/>
      <point x="273" y="425"/>
      <point x="254" y="425" type="curve" smooth="yes"/>
      <point x="207" y="425"/>
      <point x="135" y="400"/>
      <point x="111" y="368" type="curve"/>
      <point x="76" y="325"/>
      <point x="45" y="273"/>
      <point x="45" y="217" type="curve" smooth="yes"/>
      <point x="45" y="194"/>
      <point x="67" y="128"/>
      <point x="73" y="109" type="curve"/>
      <point x="99" y="52"/>
      <point x="180" y="-2"/>
      <point x="248" y="-2" type="curve" smooth="yes"/>
      <point x="330" y="-2"/>
      <point x="417" y="54"/>
      <point x="456" y="126" type="curve"/>
      <point x="466" y="161"/>
      <point x="473" y="200"/>
      <point x="473" y="253" type="curve" smooth="yes"/>
      <point x="473" y="340"/>
      <point x="435" y="485"/>
      <point x="359" y="564" type="curve" smooth="yes"/>
      <point x="355" y="568" type="line"/>
      <point x="368" y="577"/>
      <point x="417" y="612"/>
      <point x="417" y="624" type="curve" smooth="yes"/>
      <point x="417" y="642"/>
      <point x="396" y="660"/>
      <point x="380" y="660" type="curve" smooth="yes"/>
      <point x="364" y="660"/>
      <point x="360" y="660"/>
      <point x="338" y="639" type="curve" smooth="yes"/>
      <point x="333" y="634"/>
      <point x="321" y="625"/>
      <point x="306" y="615" type="curve"/>
      <point x="266" y="646"/>
      <point x="232" y="660"/>
      <point x="187" y="660" type="curve" smooth="yes"/>
      <point x="163" y="660"/>
      <point x="147" y="647"/>
      <point x="147" y="615" type="curve" smooth="yes"/>
      <point x="147" y="602"/>
      <point x="205" y="570"/>
      <point x="225" y="557" type="curve"/>
      <point x="189" y="533"/>
      <point x="158" y="512"/>
      <point x="158" y="512" type="curve" smooth="yes"/>
    </contour>
    <contour>
      <point x="348" y="122"/>
      <point x="289" y="83"/>
      <point x="250" y="83" type="curve" smooth="yes"/>
      <point x="186" y="83"/>
      <point x="148" y="151"/>
      <point x="148" y="208" type="curve" smooth="yes"/>
      <point x="148" y="271"/>
      <point x="176" y="342"/>
      <point x="260" y="342" type="curve" smooth="yes"/>
      <point x="305" y="342"/>
      <point x="332" y="322"/>
      <point x="332" y="322" type="curve"/>
      <point x="360" y="295"/>
      <point x="372" y="269"/>
      <point x="372" y="229" type="curve" smooth="yes"/>
      <point x="372" y="194"/>
      <point x="370" y="173"/>
      <point x="366" y="164" type="curve" smooth="yes"/>
    </contour>
  </outline>
</glyph>
<glyph name="ograve" format="1">
  <advance width="512"/>
  <unicode hex="00F2"/>
  <outline>
    <contour>
      <point x="404" y="400"/>
      <point x="341" y="433"/>
      <point x="248" y="433" type="curve" smooth="yes"/>
      <point x="202" y="433"/>
      <point x="131" y="409"/>
      <point x="107" y="377" type="curve"/>
      <point x="73" y="335"/>
      <point x="45" y="269"/>
      <point x="45" y="214" type="curve" smooth="yes"/>
      <point x="45" y="192"/>
      <point x="66" y="124"/>
      <point x="72" y="105" type="curve"/>
      <point x="98" y="49"/>
      <point x="178" y="-4"/>
      <point x="246" y="-4" type="curve" smooth="yes"/>
      <point x="349" y="-4"/>
      <point x="411" y="51"/>
      <point x="450" y="122" type="curve"/>
      <point x="454" y="139"/>
      <point x="467" y="192"/>
      <point x="467" y="233" type="curve" smooth="yes"/>
      <point x="467" y="260"/>
      <point x="460" y="301"/>
      <point x="449" y="321" type="curve" smooth="yes"/>
    </contour>
    <contour>
      <point x="344" y="119"/>
      <point x="313" y="81"/>
      <point x="247" y="81" type="curve" smooth="yes"/>
      <point x="203" y="81"/>
      <point x="167" y="121"/>
      <point x="162" y="132" type="curve"/>
      <point x="157" y="142"/>
      <point x="147" y="192"/>
      <point x="147" y="205" type="curve" smooth="yes"/>
      <point x="147" y="267"/>
      <point x="172" y="352"/>
      <point x="255" y="352" type="curve" smooth="yes"/>
      <point x="299" y="352"/>
      <point x="326" y="332"/>
      <point x="326" y="332" type="curve"/>
      <point x="353" y="305"/>
      <point x="367" y="265"/>
      <point x="367" y="227" type="curve" smooth="yes"/>
      <point x="367" y="192"/>
      <point x="365" y="168"/>
      <point x="362" y="160" type="curve"/>
    </contour>
    <contour>
      <point x="166" y="633"/>
      <point x="147" y="620"/>
      <point x="147" y="601" type="curve" smooth="yes"/>
      <point x="147" y="559"/>
      <point x="203" y="521"/>
      <point x="226" y="507" type="curve" smooth="yes"/>
      <point x="248" y="493"/>
      <point x="288" y="486"/>
      <point x="301" y="486" type="curve" smooth="yes"/>
      <point x="315" y="486"/>
      <point x="321" y="495"/>
      <point x="321" y="506" type="curve" smooth="yes"/>
      <point x="321" y="515"/>
      <point x="315" y="520"/>
      <point x="301" y="532" type="curve"/>
      <point x="287" y="545"/>
      <point x="274" y="551"/>
      <point x="255" y="590" type="curve" smooth="yes"/>
      <point x="239" y="623"/>
      <point x="221" y="633"/>
      <point x="194" y="633" type="curve" smooth="yes"/>
    </contour>
  </outline>
</glyph>
<glyph name="ocircumflex" format="1">
  <advance width="512"/>
  <unicode hex="00F4"/>
  <outline>
    <contour>
      <point x="404" y="400"/>
      <point x="341" y="433"/>
      <point x="248" y="433" type="curve" smooth="yes"/>
      <point x="202" y="433"/>
      <point x="131" y="409"/>
      <point x="107" y="377" type="curve"/>
      <point x="73" y="335"/>
      <point x="45" y="269"/>
      <point x="45" y="214" type="curve" smooth="yes"/>
      <point x="45" y="192"/>
      <point x="66" y="124"/>
      <point x="72" y="105" type="curve"/>
      <point x="98" y="49"/>
      <point x="178" y="-4"/>
      <point x="246" y="-4" type="curve" smooth="yes"/>
      <point x="349" y="-4"/>
      <point x="411" y="51"/>
      <point x="450" y="122" type="curve"/>
      <point x="454" y="139"/>
      <point x="467" y="192"/>
      <point x="467" y="233" type="curve" smooth="yes"/>
      <point x="467" y="260"/>
      <point x="460" y="301"/>
      <point x="449" y="321" type="curve" smooth="yes"/>
    </contour>
    <contour>
      <point x="344" y="119"/>
      <point x="313" y="81"/>
      <point x="247" y="81" type="curve" smooth="yes"/>
      <point x="203" y="81"/>
      <point x="167" y="121"/>
      <point x="162" y="132" type="curve"/>
      <point x="157" y="142"/>
      <point x="147" y="192"/>
      <point x="147" y="205" type="curve" smooth="yes"/>
      <point x="147" y="267"/>
      <point x="172" y="352"/>
      <point x="255" y="352" type="curve" smooth="yes"/>
      <point x="299" y="352"/>
      <point x="326" y="332"/>
      <point x="326" y="332" type="curve"/>
      <point x="353" y="305"/>
      <point x="367" y="265"/>
      <point x="367" y="227" type="curve" smooth="yes"/>
      <point x="367" y="192"/>
      <point x="365" y="168"/>
      <point x="362" y="160" type="curve"/>
    </contour>
    <contour>
      <point x="221" y="639"/>
      <point x="208" y="622"/>
      <point x="201" y="613" type="curve" smooth="yes"/>
      <point x="194" y="604"/>
      <point x="181" y="587"/>
      <point x="152" y="563" type="curve" smooth="yes"/>
      <point x="134" y="548"/>
      <point x="112" y="523"/>
      <point x="112" y="512" type="curve" smooth="yes"/>
      <point x="112" y="502"/>
      <point x="118" y="485"/>
      <point x="142" y="485" type="curve" smooth="yes"/>
      <point x="183" y="485"/>
      <point x="236" y="536"/>
      <point x="259" y="569" type="curve"/>
      <point x="287" y="530"/>
      <point x="325" y="485"/>
      <point x="375" y="485" type="curve" smooth="yes"/>
      <point x="393" y="485"/>
      <point x="405" y="502"/>
      <point x="405" y="512" type="curve" smooth="yes"/>
      <point x="405" y="520"/>
      <point x="402" y="530"/>
      <point x="383" y="544" type="curve" smooth="yes"/>
      <point x="360" y="560"/>
      <point x="330" y="589"/>
      <point x="316" y="609" type="curve" smooth="yes"/>
      <point x="303" y="629"/>
      <point x="289" y="639"/>
      <point x="257" y="639" type="curve" smooth="yes"/>
    </contour>
  </outline>
</glyph>
